<?xml version="1.0" encoding="UTF-8" standalone="no"?>
<!-- Created with Inkscape (http://www.inkscape.org/) -->
<svg
   xmlns:a="http://ns.adobe.com/AdobeSVGViewerExtensions/3.0/"
   xmlns:svg="http://www.w3.org/2000/svg"
   xmlns="http://www.w3.org/2000/svg"
   version="1.0"
   width="32mm"
   height="32mm"
   viewBox="0 0.292 127 104"
   id="svg15517"
   xml:space="preserve"><defs
   id="defs15687" />



	<g
   id="Layer_1_2_">
		<path
   d="M 104.427,80.724 L 88.68,88.897 L 91.103,94.575 L 107.823,85.948 L 104.427,80.724 z "
   style="fill:white;fill-rule:evenodd"
   id="path15521" />

		<g
   id="g550_2_">
			<g
   id="g551_2_">
				<g
   id="g552_2_">
					<radialGradient
   cx="-227.502"
   cy="-99.676804"
   r="44.128799"
   fx="-227.502"
   fy="-99.676804"
   id="path568_3_"
   gradientUnits="userSpaceOnUse"
   gradientTransform="translate(308.371,199.852)">
						<stop
   style="stop-color:white;stop-opacity:1"
   offset="0"
   id="stop15531" />

						<stop
   style="stop-color:#e7e7e7;stop-opacity:1"
   offset="0.1204"
   id="stop15533" />

						<stop
   style="stop-color:#aaa;stop-opacity:1"
   offset="0.37459999"
   id="stop15535" />

						<stop
   style="stop-color:#4a4a4a;stop-opacity:1"
   offset="0.73820001"
   id="stop15537" />

						<stop
   style="stop-color:black;stop-opacity:1"
   offset="1"
   id="stop15539" />

						<a:midPointStop
   id="midPointStop15541"
   style="stop-color:#FFFFFF"
   offset="0" />

						<a:midPointStop
   id="midPointStop15543"
   style="stop-color:#FFFFFF"
   offset="0.5" />

						<a:midPointStop
   id="midPointStop15545"
   style="stop-color:#E7E7E7"
   offset="0.1204" />

						<a:midPointStop
   id="midPointStop15547"
   style="stop-color:#E7E7E7"
   offset="0.5" />

						<a:midPointStop
   id="midPointStop15549"
   style="stop-color:#AAAAAA"
   offset="0.3746" />

						<a:midPointStop
   id="midPointStop15551"
   style="stop-color:#AAAAAA"
   offset="0.5" />

						<a:midPointStop
   id="midPointStop15553"
   style="stop-color:#4A4A4A"
   offset="0.7382" />

						<a:midPointStop
   id="midPointStop15555"
   style="stop-color:#4A4A4A"
   offset="0.5" />

						<a:midPointStop
   id="midPointStop15557"
   style="stop-color:#000000"
   offset="1" />

					</radialGradient>

					<path
   d="M 79.872,47.497 C 105.853,32.964 120.164,45.888 125.062,52.022 L 126.525,35.822 C 126.525,35.822 112.891,15.537 81.176,30.049 C 49.461,44.561 40.896,32.674 40.896,32.674 L 38.47,51.487 C 40.695,54.178 51.158,63.558 79.872,47.497 z "
   style="fill:url(#path568_3_)"
   id="path568_2_" />

					<path
   d="M 81.044,29.758 C 49.994,43.966 41.241,32.604 41.156,32.486 L 40.683,31.837 L 38.137,51.584 L 38.226,51.69 C 40.806,54.813 51.448,63.763 80.029,47.776 C 105.754,33.386 119.919,46.092 124.814,52.223 L 125.311,52.845 L 126.856,35.739 L 126.793,35.646 C 126.654,35.439 112.641,15.301 81.044,29.758 z M 81.31,30.339 C 111.526,16.514 125.324,34.7 126.198,35.912 C 126.178,36.135 124.941,49.828 124.815,51.22 C 119.406,44.785 105.063,33.039 79.716,47.217 C 51.84,62.809 41.436,54.484 38.807,51.381 C 38.843,51.104 40.956,34.712 41.123,33.419 C 43.329,35.663 53.388,43.116 81.31,30.339 z "
   id="path15562" />

					<radialGradient
   cx="-227.498"
   cy="-99.669403"
   r="44.130299"
   fx="-227.498"
   fy="-99.669403"
   id="path576_3_"
   gradientUnits="userSpaceOnUse"
   gradientTransform="translate(308.371,199.852)">
						<stop
   style="stop-color:#ffff5d;stop-opacity:1"
   offset="0"
   id="stop15566" />

						<stop
   style="stop-color:#dc0000;stop-opacity:1"
   offset="1"
   id="stop15568" />

						<a:midPointStop
   id="midPointStop15570"
   style="stop-color:#FFFF5D"
   offset="0" />

						<a:midPointStop
   id="midPointStop15572"
   style="stop-color:#FFFF5D"
   offset="0.5" />

						<a:midPointStop
   id="midPointStop15574"
   style="stop-color:#DC0000"
   offset="1" />

					</radialGradient>

					<path
   d="M 77.544,71.964 C 102.653,57.918 117.142,68.855 122.95,75.439 L 125.063,52.022 C 120.165,45.887 105.854,32.963 79.873,47.497 C 51.158,63.559 40.695,54.178 38.471,51.486 L 35.453,74.893 L 35.3,76.353 C 38.054,79.426 49.035,87.909 77.544,71.964 z "
   style="fill:url(#path576_3_)"
   id="path576_2_" />

					<path
   d="M 79.716,47.217 C 51.566,62.963 41.219,54.309 38.718,51.282 L 38.249,50.713 L 35.136,74.852 C 35.135,74.86 34.967,76.459 34.967,76.459 L 35.061,76.564 C 37.796,79.616 48.951,88.322 77.7,72.241 C 102.173,58.551 116.405,68.501 122.71,75.649 L 123.202,76.207 L 125.393,51.923 L 125.313,51.822 C 120.315,45.564 105.868,32.588 79.716,47.217 z M 80.027,47.775 C 105.622,33.459 119.767,45.96 124.731,52.125 C 124.71,52.376 122.818,73.337 122.695,74.688 C 116.035,67.451 101.647,58.114 77.385,71.684 C 49.331,87.377 38.421,79.272 35.631,76.237 C 35.657,75.995 35.769,74.926 35.769,74.926 C 35.769,74.926 38.216,55.947 38.698,52.213 C 41.942,55.662 52.879,62.962 80.027,47.775 z "
   style="fill:#790000"
   id="path15579" />

					<radialGradient
   cx="-227.496"
   cy="-99.959"
   r="44.117199"
   fx="-227.496"
   fy="-99.959"
   id="path584_3_"
   gradientUnits="userSpaceOnUse"
   gradientTransform="translate(308.371,199.852)">
						<stop
   style="stop-color:#ffff6a;stop-opacity:1"
   offset="0"
   id="stop15583" />

						<stop
   style="stop-color:#ff9f00;stop-opacity:1"
   offset="1"
   id="stop15585" />

						<a:midPointStop
   id="midPointStop15587"
   style="stop-color:#FFFF6A"
   offset="0" />

						<a:midPointStop
   id="midPointStop15589"
   style="stop-color:#FFFF6A"
   offset="0.5" />

						<a:midPointStop
   id="midPointStop15591"
   style="stop-color:#FF9F00"
   offset="1" />

					</radialGradient>

					<path
   d="M 33.356,98.526 C 37.308,101.234 53.757,110.381 81.177,97.836 C 112.892,83.324 120.876,97.836 120.876,97.836 L 122.949,75.44 C 117.14,68.856 102.652,57.919 77.542,71.965 C 49.035,87.909 38.054,79.427 35.298,76.353 L 32.932,98.227 C 33.053,98.315 33.194,98.415 33.356,98.526 z "
   style="fill:url(#path584_3_)"
   id="path584_2_" />

					<path
   d="M 77.387,71.684 C 49.054,87.534 38.192,79.101 35.537,76.138 L 35.059,75.604 L 32.594,98.377 L 33.174,98.788 C 37.559,101.793 53.991,110.626 81.31,98.124 C 112.342,83.925 120.518,97.846 120.597,97.987 L 121.099,98.893 L 123.281,75.33 L 123.189,75.225 C 116.757,67.935 102.252,57.775 77.387,71.684 z M 77.7,72.242 C 102.059,58.616 116.269,68.409 122.618,75.55 C 122.594,75.818 120.782,95.393 120.637,96.955 C 118.412,94.187 108.449,85.002 81.044,97.544 C 54.032,109.905 37.852,101.219 33.536,98.263 C 33.536,98.263 33.393,98.161 33.271,98.074 C 33.31,97.719 35.41,78.309 35.545,77.059 C 38.943,80.415 50.341,87.545 77.7,72.242 z M 33.177,98.791 L 33.176,98.79 L 33.177,98.791 z "
   style="fill:#ff9500"
   id="path15596" />

				</g>

				<linearGradient
   x1="-203.05299"
   y1="-231.07899"
   x2="-222.24001"
   y2="-114.038"
   id="path592_3_"
   gradientUnits="userSpaceOnUse"
   gradientTransform="translate(308.371,199.852)">
					<stop
   style="stop-color:white;stop-opacity:1"
   offset="0.045977"
   id="stop15601" />

					<stop
   style="stop-color:white;stop-opacity:0"
   offset="1"
   id="stop15603" />

				</linearGradient>

				<path
   d="M 105.457,27.003 C 99.47,26.168 91.956,26.836 82.811,30.586 L 80.631,47.477 L 76.62,78.599 C 76.619,78.607 76.44,80.31 76.408,80.62 L 74.365,99.496 C 76.362,98.778 78.423,97.95 80.56,96.971 C 87.315,93.88 92.933,92.189 97.586,91.413 L 99.634,72.486 C 99.662,72.215 99.82,70.722 99.821,70.715 L 103.339,43.434 L 105.457,27.003 z "
   style="fill:url(#path592_3_)"
   id="path592_2_" />

			</g>

			<path
   d="M 93.632,80.4 L 94.136,81.31 L 99.25,24.67 C 93.991,25.097 87.937,26.605 81.044,29.758 C 49.994,43.966 41.241,32.604 41.156,32.486 L 40.683,31.837 L 38.249,50.714 L 35.136,74.853 C 35.135,74.86 34.996,76.18 34.972,76.419 L 33.872,86.578 C 39.829,85.855 46.665,84.05 54.344,80.536 C 85.376,66.336 93.552,80.257 93.632,80.4 z "
   style="opacity:0.2"
   id="path593_2_" />

			<g
   id="g594_2_">
				<radialGradient
   cx="-260.979"
   cy="-112.963"
   r="56.666901"
   fx="-260.979"
   fy="-112.963"
   id="path601_3_"
   gradientUnits="userSpaceOnUse"
   gradientTransform="translate(308.371,199.852)">
					<stop
   style="stop-color:#42ff00;stop-opacity:1"
   offset="0"
   id="stop15615" />

					<stop
   style="stop-color:#007200;stop-opacity:1"
   offset="1"
   id="stop15617" />

					<a:midPointStop
   id="midPointStop15619"
   style="stop-color:#42FF00"
   offset="0" />

					<a:midPointStop
   id="midPointStop15621"
   style="stop-color:#42FF00"
   offset="0.5" />

					<a:midPointStop
   id="midPointStop15623"
   style="stop-color:#007200"
   offset="1" />

				</radialGradient>

				<path
   d="M 49.095,5.499 C 17.379,20.01 8.814,8.124 8.814,8.124 L 0.34,73.849 C 0.34,73.849 17.38,88.362 49.095,73.849 C 80.808,59.338 88.794,73.849 88.794,73.849 L 94.443,11.272 C 94.443,11.272 80.808,-9.012 49.095,5.499 z "
   style="fill:url(#path601_3_)"
   id="path601_2_" />

				<path
   d="M 48.961,5.208 C 17.912,19.416 9.158,8.053 9.073,7.937 L 8.6,7.288 L 0,73.981 L 0.133,74.093 C 0.305,74.239 17.693,88.572 49.228,74.14 C 80.26,59.941 88.436,73.862 88.516,74.003 L 89.021,74.914 L 94.774,11.187 L 94.71,11.094 C 94.571,10.889 80.557,-9.249 48.961,5.208 z M 49.228,5.79 C 79.443,-8.035 93.244,10.151 94.116,11.364 C 94.095,11.596 88.703,71.312 88.553,72.968 C 86.327,70.198 76.362,61.022 48.962,73.559 C 19.225,87.167 2.296,74.966 0.681,73.711 C 0.726,73.358 8.864,10.242 9.041,8.868 C 11.246,11.112 21.305,18.566 49.228,5.79 z "
   style="fill:#007400"
   id="path15628" />

				<radialGradient
   cx="-260.979"
   cy="-112.685"
   r="56.667198"
   fx="-260.979"
   fy="-112.685"
   id="path609_3_"
   gradientUnits="userSpaceOnUse"
   gradientTransform="translate(308.371,199.852)">
					<stop
   style="stop-color:#ffff79;stop-opacity:1"
   offset="0"
   id="stop15632" />

					<stop
   style="stop-color:#ffde00;stop-opacity:1"
   offset="1"
   id="stop15634" />

				</radialGradient>

				<path
   d="M 48.805,13.983 L 8.691,44.49 L 45.414,66.524 L 86.092,36.016 L 48.805,13.983 z "
   style="fill:url(#path609_3_)"
   id="path609_2_" />

				<path
   d="M 48.61,13.729 L 8.123,44.522 L 45.435,66.909 L 86.668,35.985 L 48.782,13.598 L 48.61,13.729 z M 48.827,14.367 C 49.189,14.581 84.713,35.573 85.516,36.047 C 84.766,36.608 45.731,65.885 45.394,66.139 C 45.033,65.921 10.048,44.931 9.26,44.458 C 9.996,43.901 48.491,14.623 48.827,14.367 z "
   style="fill:#ff8300"
   id="path15639" />

				<radialGradient
   cx="-260.918"
   cy="-112.684"
   r="56.5989"
   fx="-260.918"
   fy="-112.684"
   id="path617_3_"
   gradientUnits="userSpaceOnUse"
   gradientTransform="translate(308.371,199.852)">
					<stop
   style="stop-color:#a2d4ff;stop-opacity:1"
   offset="0"
   id="stop15643" />

					<stop
   style="stop-color:#00009f;stop-opacity:1"
   offset="1"
   id="stop15645" />

				</radialGradient>

				<path
   d="M 32.023,54.014 C 37.239,57.44 45.3,58.032 53.143,54.974 C 61.511,51.711 67.254,45.222 68.294,38.753 C 64.885,37.162 61.086,36.269 57.077,36.269 C 45.501,36.27 35.659,43.679 32.023,54.014 z "
   style="fill:url(#path617_3_)"
   id="path617_2_" />

				<path
   d="M 31.723,53.907 L 31.64,54.143 L 31.849,54.28 C 37.352,57.896 45.557,58.276 53.261,55.272 C 61.494,52.063 67.52,45.599 68.613,38.805 L 68.651,38.566 L 68.431,38.464 C 64.859,36.796 61.039,35.949 57.079,35.949 C 45.691,35.95 35.5,43.167 31.723,53.907 z M 57.078,36.589 C 60.856,36.589 64.499,37.39 67.919,38.947 C 66.756,45.432 60.955,51.586 53.027,54.677 C 45.612,57.566 37.756,57.243 32.425,53.867 C 36.185,43.525 46.052,36.589 57.078,36.589 z "
   style="fill:#0056a9"
   id="path15650" />

				<radialGradient
   cx="-260.91901"
   cy="-112.684"
   r="56.599899"
   fx="-260.91901"
   fy="-112.684"
   id="path625_3_"
   gradientUnits="userSpaceOnUse"
   gradientTransform="translate(308.371,199.852)">
					<stop
   style="stop-color:#a2d4ff;stop-opacity:1"
   offset="0"
   id="stop15654" />

					<stop
   style="stop-color:#00009f;stop-opacity:1"
   offset="1"
   id="stop15656" />

					<a:midPointStop
   id="midPointStop15658"
   style="stop-color:#A2D4FF"
   offset="0" />

					<a:midPointStop
   id="midPointStop15660"
   style="stop-color:#A2D4FF"
   offset="0.5" />

					<a:midPointStop
   id="midPointStop15662"
   style="stop-color:#00009F"
   offset="1" />

				</radialGradient>

				<path
   d="M 57.078,31.474 C 60.93,31.474 64.615,32.17 68.025,33.442 C 67.921,33.07 67.805,32.7 67.662,32.337 C 64.49,24.197 52.844,21.135 41.652,25.5 C 30.46,29.863 23.959,39.998 27.132,48.138 C 27.443,48.933 27.837,49.679 28.299,50.377 C 33.119,39.254 44.188,31.474 57.078,31.474 z "
   style="fill:url(#path625_3_)"
   id="path625_2_" />

				<path
   d="M 41.536,25.201 C 30.196,29.62 23.602,39.962 26.834,48.253 C 27.145,49.05 27.548,49.823 28.033,50.552 L 28.359,51.042 L 28.593,50.501 C 33.518,39.137 44.7,31.793 57.078,31.793 C 60.802,31.793 64.446,32.448 67.912,33.74 L 68.534,33.972 L 67.961,32.218 C 66.707,29.001 64.143,26.466 60.549,24.888 C 55.183,22.534 48.075,22.65 41.536,25.201 z M 27.43,48.021 C 26.901,46.665 26.649,45.25 26.649,43.817 C 26.649,36.828 32.632,29.358 41.767,25.796 C 48.151,23.307 55.078,23.186 60.291,25.475 C 63.727,26.983 66.171,29.395 67.363,32.452 C 67.363,32.452 67.445,32.7 67.525,32.945 C 64.169,31.771 60.661,31.154 57.077,31.154 C 44.66,31.154 33.44,38.403 28.285,49.661 C 27.969,49.127 27.652,48.59 27.43,48.021 z "
   style="fill:#0056a9"
   id="path15667" />

				<path
   d="M 32.023,54.014 C 35.659,43.679 45.501,36.27 57.078,36.27 C 61.087,36.27 64.886,37.163 68.295,38.754 C 68.584,36.958 68.504,35.165 68.024,33.441 C 64.616,32.17 60.929,31.473 57.079,31.473 C 44.188,31.473 33.119,39.254 28.3,50.375 C 29.256,51.809 30.523,53.028 32.023,54.014 z "
   style="fill:white"
   id="path627_2_" />

				<path
   d="M 28.006,50.248 L 27.937,50.408 L 28.033,50.553 C 28.995,51.997 30.28,53.252 31.847,54.281 L 32.188,54.506 L 32.324,54.121 C 36.013,43.636 45.96,36.591 57.077,36.591 C 60.943,36.591 64.671,37.417 68.159,39.046 L 68.543,39.225 L 68.61,38.807 C 68.911,36.933 68.817,35.099 68.331,33.358 L 68.288,33.201 L 68.136,33.144 C 64.598,31.825 60.878,31.156 57.077,31.156 C 44.444,31.154 33.033,38.649 28.006,50.248 z M 57.078,31.793 C 60.744,31.793 64.331,32.435 67.75,33.688 C 68.005,34.659 68.144,35.658 68.144,36.68 C 68.144,37.213 68.083,37.753 68.013,38.295 C 64.559,36.751 60.887,35.949 57.078,35.949 C 45.839,35.949 35.779,42.985 31.886,53.495 C 30.594,52.593 29.508,51.537 28.676,50.329 C 33.64,39.065 44.763,31.793 57.078,31.793 z "
   style="fill:#878787"
   id="path15671" />

				<linearGradient
   x1="-232.472"
   y1="-255.38"
   x2="-251.659"
   y2="-138.34"
   id="path635_3_"
   gradientUnits="userSpaceOnUse"
   gradientTransform="translate(308.371,199.852)">
					<stop
   style="stop-color:white;stop-opacity:1"
   offset="0.109195"
   id="stop15675" />

					<stop
   style="stop-color:white;stop-opacity:0"
   offset="1"
   id="stop15677" />

				</linearGradient>

				<path
   d="M 76.038,2.702 C 70.051,1.867 62.537,2.535 53.391,6.285 L 51.213,23.175 L 47.2,54.296 C 47.2,54.305 47.021,56.008 46.988,56.318 L 44.946,75.194 C 46.943,74.475 49.003,73.648 51.141,72.669 C 57.897,69.578 63.515,67.886 68.168,67.111 L 70.216,48.184 C 70.244,47.913 70.402,46.42 70.402,46.413 L 73.92,19.133 L 76.038,2.702 z "
   style="fill:url(#path635_3_)"
   id="path635_2_" />

			</g>

		</g>

	</g>

</svg>