<?xml version="1.0" encoding="UTF-8" standalone="no"?>
<!-- Created with Inkscape (http://www.inkscape.org/) -->
<svg
   xmlns:a="http://ns.adobe.com/AdobeSVGViewerExtensions/3.0/"
   xmlns:dc="http://purl.org/dc/elements/1.1/"
   xmlns:cc="http://web.resource.org/cc/"
   xmlns:rdf="http://www.w3.org/1999/02/22-rdf-syntax-ns#"
   xmlns:svg="http://www.w3.org/2000/svg"
   xmlns="http://www.w3.org/2000/svg"
   xmlns:sodipodi="http://sodipodi.sourceforge.net/DTD/sodipodi-0.dtd"
   xmlns:inkscape="http://www.inkscape.org/namespaces/inkscape"
   version="1.0"
   width="115"
   height="127"
   viewBox="0.164 -0.104 115 127"
   id="svg1693"
   xml:space="preserve"
   sodipodi:version="0.32"
   inkscape:version="0.44.1"
   sodipodi:docname="html.svg"
   sodipodi:docbase="/home/qt-devel/projects/Memory/svg"><metadata
   id="metadata1065"><rdf:RDF><cc:Work
       rdf:about=""><dc:format>image/svg+xml</dc:format><dc:type
         rdf:resource="http://purl.org/dc/dcmitype/StillImage" /></cc:Work></rdf:RDF></metadata><sodipodi:namedview
   inkscape:window-height="583"
   inkscape:window-width="988"
   inkscape:pageshadow="2"
   inkscape:pageopacity="0.0"
   guidetolerance="10.0"
   gridtolerance="10.0"
   objecttolerance="10.0"
   borderopacity="1.0"
   bordercolor="#666666"
   pagecolor="#ffffff"
   id="base"
   inkscape:zoom="2.976378"
   inkscape:cx="57.5"
   inkscape:cy="63.5"
   inkscape:window-x="0"
   inkscape:window-y="0"
   inkscape:current-layer="svg1693" /><defs
   id="defs1844">
		
		<linearGradient
   x1="57.584499"
   y1="154.013"
   x2="57.584499"
   y2="-101.487"
   id="XMLID_1_"
   gradientUnits="userSpaceOnUse">
			<stop
   style="stop-color:white;stop-opacity:1"
   offset="0"
   id="stop1699" />
			<stop
   style="stop-color:#f6f6f6;stop-opacity:1"
   offset="0.2457"
   id="stop1701" />
			<stop
   style="stop-color:#dfdfdf;stop-opacity:1"
   offset="0.63739997"
   id="stop1703" />
			<stop
   style="stop-color:#c4c4c4;stop-opacity:1"
   offset="1"
   id="stop1705" />
		</linearGradient>
		
		<linearGradient
   x1="-32.669399"
   y1="-26.8853"
   x2="49.8298"
   y2="55.613998"
   id="XMLID_2_"
   gradientUnits="userSpaceOnUse">
			<stop
   style="stop-color:#b2b2b2;stop-opacity:1"
   offset="0"
   id="stop1710" />
			<stop
   style="stop-color:#828282;stop-opacity:1"
   offset="1"
   id="stop1712" />
			<a:midPointStop
   offset="0"
   style="stop-color:#B2B2B2" />
			<a:midPointStop
   offset="0.5"
   style="stop-color:#B2B2B2" />
			<a:midPointStop
   offset="1"
   style="stop-color:#828282" />
		</linearGradient>
		
		<linearGradient
   x1="36.687"
   y1="24.8696"
   x2="197.673"
   y2="110.514"
   id="XMLID_3_"
   gradientUnits="userSpaceOnUse">
			<stop
   style="stop-color:white;stop-opacity:1"
   offset="0"
   id="stop1717" />
			<stop
   style="stop-color:#dadada;stop-opacity:1"
   offset="0.8603"
   id="stop1719" />
			<stop
   style="stop-color:#d4d4d4;stop-opacity:1"
   offset="1"
   id="stop1721" />
			<a:midPointStop
   offset="0"
   style="stop-color:#FFFFFF" />
			<a:midPointStop
   offset="0.5254"
   style="stop-color:#FFFFFF" />
			<a:midPointStop
   offset="1"
   style="stop-color:#D4D4D4" />
		</linearGradient>
		
		<linearGradient
   x1="-10.1421"
   y1="10.0996"
   x2="121.178"
   y2="10.0996"
   id="XMLID_4_"
   gradientUnits="userSpaceOnUse">
			<stop
   style="stop-color:#b3caff;stop-opacity:1"
   offset="0"
   id="stop1726" />
			<stop
   style="stop-color:#0053bd;stop-opacity:1"
   offset="1"
   id="stop1728" />
		</linearGradient>
		
		<radialGradient
   cx="66.355499"
   cy="103.35"
   r="57.591801"
   fx="66.355499"
   fy="103.35"
   id="XMLID_5_"
   gradientUnits="userSpaceOnUse">
			<stop
   style="stop-color:black;stop-opacity:1"
   offset="0"
   id="stop1733" />
			<stop
   style="stop-color:black;stop-opacity:1"
   offset="1"
   id="stop1735" />
		</radialGradient>
		
		
		
		
	</defs>
	<path
   d="M 90.83,100.896 C 90.83,103.474 74.861,105.563 55.163,105.563 C 35.465,105.563 19.496,103.474 19.496,100.896 C 19.496,98.319 35.464,96.23 55.163,96.23 C 74.861,96.229 90.83,98.318 90.83,100.896 z "
   style="opacity:0.1;fill:url(#XMLID_5_)"
   id="path1737" /><g
   id="g1764"
   transform="matrix(1.403538,0,0,1.403538,-19.50531,-26.43182)">
			<radialGradient
   cx="54.263199"
   cy="107.916"
   r="83.695702"
   fx="54.263199"
   fy="107.916"
   id="XMLID_9_"
   gradientUnits="userSpaceOnUse">
				<stop
   style="stop-color:#d4e8ff;stop-opacity:1"
   offset="0"
   id="stop1767" />
				<stop
   style="stop-color:#cae4ff;stop-opacity:1"
   offset="0.0861"
   id="stop1769" />
				<stop
   style="stop-color:#b2dbff;stop-opacity:1"
   offset="0.3389"
   id="stop1771" />
				<stop
   style="stop-color:#a9d7ff;stop-opacity:1"
   offset="0.49439999"
   id="stop1773" />
				<stop
   style="stop-color:#1260d9;stop-opacity:1"
   offset="1"
   id="stop1775" />
				<a:midPointStop
   offset="0"
   style="stop-color:#D4E8FF" />
				<a:midPointStop
   offset="0.4"
   style="stop-color:#D4E8FF" />
				<a:midPointStop
   offset="0.4944"
   style="stop-color:#A9D7FF" />
				<a:midPointStop
   offset="0.5"
   style="stop-color:#A9D7FF" />
				<a:midPointStop
   offset="1"
   style="stop-color:#1260D9" />
			</radialGradient>
			<path
   d="M 54.981,103.968 C 77.049,103.968 94.946,85.989 94.946,63.93 C 94.946,42.015 77.05,24.034 54.981,24.034 C 33.07,24.034 15.018,42.015 15.018,63.93 C 15.019,85.988 33.07,103.968 54.981,103.968 z "
   style="fill:url(#XMLID_9_);fill-rule:evenodd"
   id="path1777" />
			<g
   id="g1779">
				<radialGradient
   cx="54.2939"
   cy="107.437"
   r="80.205002"
   fx="54.2939"
   fy="107.437"
   id="XMLID_10_"
   gradientUnits="userSpaceOnUse"
   gradientTransform="matrix(1,0,0,0.9479,0,4.2221)">
					<stop
   style="stop-color:white;stop-opacity:1"
   offset="0"
   id="stop1782" />
					<stop
   style="stop-color:#e6f9ff;stop-opacity:1"
   offset="0.1176"
   id="stop1784" />
					<stop
   style="stop-color:#cef2ff;stop-opacity:1"
   offset="0.2604"
   id="stop1786" />
					<stop
   style="stop-color:#c5f0ff;stop-opacity:1"
   offset="0.34830001"
   id="stop1788" />
					<stop
   style="stop-color:#bbe9fd;stop-opacity:1"
   offset="0.42699999"
   id="stop1790" />
					<stop
   style="stop-color:#1d74d9;stop-opacity:1"
   offset="1"
   id="stop1792" />
					<a:midPointStop
   offset="0"
   style="stop-color:#FFFFFF" />
					<a:midPointStop
   offset="0.4"
   style="stop-color:#FFFFFF" />
					<a:midPointStop
   offset="0.3483"
   style="stop-color:#C5F0FF" />
					<a:midPointStop
   offset="0.5"
   style="stop-color:#C5F0FF" />
					<a:midPointStop
   offset="0.427"
   style="stop-color:#BBE9FD" />
					<a:midPointStop
   offset="0.5"
   style="stop-color:#BBE9FD" />
					<a:midPointStop
   offset="1"
   style="stop-color:#1D74D9" />
				</radialGradient>
				<path
   d="M 54.981,102.28 C 76.116,102.28 93.259,85.06 93.259,63.933 C 93.259,42.942 76.115,25.719 54.981,25.719 C 33.996,25.719 16.706,42.943 16.706,63.933 C 16.706,85.061 33.997,102.28 54.981,102.28 z "
   style="fill:url(#XMLID_10_);fill-rule:evenodd"
   id="path1794" />
			</g>
			<radialGradient
   cx="57.557598"
   cy="97.225601"
   r="47.5662"
   fx="57.557598"
   fy="97.225601"
   id="XMLID_11_"
   gradientUnits="userSpaceOnUse">
				<stop
   style="stop-color:#53a4ff;stop-opacity:1"
   offset="0.1742"
   id="stop1797" />
				<stop
   style="stop-color:#4b99f6;stop-opacity:1"
   offset="0.2463"
   id="stop1799" />
				<stop
   style="stop-color:#1550bb;stop-opacity:1"
   offset="0.76130003"
   id="stop1801" />
				<stop
   style="stop-color:#0033a4;stop-opacity:1"
   offset="1"
   id="stop1803" />
				<a:midPointStop
   offset="0.1742"
   style="stop-color:#53A4FF" />
				<a:midPointStop
   offset="0.4677"
   style="stop-color:#53A4FF" />
				<a:midPointStop
   offset="1"
   style="stop-color:#0033A4" />
			</radialGradient>
			<path
   d="M 36.522,64.094 C 36.198,63.79 36.414,62.458 36.414,62.458 C 36.414,62.458 31.591,59.901 26.338,58.364 C 25.69,58.174 26.017,56.831 26.659,56.318 L 26.445,54.882 C 26.338,54.167 27.517,50.688 28.694,50.382 C 29.874,50.075 28.588,52.429 28.588,52.429 L 27.41,53.146 C 27.41,53.146 28.803,54.782 29.125,54.782 C 29.446,54.782 29.982,53.962 29.982,53.962 L 28.482,52.942 L 29.874,52.326 L 29.961,51.787 L 30.197,51.712 L 32.503,48.189 C 34.096,47.53 36.056,46.715 36.305,46.596 C 36.734,46.392 39.735,44.651 40.271,44.243 C 40.807,43.833 41.985,43.935 42.414,43.935 C 42.842,43.935 43.485,43.73 43.594,42.604 C 43.701,41.479 44.13,41.272 44.452,41.581 C 44.772,41.886 44.128,42.398 44.88,42.604 C 45.63,42.808 46.271,43.321 46.807,42.808 C 47.201,42.434 46.676,42.008 46.323,41.683 L 52.274,41.683 L 52.919,39.84 L 51.525,39.635 L 46.378,39.124 L 46.378,38.51 L 45.967,38.581 C 46.526,35.493 49.836,36.002 47.345,34.214 C 47.192,34.105 45.013,37.678 44.458,37.608 C 43.454,37.476 42.153,37.464 41.877,37.793 C 41.513,38.23 42.699,36.296 43.722,35.71 C 42.091,36.197 36.933,37.976 31.481,43.833 C 26.269,49.432 24.19,56.975 24.19,57.238 C 24.19,57.75 25.263,57.956 25.372,58.57 C 25.477,59.182 23.335,61.23 23.335,62.253 C 23.335,62.727 22.83,69.033 24.62,74.229 C 26.711,80.292 31.175,85.358 31.694,85.69 L 32.766,85.178 C 32.766,85.178 30.301,80.777 30.196,80.367 C 30.087,79.958 32.981,74.023 34.376,74.228 C 35.768,74.428 35.447,74.842 36.304,74.331 C 37.161,73.82 37.696,69.621 38.66,69.214 C 39.625,68.803 40.698,68.293 40.592,67.269 C 40.486,66.243 36.841,64.402 36.522,64.094 z M 44.237,35.543 C 44.078,35.543 43.904,35.608 43.724,35.71 C 44.145,35.586 44.343,35.543 44.237,35.543 z M 54.636,37.589 L 54.74,36.053 L 53.133,36.155 L 53.349,37.59 L 54.636,37.59 L 54.636,37.589 z M 59.778,34.007 L 56.885,32.983 L 57.421,34.622 L 59.778,34.007 z M 48.954,37.792 C 49.277,37.792 55.708,33.497 55.063,33.393 C 54.42,33.291 54.313,33.393 52.597,33.188 C 50.883,32.982 49.06,35.643 48.631,36.053 C 48.204,36.465 48.348,37.792 48.954,37.792 z M 66.43,75.95 C 66.43,75.95 65.703,76.147 66.533,76.444 C 67.363,76.738 70.683,71.611 70.683,71.611 L 67.882,73.385 L 66.43,75.95 z M 86.452,60.268 L 85.91,59.211 C 85.267,55.563 83.799,50.888 80.642,46.064 C 75.897,38.809 62.694,34.625 62.694,34.625 L 61.967,35.51 L 61.553,34.822 L 60.516,34.426 L 60.516,35.312 L 61.448,36.104 L 60.828,36.399 L 58.439,36.594 L 53.045,39.555 L 53.564,41.921 L 52.941,42.122 L 52.631,42.611 L 54.394,45.275 L 54.497,46.164 L 53.045,46.458 L 53.045,48.233 L 52.217,48.428 L 52.319,49.81 L 45.265,54.744 L 45.472,57.505 C 45.991,58.193 50.038,62.339 50.038,62.339 C 50.038,62.339 54.704,62.533 55.742,61.943 C 56.78,61.35 56.053,62.532 56.366,62.828 C 56.678,63.126 56.781,65.197 57.091,65.394 C 57.402,65.591 57.091,66.774 57.507,67.17 C 57.923,67.564 57.923,72.299 57.923,72.299 C 57.923,72.299 60.413,76.539 60.413,77.625 C 60.413,78.709 60.309,78.611 62.278,78.513 C 64.252,78.414 64.663,77.625 65.079,77.329 C 65.495,77.031 65.495,76.342 65.912,75.749 C 66.327,75.16 67.05,72.889 67.984,72.103 C 68.919,71.311 71.408,70.718 71.614,69.34 C 71.821,67.956 72.757,66.87 72.757,66.87 L 77.242,62.087 L 77.115,62.731 L 77.011,65.196 L 78.358,64.703 L 78.256,62.039 L 77.772,61.52 L 77.84,61.449 C 77.84,61.449 77.528,60.858 77.114,60.858 C 76.7,60.858 74.21,61.449 73.795,61.349 C 73.378,61.253 71.613,56.516 71.303,56.32 C 70.992,56.123 69.023,52.867 69.023,52.867 C 69.023,52.867 73.586,58.391 74.314,60.56 C 74.737,61.823 76.318,60.646 77.607,59.329 L 77.946,60.167 L 78.774,59.969 L 78.67,58.982 L 79.606,58.982 L 79.606,60.461 L 79.295,61.253 L 79.188,62.532 L 80.018,63.324 L 80.436,62.633 L 81.782,61.35 L 83.339,60.562 L 83.756,61.35 L 83.963,62.437 L 83.546,63.619 L 82.717,64.31 L 82.3,66.089 L 82.3,66.973 L 81.369,66.384 L 81.265,64.51 L 79.918,64.608 L 79.294,66.284 L 80.227,67.666 L 82.404,67.96 L 84.17,66.284 L 84.376,63.032 L 85.162,61.989 C 85.672,63.314 86.035,64.701 86.035,65.992 C 86.035,67.409 86.679,65.012 86.132,60.692 L 86.452,60.268 z M 60.309,50.208 L 54.706,50.009 L 57.092,48.038 L 58.338,48.038 L 60.309,49.416 L 60.309,50.208 z M 67.155,49.516 L 67.155,50.404 L 64.77,50.404 L 64.977,50.996 L 63.525,51.194 L 63.42,51.687 L 62.384,51.492 L 60.517,51.096 L 60.829,50.603 L 61.139,50.009 L 62.176,48.924 L 62.592,49.714 L 64.148,49.615 L 64.979,48.728 L 68.192,49.317 L 67.155,49.516 z M 67.362,48.234 L 66.117,48.429 L 65.912,47.543 L 67.466,47.348 L 67.674,46.458 L 68.817,47.642 L 67.362,48.234 z M 78.463,68.653 L 79.295,67.566 L 78.463,67.269 L 77.841,68.058 L 77.115,69.142 L 77.735,69.44 L 78.463,68.653 z M 73.379,78.907 L 72.652,79.501 L 72.756,80.98 L 73.691,80.98 L 73.691,79.697 L 74.521,78.614 L 74.521,76.344 L 74.001,76.242 L 73.379,78.907 z M 82.094,72.202 L 81.886,70.626 L 80.54,70.626 L 80.436,71.805 L 79.188,71.612 L 78.88,70.328 L 78.257,69.933 L 77.529,70.823 L 76.805,70.627 L 76.596,71.315 L 77.426,71.513 L 77.426,77.925 L 80.364,78.637 C 80.296,78.756 80.245,78.855 80.227,78.908 C 80.017,79.601 81.057,79.897 81.781,79.601 C 82.051,79.49 82.906,78.621 83.441,77.332 C 84.188,75.54 84.842,73.174 84.974,72.335 L 85.308,71.611 L 83.233,72.4 L 82.094,72.202 z "
   style="opacity:0.1;fill:url(#XMLID_11_)"
   id="path1805" />
			<linearGradient
   x1="54.7808"
   y1="10.5996"
   x2="54.7808"
   y2="100.666"
   id="XMLID_12_"
   gradientUnits="userSpaceOnUse">
				<stop
   style="stop-color:#2b9fd7;stop-opacity:1"
   offset="0.0899"
   id="stop1808" />
				<stop
   style="stop-color:#1175d4;stop-opacity:1"
   offset="0.35080001"
   id="stop1810" />
				<stop
   style="stop-color:#0058d2;stop-opacity:1"
   offset="0.55620003"
   id="stop1812" />
				<stop
   style="stop-color:#0032bb;stop-opacity:1"
   offset="1"
   id="stop1814" />
			</linearGradient>
			<path
   d="M 42.002,29.225 C 41.809,29.225 41.598,29.303 41.382,29.426 C 41.892,29.276 42.13,29.225 42.002,29.225 z M 54.583,31.679 L 54.71,29.837 L 52.767,29.959 L 53.026,31.679 L 54.583,31.679 z M 32.665,63.488 C 32.274,63.121 32.537,61.522 32.537,61.522 C 32.537,61.522 26.701,58.455 20.345,56.611 C 19.56,56.382 19.957,54.77 20.733,54.157 L 20.475,52.433 C 20.346,51.576 21.772,47.4 23.199,47.034 C 24.626,46.663 23.069,49.488 23.069,49.488 L 21.641,50.347 C 21.641,50.347 23.328,52.312 23.719,52.312 C 24.107,52.312 24.756,51.33 24.756,51.33 L 22.94,50.106 L 24.626,49.365 L 24.731,48.718 L 25.014,48.629 L 27.806,44.4 C 29.733,43.609 32.106,42.631 32.406,42.488 C 32.925,42.243 36.556,40.157 37.205,39.666 C 37.855,39.171 39.278,39.297 39.797,39.297 C 40.317,39.297 41.095,39.05 41.225,37.696 C 41.355,36.347 41.874,36.1 42.263,36.469 C 42.652,36.835 41.873,37.45 42.783,37.696 C 43.692,37.946 44.467,38.558 45.117,37.946 C 45.592,37.494 44.956,36.982 44.528,36.593 L 51.729,36.593 L 52.509,34.381 L 50.823,34.136 L 44.596,33.524 L 44.596,32.785 L 44.099,32.869 C 44.774,29.164 48.778,29.777 45.764,27.63 C 45.58,27.5 42.944,31.787 42.272,31.703 C 41.057,31.542 39.484,31.53 39.15,31.925 C 38.709,32.448 40.145,30.13 41.383,29.426 C 39.408,30.01 33.168,32.143 26.57,39.171 C 20.262,45.892 17.75,54.943 17.75,55.261 C 17.75,55.872 19.047,56.12 19.178,56.858 C 19.305,57.592 16.714,60.048 16.714,61.277 C 16.714,61.843 16.102,69.414 18.269,75.647 C 20.8,82.925 26.201,89.002 26.829,89.402 L 28.124,88.786 C 28.124,88.786 25.143,83.507 25.013,83.015 C 24.883,82.526 28.386,75.401 30.071,75.647 C 31.756,75.89 31.366,76.385 32.405,75.769 C 33.444,75.156 34.09,70.118 35.257,69.63 C 36.424,69.136 37.723,68.523 37.594,67.296 C 37.463,66.067 33.056,63.859 32.665,63.488 z M 60.809,27.382 L 57.467,26.716 L 57.956,28.119 L 60.809,27.382 z M 47.708,31.924 C 48.098,31.924 55.88,26.77 55.1,26.643 C 54.324,26.522 54.128,27.034 52.052,26.79 C 49.977,26.543 47.837,29.347 47.319,29.837 C 46.802,30.33 46.976,31.924 47.708,31.924 z M 83.414,68.957 L 84.421,67.656 L 83.414,67.298 L 82.663,68.247 L 81.785,69.546 L 82.536,69.903 L 83.414,68.957 z M 87.809,73.221 L 87.556,71.325 L 85.926,71.325 L 85.8,72.742 L 84.291,72.509 L 83.919,70.97 L 83.165,70.498 L 82.285,71.562 L 81.407,71.325 L 81.155,72.151 L 82.161,72.389 L 82.161,80.083 L 85.716,80.937 C 85.633,81.081 85.571,81.199 85.55,81.262 C 85.297,82.094 86.555,82.449 87.432,82.094 C 87.758,81.961 88.792,80.918 89.44,79.372 C 90.345,77.222 91.135,74.382 91.294,73.378 L 91.699,72.507 L 89.19,73.455 L 87.809,73.221 z M 92.6,58.666 L 92.427,57.627 C 91.649,53.249 89.856,47.651 86.054,41.852 C 79.431,31.754 64.942,27.599 64.942,27.599 L 63.458,29.184 L 62.957,28.359 L 61.7,27.883 L 61.7,28.947 L 62.828,29.898 L 62.077,30.253 L 59.189,30.488 L 52.662,34.04 L 53.288,36.879 L 52.536,37.119 L 52.16,37.707 L 54.294,40.904 L 54.419,41.97 L 52.662,42.324 L 52.662,44.454 L 51.659,44.688 L 51.785,46.346 L 43.249,52.268 L 43.499,55.58 C 44.127,56.408 49.024,61.38 49.024,61.38 C 49.024,61.38 54.67,61.614 55.927,60.906 C 57.18,60.196 56.303,61.614 56.68,61.971 C 57.055,62.326 57.18,64.809 57.557,65.05 C 57.934,65.285 57.557,66.704 58.059,67.18 C 58.561,67.655 58.561,73.336 58.561,73.336 C 58.561,73.336 61.573,78.421 61.573,79.729 C 61.573,81.029 61.449,80.91 63.835,80.792 C 66.222,80.673 66.721,79.729 67.223,79.372 C 67.728,79.016 67.728,78.188 68.229,77.477 C 68.732,76.766 69.608,74.043 70.739,73.099 C 71.87,72.149 74.881,71.437 75.132,69.782 C 75.385,68.126 76.515,66.823 76.515,66.823 L 81.942,61.08 L 81.788,61.853 L 81.664,64.81 L 83.294,64.22 L 83.168,61.023 L 82.582,60.404 L 82.666,60.313 C 82.666,60.313 82.288,59.604 81.788,59.604 C 81.286,59.604 78.271,60.313 77.771,60.196 C 77.267,60.077 75.132,54.396 74.755,54.16 C 74.379,53.923 71.995,50.017 71.995,50.017 C 71.995,50.017 77.516,56.646 78.395,59.248 C 78.905,60.764 80.821,59.352 82.381,57.77 L 82.79,58.774 L 83.794,58.535 L 83.669,57.354 L 84.799,57.354 L 84.799,59.13 L 84.422,60.075 L 84.292,61.613 L 85.298,62.562 L 85.801,61.736 L 87.433,60.194 L 89.318,59.247 L 89.819,60.194 L 90.07,61.498 L 89.567,62.917 L 88.563,63.746 L 88.06,65.88 L 88.06,66.943 L 86.931,66.234 L 86.805,63.986 L 85.175,64.105 L 84.421,66.114 L 85.55,67.775 L 88.184,68.128 L 90.321,66.114 L 90.57,62.213 L 91.519,60.958 C 92.137,62.546 92.578,64.215 92.578,65.762 C 92.578,67.461 93.358,64.586 92.695,59.403 L 92.6,58.666 z M 61.448,46.823 L 54.672,46.584 L 57.556,44.218 L 59.061,44.218 L 61.448,45.873 L 61.448,46.823 z M 69.733,45.995 L 69.733,47.06 L 66.844,47.06 L 67.098,47.769 L 65.34,48.01 L 65.214,48.6 L 63.957,48.363 L 61.7,47.888 L 62.077,47.297 L 62.452,46.584 L 63.707,45.284 L 64.21,46.231 L 66.094,46.113 L 67.099,45.046 L 70.987,45.756 L 69.733,45.995 z M 69.983,44.455 L 68.478,44.689 L 68.227,43.624 L 70.106,43.389 L 70.36,42.324 L 71.743,43.746 L 69.983,44.455 z M 77.265,81.264 L 76.385,81.976 L 76.513,83.752 L 77.641,83.752 L 77.641,82.216 L 78.647,80.911 L 78.647,78.19 L 78.019,78.068 L 77.265,81.264 z M 68.855,77.718 C 68.855,77.718 67.978,77.949 68.979,78.307 C 69.983,78.664 74,72.509 74,72.509 L 70.612,74.639 L 68.855,77.718 z M 62.023,100.403 L 61.27,99.686 L 59.764,99.448 L 59.515,100.166 L 57.509,99.926 L 57.383,98.974 L 55.877,98.974 L 54.245,99.926 L 51.36,99.926 L 51.11,99.213 L 46.467,98.734 L 45.714,99.449 L 43.834,98.974 L 43.583,97.303 L 42.705,97.182 L 41.702,98.974 L 38.316,98.854 C 38.92,99.141 43.979,102.16 51.736,102.791 C 62.024,103.621 66.916,101.12 66.916,101.12 L 66.54,100.761 L 62.023,100.403 z "
   style="fill:url(#XMLID_12_)"
   id="path1816" />
			<path
   d="M 22.224,50.149 C 22.219,49.971 22.204,49.795 22.204,49.617 C 22.204,49.055 22.243,48.499 22.297,47.949 C 21.294,49.325 20.506,51.876 20.605,52.527 L 20.863,54.265 C 20.086,54.882 19.692,56.509 20.475,56.74 C 21.815,57.131 23.13,57.58 24.374,58.042 C 23.195,55.83 22.462,53.456 22.262,50.982 C 21.978,50.668 21.77,50.424 21.77,50.424 L 22.224,50.149 z "
   style="fill:none"
   id="path1818" />
			<path
   d=""
   id="path1820" />
			<path
   d="M 54.981,92.69 C 37.588,92.69 23.125,82.311 21.8,66.073 C 21.734,66.871 21.69,67.675 21.69,68.486 C 21.69,85.854 36.73,100.012 54.982,100.012 C 73.365,100.012 88.275,85.854 88.275,68.486 C 88.275,67.674 88.234,66.871 88.167,66.073 C 86.852,82.312 72.498,92.69 54.981,92.69 z "
   style="opacity:0.5;fill:white"
   id="path1822" />
			<path
   d="M 75.183,84.255 C 75.183,75.564 66.274,68.521 55.284,68.521 C 44.295,68.521 35.385,75.564 35.385,84.255 C 35.385,92.943 44.296,99.989 55.284,99.989 C 66.273,99.989 75.183,92.943 75.183,84.255 z "
   style="opacity:0.2;fill:white"
   id="path1824" />
			<linearGradient
   x1="55.445801"
   y1="27.8354"
   x2="55.445801"
   y2="68.642197"
   id="XMLID_13_"
   gradientUnits="userSpaceOnUse">
				<stop
   style="stop-color:white;stop-opacity:1"
   offset="0.109195"
   id="stop1827" />
				<stop
   style="stop-color:white;stop-opacity:0"
   offset="1"
   id="stop1829" />
			</linearGradient>
			<path
   d="M 85.786,47.536 C 85.786,59.162 72.205,68.587 55.447,68.587 C 38.69,68.587 25.107,59.163 25.107,47.536 C 25.107,35.909 38.69,26.484 55.447,26.484 C 72.205,26.484 85.786,35.91 85.786,47.536 z "
   style="fill:url(#XMLID_13_)"
   id="path1831" />
		</g>
</svg>