<?xml version="1.0" encoding="UTF-8" standalone="no"?>
<!-- Created with Inkscape (http://www.inkscape.org/) -->
<svg
   xmlns:a="http://ns.adobe.com/AdobeSVGViewerExtensions/3.0/"
   xmlns:dc="http://purl.org/dc/elements/1.1/"
   xmlns:cc="http://web.resource.org/cc/"
   xmlns:rdf="http://www.w3.org/1999/02/22-rdf-syntax-ns#"
   xmlns:svg="http://www.w3.org/2000/svg"
   xmlns="http://www.w3.org/2000/svg"
   xmlns:xlink="http://www.w3.org/1999/xlink"
   xmlns:sodipodi="http://sodipodi.sourceforge.net/DTD/sodipodi-0.dtd"
   xmlns:inkscape="http://www.inkscape.org/namespaces/inkscape"
   version="1.0"
   width="128"
   height="128"
   viewBox="0 0 128 128"
   id="svg1848"
   xml:space="preserve"
   sodipodi:version="0.32"
   inkscape:version="0.44.1"
   sodipodi:docname="image.svg"
   sodipodi:docbase="/home/qt-devel/projects/Memory/svg"><metadata
   id="metadata1212"><rdf:RDF><cc:Work
       rdf:about=""><dc:format>image/svg+xml</dc:format><dc:type
         rdf:resource="http://purl.org/dc/dcmitype/StillImage" /></cc:Work></rdf:RDF></metadata><sodipodi:namedview
   inkscape:window-height="583"
   inkscape:window-width="988"
   inkscape:pageshadow="2"
   inkscape:pageopacity="0.0"
   guidetolerance="10.0"
   gridtolerance="10.0"
   objecttolerance="10.0"
   borderopacity="1.0"
   bordercolor="#666666"
   pagecolor="#ffffff"
   id="base"
   inkscape:zoom="2.953125"
   inkscape:cx="64"
   inkscape:cy="64"
   inkscape:window-x="284"
   inkscape:window-y="141"
   inkscape:current-layer="svg1848" /><defs
   id="defs2142"><linearGradient
   x1="99.546898"
   y1="17.8701"
   x2="99.546898"
   y2="14.2501"
   id="linearGradient11824"
   xlink:href="#XMLID_11_"
   gradientUnits="userSpaceOnUse"
   gradientTransform="translate(-8.5,25.9482)" /><linearGradient
   x1="99.546898"
   y1="17.8701"
   x2="99.546898"
   y2="14.2501"
   id="linearGradient11826"
   xlink:href="#XMLID_11_"
   gradientUnits="userSpaceOnUse"
   gradientTransform="translate(-8.5,25.9482)" /><linearGradient
   x1="99.546898"
   y1="17.8701"
   x2="99.546898"
   y2="14.2501"
   id="linearGradient11828"
   xlink:href="#XMLID_11_"
   gradientUnits="userSpaceOnUse"
   gradientTransform="translate(-8.5,25.9482)" />
		
		
	<linearGradient
   x1="99.546898"
   y1="17.8701"
   x2="99.546898"
   y2="14.2501"
   id="linearGradient11992"
   xlink:href="#XMLID_11_"
   gradientUnits="userSpaceOnUse"
   gradientTransform="translate(-8.5,25.9482)" /><linearGradient
   x1="99.546898"
   y1="17.8701"
   x2="99.546898"
   y2="14.2501"
   id="linearGradient11994"
   xlink:href="#XMLID_11_"
   gradientUnits="userSpaceOnUse"
   gradientTransform="translate(-8.5,25.9482)" /><linearGradient
   x1="99.546898"
   y1="17.8701"
   x2="99.546898"
   y2="14.2501"
   id="linearGradient11996"
   xlink:href="#XMLID_11_"
   gradientUnits="userSpaceOnUse"
   gradientTransform="translate(-8.5,25.9482)" />
			
			<linearGradient
   x1="63.920399"
   y1="154.5645"
   x2="63.920399"
   y2="-100.9347"
   id="XMLID_1_"
   gradientUnits="userSpaceOnUse">
				<stop
   style="stop-color:white;stop-opacity:1"
   offset="0"
   id="stop1856" />
				<stop
   style="stop-color:#f6f6f6;stop-opacity:1"
   offset="0.2457"
   id="stop1858" />
				<stop
   style="stop-color:#dfdfdf;stop-opacity:1"
   offset="0.63739997"
   id="stop1860" />
				<stop
   style="stop-color:#c4c4c4;stop-opacity:1"
   offset="1"
   id="stop1862" />
				<a:midPointStop
   style="stop-color:#FFFFFF"
   offset="0" />
				<a:midPointStop
   style="stop-color:#FFFFFF"
   offset="0.6045" />
				<a:midPointStop
   style="stop-color:#C4C4C4"
   offset="1" />
			</linearGradient>
			
			<linearGradient
   x1="-26.333"
   y1="-26.333"
   x2="56.166199"
   y2="56.166199"
   id="XMLID_2_"
   gradientUnits="userSpaceOnUse">
				<stop
   style="stop-color:#b3b3b3;stop-opacity:1"
   offset="0"
   id="stop1867" />
				<stop
   style="stop-color:#828282;stop-opacity:1"
   offset="1"
   id="stop1869" />
				<a:midPointStop
   style="stop-color:#B3B3B3"
   offset="0" />
				<a:midPointStop
   style="stop-color:#B3B3B3"
   offset="0.5" />
				<a:midPointStop
   style="stop-color:#828282"
   offset="1" />
			</linearGradient>
			
			<linearGradient
   x1="43.0229"
   y1="25.4214"
   x2="204.00729"
   y2="111.0652"
   id="XMLID_3_"
   gradientUnits="userSpaceOnUse">
				<stop
   style="stop-color:white;stop-opacity:1"
   offset="0"
   id="stop1874" />
				<stop
   style="stop-color:#dadada;stop-opacity:1"
   offset="0.8603"
   id="stop1876" />
				<stop
   style="stop-color:#d4d4d4;stop-opacity:1"
   offset="1"
   id="stop1878" />
				<a:midPointStop
   style="stop-color:#FFFFFF"
   offset="0" />
				<a:midPointStop
   style="stop-color:#FFFFFF"
   offset="0.5254" />
				<a:midPointStop
   style="stop-color:#D4D4D4"
   offset="1" />
			</linearGradient>
			
			<linearGradient
   x1="-3.8062"
   y1="10.6514"
   x2="127.5141"
   y2="10.6514"
   id="XMLID_4_"
   gradientUnits="userSpaceOnUse">
				<stop
   style="stop-color:#b3caff;stop-opacity:1"
   offset="0"
   id="stop1883" />
				<stop
   style="stop-color:#0053bd;stop-opacity:1"
   offset="1"
   id="stop1885" />
				<a:midPointStop
   style="stop-color:#B3CAFF"
   offset="0" />
				<a:midPointStop
   style="stop-color:#B3CAFF"
   offset="0.5" />
				<a:midPointStop
   style="stop-color:#0053BD"
   offset="1" />
			</linearGradient>
			
			
			
			
		</defs>
	<g
   id="g1901"
   transform="matrix(1.270724,0,0,1.270724,-15.49456,-19.51449)">
				<linearGradient
   x1="29.2075"
   y1="39.987301"
   x2="29.2075"
   y2="34.2253"
   id="XMLID_5_"
   gradientUnits="userSpaceOnUse">
					<stop
   style="stop-color:#9e9e9e;stop-opacity:1"
   offset="0"
   id="stop1904" />
					<stop
   style="stop-color:#616161;stop-opacity:1"
   offset="1"
   id="stop1906" />
					<a:midPointStop
   style="stop-color:#9E9E9E"
   offset="0" />
					<a:midPointStop
   style="stop-color:#9E9E9E"
   offset="0.5" />
					<a:midPointStop
   style="stop-color:#616161"
   offset="1" />
				</linearGradient>
				<path
   d="M 29.208,39.393 C 24.671,39.393 20.992,38.042 20.992,36.376 C 20.992,34.709 24.671,33.358 29.208,33.358 C 33.747,33.358 37.425,34.709 37.425,36.376 C 37.424,38.042 33.746,39.393 29.208,39.393 z "
   style="fill:url(#XMLID_5_)"
   id="path1908" />
				<linearGradient
   x1="37.1567"
   y1="37.7593"
   x2="109.5998"
   y2="117.507"
   id="XMLID_6_"
   gradientUnits="userSpaceOnUse">
					<stop
   style="stop-color:white;stop-opacity:1"
   offset="0.0337"
   id="stop1911" />
					<stop
   style="stop-color:#ababab;stop-opacity:1"
   offset="1"
   id="stop1913" />
					<a:midPointStop
   style="stop-color:#FFFFFF"
   offset="0.0337" />
					<a:midPointStop
   style="stop-color:#FFFFFF"
   offset="0.5" />
					<a:midPointStop
   style="stop-color:#ABABAB"
   offset="1" />
				</linearGradient>
				<path
   d="M 107.266,33.38 L 66.247,33.38 C 64.052,33.38 62.219,34.836 61.601,36.827 L 17.851,36.827 C 15.152,36.827 12.964,39.016 12.964,41.715 L 12.964,93.177 C 12.964,95.876 15.152,98.064 17.851,98.064 L 107.266,98.064 C 109.966,98.064 112.153,95.876 112.153,93.177 L 112.153,38.267 C 112.152,35.569 109.966,33.38 107.266,33.38 z "
   style="fill:url(#XMLID_6_)"
   id="path1915" />
				<g
   id="g1917">
					<linearGradient
   x1="106.1152"
   y1="45.839401"
   x2="95.008003"
   y2="35.6796"
   id="XMLID_7_"
   gradientUnits="userSpaceOnUse">
						<stop
   style="stop-color:white;stop-opacity:1"
   offset="0.0337"
   id="stop1920" />
						<stop
   style="stop-color:#ababab;stop-opacity:1"
   offset="1"
   id="stop1922" />
						<a:midPointStop
   style="stop-color:#FFFFFF"
   offset="0.0337" />
						<a:midPointStop
   style="stop-color:#FFFFFF"
   offset="0.5" />
						<a:midPointStop
   style="stop-color:#ABABAB"
   offset="1" />
					</linearGradient>
					<path
   d="M 107.001,44.928 C 107.001,45.335 106.697,45.665 106.321,45.665 L 96.8,45.665 C 96.424,45.665 96.119,45.335 96.119,44.928 L 96.119,38.42 C 96.119,38.013 96.424,37.683 96.8,37.683 L 106.321,37.683 C 106.697,37.683 107.001,38.013 107.001,38.42 L 107.001,44.928 z "
   style="fill:url(#XMLID_7_)"
   id="path1924" />
					
						<radialGradient
   cx="101.207"
   cy="113.6514"
   r="6.7013001"
   fx="101.207"
   fy="113.6514"
   id="XMLID_8_"
   gradientUnits="userSpaceOnUse"
   gradientTransform="matrix(1,0,0,1.0845,0,-76.0719)">
						<stop
   style="stop-color:#85caff;stop-opacity:1"
   offset="0"
   id="stop1927" />
						<stop
   style="stop-color:#003da9;stop-opacity:1"
   offset="1"
   id="stop1929" />
						<a:midPointStop
   style="stop-color:#85CAFF"
   offset="0" />
						<a:midPointStop
   style="stop-color:#85CAFF"
   offset="0.5" />
						<a:midPointStop
   style="stop-color:#003DA9"
   offset="1" />
					</radialGradient>
					<path
   d="M 106.592,44.682 C 106.592,45.059 106.311,45.364 105.964,45.364 L 97.159,45.364 C 96.812,45.364 96.529,45.059 96.529,44.682 L 96.529,38.665 C 96.529,38.288 96.812,37.983 97.159,37.983 L 105.964,37.983 C 106.311,37.983 106.592,38.288 106.592,38.665 L 106.592,44.682 z "
   style="fill:url(#XMLID_8_)"
   id="path1931" />
					<linearGradient
   x1="101.5605"
   y1="38.744598"
   x2="101.5605"
   y2="44.655102"
   id="XMLID_9_"
   gradientUnits="userSpaceOnUse">
						<stop
   style="stop-color:white;stop-opacity:1"
   offset="0"
   id="stop1934" />
						<stop
   style="stop-color:black;stop-opacity:1"
   offset="1"
   id="stop1936" />
						<a:midPointStop
   style="stop-color:#FFFFFF"
   offset="0" />
						<a:midPointStop
   style="stop-color:#FFFFFF"
   offset="0.5" />
						<a:midPointStop
   style="stop-color:#000000"
   offset="1" />
					</linearGradient>
					<path
   d="M 105.637,38.194 L 97.486,38.194 C 97.164,38.194 96.903,38.477 96.903,38.824 L 96.903,43.468 C 97.914,43.58 99.69,43.49 101.491,42.021 C 103.467,40.409 105.327,39.822 106.22,39.619 L 106.22,38.824 C 106.22,38.477 105.96,38.194 105.637,38.194 z "
   style="fill:url(#XMLID_9_)"
   id="path1938" />
				</g>
				<g
   id="g1940">
					<linearGradient
   x1="92.360397"
   y1="42.752399"
   x2="89.154602"
   y2="39.820099"
   id="XMLID_10_"
   gradientUnits="userSpaceOnUse">
						<stop
   style="stop-color:white;stop-opacity:1"
   offset="0.0337"
   id="stop1943" />
						<stop
   style="stop-color:#ababab;stop-opacity:1"
   offset="1"
   id="stop1945" />
						<a:midPointStop
   style="stop-color:#FFFFFF"
   offset="0.0337" />
						<a:midPointStop
   style="stop-color:#FFFFFF"
   offset="0.5" />
						<a:midPointStop
   style="stop-color:#ABABAB"
   offset="1" />
					</linearGradient>
					<path
   d="M 91.045,39.28 C 89.706,39.28 88.617,40.299 88.617,41.551 C 88.617,42.803 89.706,43.82 91.045,43.82 C 92.386,43.82 93.476,42.803 93.476,41.551 C 93.476,40.299 92.386,39.28 91.045,39.28 z "
   style="fill:url(#XMLID_10_)"
   id="path1947" />
					<g
   id="g1949">
						<g
   id="g1951">
							
								<linearGradient
   x1="99.546898"
   y1="17.8701"
   x2="99.546898"
   y2="14.2501"
   id="XMLID_11_"
   gradientUnits="userSpaceOnUse"
   gradientTransform="translate(-8.5,25.9482)">
								<stop
   style="stop-color:#9e9e9e;stop-opacity:1"
   offset="0"
   id="stop1954" />
								<stop
   style="stop-color:#616161;stop-opacity:1"
   offset="1"
   id="stop1956" />
								<a:midPointStop
   style="stop-color:#9E9E9E"
   offset="0" />
								<a:midPointStop
   style="stop-color:#9E9E9E"
   offset="0.5" />
								<a:midPointStop
   style="stop-color:#616161"
   offset="1" />
							</linearGradient>
							<path
   d="M 92.982,41.55 C 92.982,42.55 92.114,43.359 91.044,43.359 C 89.976,43.359 89.108,42.549 89.108,41.55 C 89.108,40.55 89.975,39.74 91.044,39.741 C 92.115,39.742 92.982,40.55 92.982,41.55 z "
   style="fill:url(#linearGradient11992)"
   id="path1958" />
							<path
   d="M 89.019,41.55 C 89.019,42.595 89.928,43.445 91.045,43.445 C 92.166,43.445 93.076,42.596 93.074,41.55 C 93.076,40.505 92.166,39.654 91.045,39.654 C 89.928,39.654 89.018,40.505 89.019,41.55 z M 89.202,41.55 C 89.202,40.6 90.028,39.826 91.045,39.826 C 92.064,39.826 92.89,40.6 92.89,41.549 C 92.89,42.499 92.064,43.272 91.045,43.272 C 90.028,43.272 89.202,42.5 89.202,41.55 z "
   style="fill:url(#linearGradient11994)"
   id="path1960" />
							<path
   d="M 91.055,41.601 C 91.73,41.135 92.362,40.977 92.64,40.927 C 92.373,40.364 91.769,39.971 91.068,39.971 C 90.117,39.971 89.347,40.69 89.347,41.577 C 89.347,41.717 89.365,41.851 89.4,41.982 C 89.68,42.03 90.361,42.079 91.055,41.601 z "
   style="fill:url(#linearGradient11996)"
   id="path1962" />
						</g>
						<g
   id="g1964">
							
								<linearGradient
   x1="871.84668"
   y1="-1614.1802"
   x2="871.84668"
   y2="-1616.3287"
   id="XMLID_14_"
   gradientUnits="userSpaceOnUse"
   gradientTransform="translate(-780.8008,1657.792)">
								<stop
   style="stop-color:white;stop-opacity:1"
   offset="0"
   id="stop1967" />
								<stop
   style="stop-color:#bdbdbd;stop-opacity:1"
   offset="1"
   id="stop1969" />
								<a:midPointStop
   style="stop-color:#FFFFFF"
   offset="0" />
								<a:midPointStop
   style="stop-color:#FFFFFF"
   offset="0.5" />
								<a:midPointStop
   style="stop-color:#BDBDBD"
   offset="1" />
							</linearGradient>
							<path
   d="M 92.982,41.55 C 92.982,42.55 92.114,43.359 91.044,43.359 C 89.976,43.359 89.108,42.549 89.108,41.55 C 89.108,40.55 89.975,39.74 91.044,39.741 C 92.115,39.742 92.982,40.55 92.982,41.55 z "
   style="fill:url(#XMLID_14_)"
   id="path1971" />
							<linearGradient
   x1="91.046898"
   y1="43.818401"
   x2="91.046898"
   y2="40.198299"
   id="XMLID_15_"
   gradientUnits="userSpaceOnUse">
								<stop
   style="stop-color:#9e9e9e;stop-opacity:1"
   offset="0"
   id="stop1974" />
								<stop
   style="stop-color:#616161;stop-opacity:1"
   offset="1"
   id="stop1976" />
								<a:midPointStop
   style="stop-color:#9E9E9E"
   offset="0" />
								<a:midPointStop
   style="stop-color:#9E9E9E"
   offset="0.5" />
								<a:midPointStop
   style="stop-color:#616161"
   offset="1" />
							</linearGradient>
							<path
   d="M 89.019,41.55 C 89.019,42.595 89.928,43.445 91.045,43.445 C 92.166,43.445 93.076,42.596 93.074,41.55 C 93.076,40.505 92.166,39.654 91.045,39.654 C 89.928,39.654 89.018,40.505 89.019,41.55 z M 89.202,41.55 C 89.202,40.6 90.028,39.826 91.045,39.826 C 92.064,39.826 92.89,40.6 92.89,41.549 C 92.89,42.499 92.064,43.272 91.045,43.272 C 90.028,43.272 89.202,42.5 89.202,41.55 z "
   style="fill:url(#XMLID_15_)"
   id="path1978" />
							
								<linearGradient
   x1="871.79388"
   y1="-1617.4233"
   x2="871.79388"
   y2="-1615.6201"
   id="XMLID_16_"
   gradientUnits="userSpaceOnUse"
   gradientTransform="translate(-780.8008,1657.792)">
								<stop
   style="stop-color:white;stop-opacity:1"
   offset="0"
   id="stop1981" />
								<stop
   style="stop-color:#cfcfcf;stop-opacity:1"
   offset="1"
   id="stop1983" />
								<a:midPointStop
   style="stop-color:#FFFFFF"
   offset="0" />
								<a:midPointStop
   style="stop-color:#FFFFFF"
   offset="0.5" />
								<a:midPointStop
   style="stop-color:#CFCFCF"
   offset="1" />
							</linearGradient>
							<path
   d="M 91.055,41.601 C 91.73,41.135 92.362,40.977 92.64,40.927 C 92.373,40.364 91.769,39.971 91.068,39.971 C 90.117,39.971 89.347,40.69 89.347,41.577 C 89.347,41.717 89.365,41.851 89.4,41.982 C 89.68,42.03 90.361,42.079 91.055,41.601 z "
   style="fill:url(#XMLID_16_)"
   id="path1985" />
						</g>
					</g>
				</g>
				<linearGradient
   x1="14.0947"
   y1="65.308601"
   x2="88.170403"
   y2="65.687302"
   id="XMLID_17_"
   gradientUnits="userSpaceOnUse">
					<stop
   style="stop-color:white;stop-opacity:1"
   offset="0.0337"
   id="stop1988" />
					<stop
   style="stop-color:#ababab;stop-opacity:1"
   offset="1"
   id="stop1990" />
					<a:midPointStop
   style="stop-color:#FFFFFF"
   offset="0.0337" />
					<a:midPointStop
   style="stop-color:#FFFFFF"
   offset="0.5" />
					<a:midPointStop
   style="stop-color:#ABABAB"
   offset="1" />
				</linearGradient>
				<path
   d="M 13.004,91.251 L 75.058,91.251 L 75.058,39.671 L 13.004,39.671 L 13.004,91.251 z "
   style="fill:url(#XMLID_17_)"
   id="path1992" />
				<linearGradient
   x1="21.605"
   y1="36.7822"
   x2="69.159203"
   y2="84.336998"
   id="XMLID_18_"
   gradientUnits="userSpaceOnUse">
					<stop
   style="stop-color:#9e9e9e;stop-opacity:1"
   offset="0"
   id="stop1995" />
					<stop
   style="stop-color:#616161;stop-opacity:1"
   offset="1"
   id="stop1997" />
					<a:midPointStop
   style="stop-color:#9E9E9E"
   offset="0" />
					<a:midPointStop
   style="stop-color:#9E9E9E"
   offset="0.5" />
					<a:midPointStop
   style="stop-color:#616161"
   offset="1" />
				</linearGradient>
				<path
   d="M 73.959,65.688 L 73.959,52.253 L 13.365,52.253 L 13.365,89.663 L 111.632,89.663 L 111.632,65.688 L 73.959,65.688 z "
   style="opacity:0.7;fill:url(#XMLID_18_)"
   id="path1999" />
				<path
   d="M 39.078,52.133 L 38.31,52.133 L 38.31,89.612 L 39.078,89.612 L 39.078,52.133 z "
   style="opacity:0.5;fill:white"
   id="path2001" />
				<linearGradient
   x1="27.2358"
   y1="60.292"
   x2="40.641399"
   y2="73.697701"
   id="XMLID_19_"
   gradientUnits="userSpaceOnUse">
					<stop
   style="stop-color:#9e9e9e;stop-opacity:1"
   offset="0"
   id="stop2004" />
					<stop
   style="stop-color:#616161;stop-opacity:1"
   offset="1"
   id="stop2006" />
					<a:midPointStop
   style="stop-color:#9E9E9E"
   offset="0" />
					<a:midPointStop
   style="stop-color:#9E9E9E"
   offset="0.5" />
					<a:midPointStop
   style="stop-color:#616161"
   offset="1" />
				</linearGradient>
				<path
   d="M 38.201,52.133 L 37.433,52.133 L 37.433,89.612 L 38.201,89.612 L 38.201,52.133 z "
   style="opacity:0.7;fill:url(#XMLID_19_)"
   id="path2008" />
				<path
   d="M 112.354,91.234 L 112.354,90.465 L 13.001,90.465 L 13.001,91.234 L 112.354,91.234 z "
   style="opacity:0.5;fill:white"
   id="path2010" />
				
					<linearGradient
   x1="409.9971"
   y1="-340.37741"
   x2="445.0896"
   y2="-305.28448"
   id="XMLID_20_"
   gradientUnits="userSpaceOnUse"
   gradientTransform="matrix(0,1,-1,0,-250,-347.7236)">
					<stop
   style="stop-color:#9e9e9e;stop-opacity:1"
   offset="0"
   id="stop2013" />
					<stop
   style="stop-color:#616161;stop-opacity:1"
   offset="1"
   id="stop2015" />
					<a:midPointStop
   style="stop-color:#9E9E9E"
   offset="0" />
					<a:midPointStop
   style="stop-color:#9E9E9E"
   offset="0.5" />
					<a:midPointStop
   style="stop-color:#616161"
   offset="1" />
				</linearGradient>
				<path
   d="M 112.354,90.356 L 112.354,89.588 L 13.001,89.588 L 13.001,90.356 L 112.354,90.356 z "
   style="opacity:0.7;fill:url(#XMLID_20_)"
   id="path2017" />
				<g
   id="g2019">
					<linearGradient
   x1="61.019001"
   y1="51.504398"
   x2="95.525902"
   y2="89.4907"
   id="XMLID_21_"
   gradientUnits="userSpaceOnUse">
						<stop
   style="stop-color:white;stop-opacity:1"
   offset="0.0337"
   id="stop2022" />
						<stop
   style="stop-color:#ababab;stop-opacity:1"
   offset="1"
   id="stop2024" />
						<a:midPointStop
   style="stop-color:#FFFFFF"
   offset="0.0337" />
						<a:midPointStop
   style="stop-color:#FFFFFF"
   offset="0.5" />
						<a:midPointStop
   style="stop-color:#ABABAB"
   offset="1" />
					</linearGradient>
					<path
   d="M 99.272,65.274 C 99.272,79.493 87.747,91.019 73.526,91.019 C 59.307,91.019 47.781,79.493 47.781,65.274 C 47.781,51.054 59.307,39.527 73.526,39.527 C 87.747,39.528 99.272,51.055 99.272,65.274 z "
   style="fill:url(#XMLID_21_)"
   id="path2026" />
					<linearGradient
   x1="73.526398"
   y1="96.3545"
   x2="73.526398"
   y2="46.766399"
   id="XMLID_22_"
   gradientUnits="userSpaceOnUse">
						<stop
   style="stop-color:#9e9e9e;stop-opacity:1"
   offset="0"
   id="stop2029" />
						<stop
   style="stop-color:#616161;stop-opacity:1"
   offset="1"
   id="stop2031" />
						<a:midPointStop
   style="stop-color:#9E9E9E"
   offset="0" />
						<a:midPointStop
   style="stop-color:#9E9E9E"
   offset="0.5" />
						<a:midPointStop
   style="stop-color:#616161"
   offset="1" />
					</linearGradient>
					<path
   d="M 47.562,65.274 C 47.562,79.59 59.209,91.239 73.526,91.239 C 87.843,91.239 99.491,79.591 99.491,65.274 C 99.491,50.957 87.843,39.308 73.526,39.308 C 59.209,39.308 47.562,50.957 47.562,65.274 z M 48,65.274 C 48,51.198 59.451,39.747 73.526,39.747 C 87.601,39.747 99.051,51.199 99.051,65.274 C 99.051,79.349 87.601,90.799 73.526,90.799 C 59.451,90.799 48,79.35 48,65.274 z "
   style="fill:url(#XMLID_22_)"
   id="path2033" />
					<linearGradient
   x1="56.388199"
   y1="65.186501"
   x2="98.7966"
   y2="65.403297"
   id="XMLID_23_"
   gradientUnits="userSpaceOnUse">
						<stop
   style="stop-color:white;stop-opacity:1"
   offset="0.0337"
   id="stop2036" />
						<stop
   style="stop-color:#ababab;stop-opacity:1"
   offset="1"
   id="stop2038" />
						<a:midPointStop
   style="stop-color:#FFFFFF"
   offset="0.0337" />
						<a:midPointStop
   style="stop-color:#FFFFFF"
   offset="0.5" />
						<a:midPointStop
   style="stop-color:#ABABAB"
   offset="1" />
					</linearGradient>
					<path
   d="M 91.365,65.274 C 91.365,75.126 83.378,83.111 73.526,83.111 C 63.674,83.111 55.688,75.126 55.688,65.274 C 55.688,55.421 63.674,47.436 73.526,47.436 C 83.378,47.436 91.365,55.422 91.365,65.274 z "
   style="fill:url(#XMLID_23_)"
   id="path2040" />
					<linearGradient
   x1="73.526398"
   y1="86.865196"
   x2="73.526398"
   y2="52.4175"
   id="XMLID_24_"
   gradientUnits="userSpaceOnUse">
						<stop
   style="stop-color:#9e9e9e;stop-opacity:1"
   offset="0"
   id="stop2043" />
						<stop
   style="stop-color:#616161;stop-opacity:1"
   offset="1"
   id="stop2045" />
						<a:midPointStop
   style="stop-color:#9E9E9E"
   offset="0" />
						<a:midPointStop
   style="stop-color:#9E9E9E"
   offset="0.5" />
						<a:midPointStop
   style="stop-color:#616161"
   offset="1" />
					</linearGradient>
					<path
   d="M 55.49,65.274 C 55.49,75.219 63.582,83.311 73.526,83.311 C 83.472,83.311 91.563,75.219 91.563,65.274 C 91.563,55.328 83.472,47.236 73.526,47.236 C 63.582,47.236 55.49,55.329 55.49,65.274 z M 55.888,65.274 C 55.888,55.547 63.801,47.634 73.526,47.634 C 83.253,47.634 91.165,55.547 91.165,65.274 C 91.165,75.001 83.253,82.913 73.526,82.913 C 63.801,82.913 55.888,75.001 55.888,65.274 z "
   style="fill:url(#XMLID_24_)"
   id="path2047" />
					<linearGradient
   x1="52.6987"
   y1="79.621101"
   x2="76.032097"
   y2="63.5495"
   id="XMLID_25_"
   gradientUnits="userSpaceOnUse">
						<stop
   style="stop-color:white;stop-opacity:1"
   offset="0.0337"
   id="stop2050" />
						<stop
   style="stop-color:#999;stop-opacity:1"
   offset="1"
   id="stop2052" />
						<a:midPointStop
   style="stop-color:#FFFFFF"
   offset="0.0337" />
						<a:midPointStop
   style="stop-color:#FFFFFF"
   offset="0.5" />
						<a:midPointStop
   style="stop-color:#999999"
   offset="1" />
					</linearGradient>
					<path
   d="M 89.242,65.274 C 89.242,73.954 82.206,80.989 73.526,80.989 C 64.847,80.989 57.811,73.954 57.811,65.274 C 57.811,56.593 64.847,49.558 73.526,49.558 C 82.206,49.559 89.242,56.594 89.242,65.274 z "
   style="fill:url(#XMLID_25_)"
   id="path2054" />
					<linearGradient
   x1="60.901901"
   y1="65.209999"
   x2="92.139603"
   y2="65.369698"
   id="XMLID_26_"
   gradientUnits="userSpaceOnUse">
						<stop
   style="stop-color:white;stop-opacity:1"
   offset="0.0337"
   id="stop2057" />
						<stop
   style="stop-color:#ababab;stop-opacity:1"
   offset="1"
   id="stop2059" />
						<a:midPointStop
   style="stop-color:#FFFFFF"
   offset="0.0337" />
						<a:midPointStop
   style="stop-color:#FFFFFF"
   offset="0.5" />
						<a:midPointStop
   style="stop-color:#ABABAB"
   offset="1" />
					</linearGradient>
					<path
   d="M 86.666,65.274 C 86.666,72.53 80.784,78.415 73.526,78.415 C 66.27,78.415 60.386,72.53 60.386,65.274 C 60.386,58.017 66.27,52.134 73.526,52.134 C 80.784,52.134 86.666,58.018 86.666,65.274 z "
   style="fill:url(#XMLID_26_)"
   id="path2061" />
					<linearGradient
   x1="73.526398"
   y1="82.742203"
   x2="73.526398"
   y2="67.918198"
   id="XMLID_27_"
   gradientUnits="userSpaceOnUse">
						<stop
   style="stop-color:white;stop-opacity:1"
   offset="0.16850001"
   id="stop2064" />
						<stop
   style="stop-color:#363636;stop-opacity:1"
   offset="1"
   id="stop2066" />
						<a:midPointStop
   style="stop-color:#FFFFFF"
   offset="0.1685" />
						<a:midPointStop
   style="stop-color:#FFFFFF"
   offset="0.5" />
						<a:midPointStop
   style="stop-color:#363636"
   offset="1" />
					</linearGradient>
					<path
   d="M 84.399,65.274 C 84.399,71.28 79.533,76.146 73.526,76.146 C 67.521,76.146 62.654,71.28 62.654,65.274 C 62.654,59.268 67.521,54.4 73.526,54.4 C 79.533,54.4 84.399,59.269 84.399,65.274 z "
   style="fill:url(#XMLID_27_)"
   id="path2068" />
					<linearGradient
   x1="73.526398"
   y1="81.221703"
   x2="73.526398"
   y2="67.688499"
   id="XMLID_28_"
   gradientUnits="userSpaceOnUse">
						<stop
   style="stop-color:white;stop-opacity:1"
   offset="0"
   id="stop2071" />
						<stop
   style="stop-color:black;stop-opacity:1"
   offset="1"
   id="stop2073" />
						<a:midPointStop
   style="stop-color:#FFFFFF"
   offset="0" />
						<a:midPointStop
   style="stop-color:#FFFFFF"
   offset="0.5" />
						<a:midPointStop
   style="stop-color:#000000"
   offset="1" />
					</linearGradient>
					<path
   d="M 83.452,65.274 C 83.452,70.755 79.011,75.2 73.526,75.2 C 68.044,75.2 63.601,70.756 63.601,65.274 C 63.601,59.791 68.043,55.347 73.526,55.347 C 79.011,55.348 83.452,59.792 83.452,65.274 z "
   style="fill:url(#XMLID_28_)"
   id="path2075" />
					<g
   id="g2077">
						
							<radialGradient
   cx="73.739304"
   cy="72.508797"
   r="11.8932"
   fx="73.739304"
   fy="72.508797"
   id="XMLID_29_"
   gradientUnits="userSpaceOnUse">
							<stop
   style="stop-color:#bbebff;stop-opacity:1"
   offset="0"
   id="stop2080" />
							<stop
   style="stop-color:#003dd7;stop-opacity:1"
   offset="1"
   id="stop2082" />
							<a:midPointStop
   style="stop-color:#BBEBFF"
   offset="0" />
							<a:midPointStop
   style="stop-color:#BBEBFF"
   offset="0.5" />
							<a:midPointStop
   style="stop-color:#003DD7"
   offset="1" />
						</radialGradient>
						<path
   d="M 79.905,65.274 C 79.905,68.797 77.049,71.653 73.526,71.653 C 70.005,71.653 67.146,68.798 67.146,65.274 C 67.146,61.75 70.004,58.895 73.526,58.895 C 77.049,58.895 79.905,61.751 79.905,65.274 z "
   style="fill:url(#XMLID_29_)"
   id="path2084" />
						<linearGradient
   x1="73.527298"
   y1="58.290001"
   x2="73.527298"
   y2="65.328598"
   id="XMLID_30_"
   gradientUnits="userSpaceOnUse">
							<stop
   style="stop-color:white;stop-opacity:1"
   offset="0"
   id="stop2087" />
							<stop
   style="stop-color:black;stop-opacity:1"
   offset="1"
   id="stop2089" />
							<a:midPointStop
   style="stop-color:#FFFFFF"
   offset="0" />
							<a:midPointStop
   style="stop-color:#FFFFFF"
   offset="0.5" />
							<a:midPointStop
   style="stop-color:#000000"
   offset="1" />
						</linearGradient>
						<path
   d="M 78.234,63.059 C 78.234,65.147 76.126,66.842 73.526,66.842 C 70.926,66.842 68.819,65.148 68.819,63.059 C 68.819,60.968 70.926,59.274 73.526,59.274 C 76.126,59.274 78.234,60.968 78.234,63.059 z "
   style="fill:url(#XMLID_30_)"
   id="path2091" />
					</g>
				</g>
				<linearGradient
   x1="49.055698"
   y1="50.808102"
   x2="107.7567"
   y2="115.4282"
   id="XMLID_31_"
   gradientUnits="userSpaceOnUse">
					<stop
   style="stop-color:white;stop-opacity:1"
   offset="0.0337"
   id="stop2094" />
					<stop
   style="stop-color:#878787;stop-opacity:1"
   offset="1"
   id="stop2096" />
					<a:midPointStop
   style="stop-color:#FFFFFF"
   offset="0.0337" />
					<a:midPointStop
   style="stop-color:#FFFFFF"
   offset="0.5" />
					<a:midPointStop
   style="stop-color:#878787"
   offset="1" />
				</linearGradient>
				<path
   d="M 108.716,33.6 C 108.859,34.058 108.936,34.545 108.936,35.052 L 108.936,89.962 C 108.936,92.66 106.749,94.849 104.049,94.849 L 14.634,94.849 C 14.129,94.849 13.642,94.773 13.184,94.63 C 13.803,96.62 15.658,98.066 17.851,98.066 L 107.266,98.066 C 109.966,98.066 112.153,95.878 112.153,93.179 L 112.153,38.267 C 112.152,36.074 110.708,34.217 108.716,33.6 z "
   style="opacity:0.5;fill:url(#XMLID_31_)"
   id="path2098" />
				<linearGradient
   x1="62.347698"
   y1="40.083"
   x2="62.347698"
   y2="112.0958"
   id="XMLID_32_"
   gradientUnits="userSpaceOnUse">
					<stop
   style="stop-color:white;stop-opacity:1"
   offset="0"
   id="stop2101" />
					<stop
   style="stop-color:black;stop-opacity:1"
   offset="1"
   id="stop2103" />
					<a:midPointStop
   style="stop-color:#FFFFFF"
   offset="0" />
					<a:midPointStop
   style="stop-color:#FFFFFF"
   offset="0.5" />
					<a:midPointStop
   style="stop-color:#000000"
   offset="1" />
				</linearGradient>
				<path
   d="M 15.451,44.2 C 15.451,41.502 17.638,39.314 20.337,39.314 L 64.088,39.314 C 64.704,37.323 66.538,35.867 68.734,35.867 L 109.753,35.867 C 110.458,35.867 111.126,36.018 111.732,36.287 C 110.971,34.576 109.26,33.38 107.266,33.38 L 66.247,33.38 C 64.052,33.38 62.219,34.836 61.601,36.827 L 17.851,36.827 C 15.152,36.827 12.964,39.016 12.964,41.715 L 12.964,93.177 C 12.964,95.17 14.16,96.882 15.872,97.642 C 15.602,97.037 15.45,96.368 15.45,95.663 L 15.45,44.2 L 15.451,44.2 z "
   style="fill:url(#XMLID_32_)"
   id="path2105" />
				<linearGradient
   x1="62.559101"
   y1="104.9609"
   x2="62.559101"
   y2="42.357201"
   id="XMLID_33_"
   gradientUnits="userSpaceOnUse">
					<stop
   style="stop-color:#9e9e9e;stop-opacity:1"
   offset="0"
   id="stop2108" />
					<stop
   style="stop-color:#616161;stop-opacity:1"
   offset="1"
   id="stop2110" />
					<a:midPointStop
   style="stop-color:#9E9E9E"
   offset="0" />
					<a:midPointStop
   style="stop-color:#9E9E9E"
   offset="0.5" />
					<a:midPointStop
   style="stop-color:#616161"
   offset="1" />
				</linearGradient>
				<path
   d="M 66.247,32.942 C 64.031,32.942 62.121,34.328 61.336,36.389 C 60.809,36.389 17.851,36.389 17.851,36.389 C 14.915,36.389 12.526,38.777 12.526,41.715 L 12.526,93.177 C 12.526,96.114 14.915,98.502 17.851,98.502 L 107.266,98.502 C 110.203,98.502 112.591,96.113 112.591,93.177 L 112.591,38.267 C 112.591,35.331 110.202,32.942 107.266,32.942 L 66.247,32.942 z M 13.403,93.178 L 13.403,41.715 C 13.403,39.262 15.399,37.266 17.851,37.266 L 61.926,37.266 L 62.022,36.957 C 62.603,35.081 64.301,33.818 66.248,33.818 L 107.267,33.818 C 109.72,33.818 111.714,35.815 111.714,38.267 L 111.714,93.178 C 111.714,95.631 109.72,97.626 107.267,97.626 L 17.851,97.626 C 15.399,97.626 13.403,95.631 13.403,93.178 z "
   style="fill:url(#XMLID_33_)"
   id="path2112" />
			</g><path
   d="M 128,128 L 0,128 L 0,0 L 128,0 L 128,128 z "
   style="fill:none"
   id="path2139" />
</svg>