<?xml version="1.0" encoding="UTF-8" standalone="no"?>
<!-- Created with Inkscape (http://www.inkscape.org/) -->
<svg
   xmlns:a="http://ns.adobe.com/AdobeSVGViewerExtensions/3.0/"
   xmlns:dc="http://purl.org/dc/elements/1.1/"
   xmlns:cc="http://web.resource.org/cc/"
   xmlns:rdf="http://www.w3.org/1999/02/22-rdf-syntax-ns#"
   xmlns:svg="http://www.w3.org/2000/svg"
   xmlns="http://www.w3.org/2000/svg"
   xmlns:sodipodi="http://sodipodi.sourceforge.net/DTD/sodipodi-0.dtd"
   xmlns:inkscape="http://www.inkscape.org/namespaces/inkscape"
   version="1.0"
   width="116"
   height="127"
   viewBox="-0.358 -0.104 116 127"
   id="svg4498"
   xml:space="preserve"
   sodipodi:version="0.32"
   inkscape:version="0.44.1"
   sodipodi:docname="sound.svg"
   sodipodi:docbase="/home/qt-devel/projects/Memory/svg"><metadata
   id="metadata3024"><rdf:RDF><cc:Work
       rdf:about=""><dc:format>image/svg+xml</dc:format><dc:type
         rdf:resource="http://purl.org/dc/dcmitype/StillImage" /></cc:Work></rdf:RDF></metadata><sodipodi:namedview
   inkscape:window-height="583"
   inkscape:window-width="988"
   inkscape:pageshadow="2"
   inkscape:pageopacity="0.0"
   guidetolerance="10.0"
   gridtolerance="10.0"
   objecttolerance="10.0"
   borderopacity="1.0"
   bordercolor="#666666"
   pagecolor="#ffffff"
   id="base"
   inkscape:zoom="2.976378"
   inkscape:cx="58"
   inkscape:cy="63.5"
   inkscape:window-x="284"
   inkscape:window-y="0"
   inkscape:current-layer="svg4498" /><defs
   id="defs4644">
		
		<linearGradient
   x1="-10.0635"
   y1="10.0996"
   x2="121.257"
   y2="10.0996"
   id="XMLID_4_"
   gradientUnits="userSpaceOnUse">
			<stop
   style="stop-color:#b3caff;stop-opacity:1"
   offset="0"
   id="stop4533" />
			<stop
   style="stop-color:#0053bd;stop-opacity:1"
   offset="1"
   id="stop4535" />
			<a:midPointStop
   offset="0"
   style="stop-color:#B3CAFF" />
			<a:midPointStop
   offset="0.5"
   style="stop-color:#B3CAFF" />
			<a:midPointStop
   offset="1"
   style="stop-color:#0053BD" />
		</linearGradient>
		
		
		
		
		
	</defs>
	<path
   d="M 87.642,87.896 C 87.642,96.457 75.106,103.396 59.642,103.396 C 44.178,103.396 31.642,96.457 31.642,87.896 C 31.642,79.335 44.178,72.396 59.642,72.396 C 75.105,72.396 87.642,79.336 87.642,87.896 z "
   style="opacity:0.1"
   id="path4539" /><g
   id="g4541"
   transform="matrix(1.501407,0,0,1.501407,-30.35249,-30.92842)">
			<linearGradient
   x1="62.345699"
   y1="83.542999"
   x2="47.853298"
   y2="82.766296"
   id="XMLID_5_"
   gradientUnits="userSpaceOnUse">
				<stop
   style="stop-color:white;stop-opacity:1"
   offset="0"
   id="stop4544" />
				<stop
   style="stop-color:#d4d4d4;stop-opacity:1"
   offset="0.24770001"
   id="stop4546" />
				<stop
   style="stop-color:#9d9d9d;stop-opacity:1"
   offset="0.59740001"
   id="stop4548" />
				<stop
   style="stop-color:#7b7b7b;stop-opacity:1"
   offset="0.85869998"
   id="stop4550" />
				<stop
   style="stop-color:#6e6e6e;stop-opacity:1"
   offset="1"
   id="stop4552" />
			</linearGradient>
			<path
   d="M 78.611,83.341 C 78.611,91.083 69.657,97.356 58.609,97.356 C 47.56,97.356 38.606,91.084 38.606,83.341 C 38.606,75.603 47.56,69.329 58.609,69.329 C 69.657,69.329 78.611,75.603 78.611,83.341 z "
   style="fill:url(#XMLID_5_)"
   id="path4554" />
			<path
   d="M 37.833,83.341 C 37.833,91.497 47.152,98.131 58.608,98.131 C 70.064,98.131 79.384,91.497 79.384,83.341 C 79.384,75.189 70.064,68.557 58.608,68.557 C 47.153,68.557 37.833,75.188 37.833,83.341 z M 39.378,83.341 C 39.378,76.041 48.004,70.101 58.609,70.101 C 69.214,70.101 77.84,76.041 77.84,83.341 C 77.84,90.645 69.214,96.586 58.609,96.586 C 48.004,96.586 39.378,90.645 39.378,83.341 z "
   style="fill:#505050"
   id="path4556" />
			<linearGradient
   x1="71.585899"
   y1="98.066399"
   x2="52.434101"
   y2="69.079903"
   id="XMLID_6_"
   gradientUnits="userSpaceOnUse">
				<stop
   style="stop-color:white;stop-opacity:1"
   offset="0"
   id="stop4559" />
				<stop
   style="stop-color:#757575;stop-opacity:1"
   offset="1"
   id="stop4561" />
			</linearGradient>
			<path
   d="M 78.611,78.424 C 78.611,86.166 69.657,92.441 58.609,92.441 C 47.56,92.441 38.606,86.167 38.606,78.424 C 38.606,70.687 47.56,64.41 58.609,64.41 C 69.657,64.41 78.611,70.687 78.611,78.424 z "
   style="fill:url(#XMLID_6_)"
   id="path4563" />
			<linearGradient
   x1="59.2827"
   y1="45.503399"
   x2="57.212502"
   y2="87.174599"
   id="XMLID_7_"
   gradientUnits="userSpaceOnUse">
				<stop
   style="stop-color:#d1d1d1;stop-opacity:1"
   offset="0"
   id="stop4566" />
				<stop
   style="stop-color:#6b6b6b;stop-opacity:1"
   offset="1"
   id="stop4568" />
			</linearGradient>
			<path
   d="M 95.361,59.079 C 95.361,76.084 78.905,89.867 58.608,89.867 C 38.311,89.867 21.856,76.084 21.856,59.079 C 21.856,42.074 38.311,28.29 58.608,28.29 C 78.905,28.29 95.361,42.074 95.361,59.079 z "
   style="fill:url(#XMLID_7_)"
   id="path4570" />
			<path
   d="M 21.084,59.079 C 21.084,76.481 37.917,90.64 58.608,90.64 C 79.299,90.64 96.132,76.482 96.132,59.079 C 96.132,41.676 79.299,27.517 58.608,27.517 C 37.917,27.518 21.084,41.676 21.084,59.079 z M 22.628,59.079 C 22.628,42.527 38.768,29.062 58.608,29.062 C 78.448,29.062 94.587,42.527 94.587,59.079 C 94.587,75.629 78.447,89.098 58.608,89.098 C 38.768,89.098 22.628,75.629 22.628,59.079 z "
   style="fill:#505050"
   id="path4572" />
			<path
   d="M 74.137,66.207 C 74.137,72.852 67.186,78.24 58.609,78.24 C 50.033,78.24 43.081,72.851 43.081,66.207 C 43.081,59.559 50.033,54.171 58.609,54.171 C 67.186,54.171 74.137,59.559 74.137,66.207 z "
   style="fill:white;stroke:black"
   id="path4574" />
			<linearGradient
   x1="58.607899"
   y1="77.677696"
   x2="58.607899"
   y2="30.312"
   id="XMLID_8_"
   gradientUnits="userSpaceOnUse">
				<stop
   style="stop-color:white;stop-opacity:1"
   offset="0"
   id="stop4577" />
				<stop
   style="stop-color:#525252;stop-opacity:1"
   offset="1"
   id="stop4579" />
			</linearGradient>
			<path
   d="M 89.925,57.48 C 89.925,71.969 75.904,83.716 58.609,83.716 C 41.313,83.716 27.292,71.969 27.292,57.48 C 27.292,42.99 41.313,31.245 58.609,31.245 C 75.904,31.245 89.925,42.991 89.925,57.48 z "
   style="fill:url(#XMLID_8_)"
   id="path4581" />
			<linearGradient
   x1="58.608398"
   y1="57.454601"
   x2="59.643799"
   y2="111.03"
   id="XMLID_9_"
   gradientUnits="userSpaceOnUse">
				<stop
   style="stop-color:white;stop-opacity:1"
   offset="0"
   id="stop4584" />
				<stop
   style="stop-color:#757575;stop-opacity:1"
   offset="1"
   id="stop4586" />
			</linearGradient>
			<path
   d="M 26.519,57.48 C 26.519,72.373 40.914,84.489 58.608,84.489 C 76.302,84.489 90.698,72.373 90.698,57.48 C 90.698,42.588 76.302,30.473 58.608,30.473 C 40.914,30.473 26.519,42.588 26.519,57.48 z M 28.063,57.48 C 28.063,43.439 41.765,32.017 58.608,32.017 C 75.451,32.017 89.153,43.439 89.153,57.48 C 89.153,71.52 75.451,82.944 58.608,82.944 C 41.765,82.944 28.063,71.521 28.063,57.48 z "
   style="fill:url(#XMLID_9_)"
   id="path4588" />
			<g
   id="g4590">
				<linearGradient
   x1="58.046902"
   y1="46.814899"
   x2="59.076302"
   y2="72.0411"
   id="XMLID_10_"
   gradientUnits="userSpaceOnUse">
					<stop
   style="stop-color:white;stop-opacity:1"
   offset="0"
   id="stop4593" />
					<stop
   style="stop-color:#757575;stop-opacity:1"
   offset="1"
   id="stop4595" />
				</linearGradient>
				<path
   d="M 74.338,60.575 C 74.338,67.853 67.295,73.752 58.609,73.752 C 49.921,73.752 42.88,67.853 42.88,60.575 C 42.88,53.299 49.922,47.398 58.609,47.398 C 67.295,47.397 74.338,53.298 74.338,60.575 z "
   style="fill:url(#XMLID_10_)"
   id="path4597" />
				<linearGradient
   x1="55.545898"
   y1="45.516102"
   x2="55.0285"
   y2="62.598701"
   id="XMLID_11_"
   gradientUnits="userSpaceOnUse">
					<stop
   style="stop-color:white;stop-opacity:1"
   offset="0.132184"
   id="stop4600" />
					<stop
   style="stop-color:white;stop-opacity:0"
   offset="1"
   id="stop4602" />
				</linearGradient>
				<path
   d="M 64.129,56.928 C 64.129,60.502 60.131,63.399 55.201,63.399 C 50.268,63.399 46.271,60.503 46.271,56.928 C 46.271,53.354 50.269,50.457 55.201,50.457 C 60.131,50.457 64.129,53.354 64.129,56.928 z "
   style="fill:url(#XMLID_11_)"
   id="path4604" />
			</g>
		</g>
</svg>