<?xml version="1.0" encoding="UTF-8" standalone="no"?>
<!-- Created with Inkscape (http://www.inkscape.org/) -->
<svg
   xmlns:a="http://ns.adobe.com/AdobeSVGViewerExtensions/3.0/"
   xmlns:dc="http://purl.org/dc/elements/1.1/"
   xmlns:cc="http://web.resource.org/cc/"
   xmlns:rdf="http://www.w3.org/1999/02/22-rdf-syntax-ns#"
   xmlns:svg="http://www.w3.org/2000/svg"
   xmlns="http://www.w3.org/2000/svg"
   xmlns:sodipodi="http://sodipodi.sourceforge.net/DTD/sodipodi-0.dtd"
   xmlns:inkscape="http://www.inkscape.org/namespaces/inkscape"
   version="1.0"
   width="128"
   height="128"
   viewBox="0 0 128 128"
   id="svg5033"
   xml:space="preserve"
   sodipodi:version="0.32"
   inkscape:version="0.44.1"
   sodipodi:docname="vcalendar.svg"
   sodipodi:docbase="/home/qt-devel/projects/Memory/svg"><metadata
   id="metadata3739"><rdf:RDF><cc:Work
       rdf:about=""><dc:format>image/svg+xml</dc:format><dc:type
         rdf:resource="http://purl.org/dc/dcmitype/StillImage" /></cc:Work></rdf:RDF></metadata><sodipodi:namedview
   inkscape:window-height="724"
   inkscape:window-width="1272"
   inkscape:pageshadow="2"
   inkscape:pageopacity="0.0"
   guidetolerance="10.0"
   gridtolerance="10.0"
   objecttolerance="10.0"
   borderopacity="1.0"
   bordercolor="#666666"
   pagecolor="#ffffff"
   id="base"
   inkscape:zoom="2.953125"
   inkscape:cx="64"
   inkscape:cy="64"
   inkscape:window-x="0"
   inkscape:window-y="0"
   inkscape:current-layer="svg5033" /><defs
   id="defs5211">
		
		
	
			
			<linearGradient
   x1="63.920399"
   y1="154.5645"
   x2="63.920399"
   y2="-100.9347"
   id="XMLID_1_"
   gradientUnits="userSpaceOnUse">
				<stop
   style="stop-color:white;stop-opacity:1"
   offset="0"
   id="stop5041" />
				<stop
   style="stop-color:#f6f6f6;stop-opacity:1"
   offset="0.2457"
   id="stop5043" />
				<stop
   style="stop-color:#dfdfdf;stop-opacity:1"
   offset="0.63739997"
   id="stop5045" />
				<stop
   style="stop-color:#c4c4c4;stop-opacity:1"
   offset="1"
   id="stop5047" />
				<a:midPointStop
   style="stop-color:#FFFFFF"
   offset="0" />
				<a:midPointStop
   style="stop-color:#FFFFFF"
   offset="0.6045" />
				<a:midPointStop
   style="stop-color:#C4C4C4"
   offset="1" />
			</linearGradient>
			
			<linearGradient
   x1="-26.333"
   y1="-26.333"
   x2="56.166199"
   y2="56.166199"
   id="XMLID_2_"
   gradientUnits="userSpaceOnUse">
				<stop
   style="stop-color:#b3b3b3;stop-opacity:1"
   offset="0"
   id="stop5052" />
				<stop
   style="stop-color:#828282;stop-opacity:1"
   offset="1"
   id="stop5054" />
				<a:midPointStop
   style="stop-color:#B3B3B3"
   offset="0" />
				<a:midPointStop
   style="stop-color:#B3B3B3"
   offset="0.5" />
				<a:midPointStop
   style="stop-color:#828282"
   offset="1" />
			</linearGradient>
			
			<linearGradient
   x1="43.0229"
   y1="25.4214"
   x2="204.00729"
   y2="111.0652"
   id="XMLID_3_"
   gradientUnits="userSpaceOnUse">
				<stop
   style="stop-color:white;stop-opacity:1"
   offset="0"
   id="stop5059" />
				<stop
   style="stop-color:#dadada;stop-opacity:1"
   offset="0.8603"
   id="stop5061" />
				<stop
   style="stop-color:#d4d4d4;stop-opacity:1"
   offset="1"
   id="stop5063" />
				<a:midPointStop
   style="stop-color:#FFFFFF"
   offset="0" />
				<a:midPointStop
   style="stop-color:#FFFFFF"
   offset="0.5254" />
				<a:midPointStop
   style="stop-color:#D4D4D4"
   offset="1" />
			</linearGradient>
			
			<linearGradient
   x1="-3.8062"
   y1="10.6514"
   x2="127.5141"
   y2="10.6514"
   id="XMLID_4_"
   gradientUnits="userSpaceOnUse">
				<stop
   style="stop-color:#b3caff;stop-opacity:1"
   offset="0"
   id="stop5068" />
				<stop
   style="stop-color:#0053bd;stop-opacity:1"
   offset="1"
   id="stop5070" />
				<a:midPointStop
   style="stop-color:#B3CAFF"
   offset="0" />
				<a:midPointStop
   style="stop-color:#B3CAFF"
   offset="0.5" />
				<a:midPointStop
   style="stop-color:#0053BD"
   offset="1" />
			</linearGradient>
			
			
			
			
		</defs>
	<g
   id="g5074">
				<path
   d="M 17.419,11.914 L 19.107,12.43 C 18.848,13.376 18.418,14.079 17.815,14.538 C 17.212,14.997 16.449,15.227 15.523,15.227 C 14.377,15.227 13.435,14.837 12.698,14.057 C 11.96,13.277 11.592,12.211 11.592,10.858 C 11.592,9.427 11.962,8.316 12.703,7.525 C 13.443,6.733 14.418,6.337 15.625,6.337 C 16.679,6.337 17.536,6.648 18.194,7.269 C 18.586,7.637 18.88,8.165 19.076,8.852 L 17.357,9.258 C 17.254,8.814 17.041,8.464 16.716,8.206 C 16.391,7.948 15.998,7.82 15.533,7.82 C 14.891,7.82 14.371,8.049 13.972,8.506 C 13.573,8.964 13.373,9.704 13.373,10.728 C 13.373,11.814 13.57,12.589 13.964,13.05 C 14.358,13.511 14.87,13.742 15.5,13.742 C 15.965,13.742 16.364,13.595 16.699,13.301 C 17.034,13.007 17.274,12.545 17.419,11.914 z "
   style="fill:white"
   id="path5076" />
				<path
   d="M 28.32,15.086 L 26.453,15.086 L 25.708,13.133 L 22.26,13.133 L 21.554,15.086 L 19.695,15.086 L 23,6.492 L 24.857,6.492 L 28.32,15.086 z M 25.136,11.68 L 23.937,8.492 L 22.785,11.68 L 25.136,11.68 z "
   style="fill:white"
   id="path5078" />
				<path
   d="M 29.283,15.086 L 29.283,6.57 L 31.017,6.57 L 31.017,13.632 L 35.329,13.632 L 35.329,15.085 L 29.283,15.085 L 29.283,15.086 z "
   style="fill:white"
   id="path5080" />
			</g><g
   id="g5082"
   transform="matrix(1.439421,0,0,1.439421,-24.76549,-35.97642)">
				<path
   d="M 26.54,50.443 C 26.066,70.36 27.133,90.28 28.252,110.202 C 32.664,110.518 35.174,111.591 37.262,113.19 C 35.614,92.271 33.963,71.364 32.315,50.442 C 30.389,50.443 28.465,50.443 26.54,50.443 z "
   style="fill:#666e75;fill-rule:evenodd"
   id="path5084" />
				<path
   d="M 93.378,38.068 C 92.5,55.852 92.362,73.634 93.857,91.422 C 73.877,97.365 55.583,105.293 37.262,113.191 C 33.213,92.667 32.425,71.609 32.317,50.443 C 52.668,46.317 73.024,42.192 93.378,38.068 z "
   style="fill:#666e75;fill-rule:evenodd"
   id="path5086" />
				
					<linearGradient
   x1="-222.4521"
   y1="467.37891"
   x2="-229.62511"
   y2="535.62531"
   id="XMLID_5_"
   gradientUnits="userSpaceOnUse"
   gradientTransform="matrix(1.0077,0,2.35e-2,1.0077,279.3983,-430.8782)">
					<stop
   style="stop-color:#c5cad1;stop-opacity:1"
   offset="0.41"
   id="stop5089" />
					<stop
   style="stop-color:#dbe1e8;stop-opacity:1"
   offset="0.51620001"
   id="stop5091" />
					<stop
   style="stop-color:white;stop-opacity:1"
   offset="0.58999997"
   id="stop5093" />
					<a:midPointStop
   style="stop-color:#C5CAD1"
   offset="0.41" />
					<a:midPointStop
   style="stop-color:#C5CAD1"
   offset="0.5" />
					<a:midPointStop
   style="stop-color:#DBE1E8"
   offset="0.5162" />
					<a:midPointStop
   style="stop-color:#DBE1E8"
   offset="0.5" />
					<a:midPointStop
   style="stop-color:#FFFFFF"
   offset="0.59" />
				</linearGradient>
				<path
   d="M 93.386,37.895 C 92.53,55.283 92.396,72.673 93.858,90.066 C 74.322,95.876 56.431,103.628 38.518,111.349 C 34.559,91.281 33.787,70.696 33.681,49.997 C 53.583,45.966 73.485,41.928 93.386,37.895 z "
   style="fill:url(#XMLID_5_);fill-rule:evenodd"
   id="path5095" />
				<g
   id="g5097">
					<path
   d="M 31.27,50.917 C 34.615,71.053 37.723,91.917 44.798,112.126 C 49.249,107.294 70.759,100.675 100.54,94.347 C 95.53,76.326 94.965,58.4 94.776,40.48 C 73.606,43.962 52.438,47.437 31.27,50.917 z "
   style="fill:#666e75;fill-rule:evenodd"
   id="path5099" />
					
						<linearGradient
   x1="-206.895"
   y1="471.56931"
   x2="-242.0762"
   y2="527.87097"
   id="XMLID_6_"
   gradientUnits="userSpaceOnUse"
   gradientTransform="matrix(1,2.51e-2,-8.99e-2,1.0896,333.9921,-464.4864)">
						<stop
   style="stop-color:#d8dee6;stop-opacity:1"
   offset="0"
   id="stop5102" />
						<stop
   style="stop-color:white;stop-opacity:1"
   offset="0.72000003"
   id="stop5104" />
						<stop
   style="stop-color:#fefefd;stop-opacity:1"
   offset="1"
   id="stop5106" />
						<a:midPointStop
   style="stop-color:#D8DEE6"
   offset="0" />
						<a:midPointStop
   style="stop-color:#D8DEE6"
   offset="0.5" />
						<a:midPointStop
   style="stop-color:#FFFFFF"
   offset="0.72" />
						<a:midPointStop
   style="stop-color:#FFFFFF"
   offset="0.5" />
						<a:midPointStop
   style="stop-color:#FEFEFD"
   offset="1" />
					</linearGradient>
					<path
   d="M 33.392,50.859 C 36.448,70.807 38.953,90.737 45.52,110.755 C 49.739,105.961 70.376,100.131 98.475,93.828 C 93.843,75.975 93.397,58.207 93.307,40.452 C 73.337,43.92 53.36,47.39 33.392,50.859 z "
   style="fill:url(#XMLID_6_);fill-rule:evenodd"
   id="path5108" />
					
						<linearGradient
   x1="-228.34419"
   y1="467.44821"
   x2="-224.85609"
   y2="534.00562"
   id="XMLID_7_"
   gradientUnits="userSpaceOnUse"
   gradientTransform="matrix(1,2.51e-2,-8.99e-2,1.0896,333.9921,-464.4864)">
						<stop
   style="stop-color:#c5cad1;stop-opacity:1"
   offset="0.27000001"
   id="stop5111" />
						<stop
   style="stop-color:#dbe1e8;stop-opacity:1"
   offset="0.4632"
   id="stop5113" />
						<stop
   style="stop-color:white;stop-opacity:1"
   offset="0.73000002"
   id="stop5115" />
						<a:midPointStop
   style="stop-color:#C5CAD1"
   offset="0.27" />
						<a:midPointStop
   style="stop-color:#C5CAD1"
   offset="0.5" />
						<a:midPointStop
   style="stop-color:#DBE1E8"
   offset="0.4632" />
						<a:midPointStop
   style="stop-color:#DBE1E8"
   offset="0.5" />
						<a:midPointStop
   style="stop-color:#FFFFFF"
   offset="0.73" />
					</linearGradient>
					<path
   d="M 33.392,50.859 C 36.448,70.807 38.953,90.737 45.52,110.755 C 46.759,109.346 49.418,107.846 53.267,106.27 C 33.323,67.976 37.61,50.179 93.321,42.954 C 93.319,42.116 93.31,41.283 93.306,40.452 C 73.337,43.92 53.36,47.39 33.392,50.859 z "
   style="fill:url(#XMLID_7_);fill-rule:evenodd"
   id="path5117" />
				</g>
				
					<linearGradient
   x1="-264.41849"
   y1="505.24899"
   x2="-246.439"
   y2="509.73181"
   id="XMLID_8_"
   gradientUnits="userSpaceOnUse"
   gradientTransform="matrix(1.0305,0,2.4e-2,1.0305,283.5052,-442.7468)">
					<stop
   style="stop-color:#aaafb5;stop-opacity:1"
   offset="0.33000001"
   id="stop5120" />
					<stop
   style="stop-color:#dae0e6;stop-opacity:1"
   offset="0.4932"
   id="stop5122" />
					<stop
   style="stop-color:#aaafb5;stop-opacity:1"
   offset="0.67000002"
   id="stop5124" />
					<a:midPointStop
   style="stop-color:#AAAFB5"
   offset="0.33" />
					<a:midPointStop
   style="stop-color:#AAAFB5"
   offset="0.5" />
					<a:midPointStop
   style="stop-color:#DAE0E6"
   offset="0.4932" />
					<a:midPointStop
   style="stop-color:#DAE0E6"
   offset="0.5" />
					<a:midPointStop
   style="stop-color:#AAAFB5"
   offset="0.67" />
				</linearGradient>
				<path
   d="M 27.606,49.482 C 27.131,69.396 28.199,89.315 29.317,109.234 C 29.957,109.285 30.532,109.333 31.052,109.391 C 31.314,109.42 30.26,88.536 30.495,88.569 C 30.732,88.602 32.257,109.559 32.469,109.596 C 33.135,109.718 33.7,109.865 34.207,110.042 C 34.47,110.132 31.36,76.119 31.6,76.231 C 31.842,76.346 35.431,110.584 35.659,110.715 C 36.143,111.002 36.621,111.342 37.142,111.741 C 34.225,90.823 32.097,70.587 31.721,49.673 C 30.73,49.673 30.177,49.62 29.611,49.568 C 29.719,49.756 29.624,73.061 29.09,72.73 C 28.956,72.721 28.939,49.516 28.787,49.51 C 28.466,49.494 28.086,49.482 27.606,49.482 z "
   style="fill:url(#XMLID_8_);fill-rule:evenodd"
   id="path5126" />
				<g
   id="g5128">
					<path
   d="M 22.795,50.835 L 29.641,51.837 L 96.402,40.176 L 96.396,26.459 L 88.457,25.721 L 22.823,32.788 L 22.795,50.835 z "
   style="fill:#039;fill-rule:evenodd"
   id="path5130" />
					
						<linearGradient
   x1="-251.3535"
   y1="483.96289"
   x2="-262.96521"
   y2="470.6051"
   id="XMLID_9_"
   gradientUnits="userSpaceOnUse"
   gradientTransform="matrix(1.1276,0.1664,0,0.8523,317.1191,-321.7438)">
						<stop
   style="stop-color:#69f;stop-opacity:1"
   offset="0.30000001"
   id="stop5133" />
						<stop
   style="stop-color:#66f;stop-opacity:1"
   offset="0.69999999"
   id="stop5135" />
						<a:midPointStop
   style="stop-color:#6699FF"
   offset="0.3" />
						<a:midPointStop
   style="stop-color:#6699FF"
   offset="0.5" />
						<a:midPointStop
   style="stop-color:#6666FF"
   offset="0.7" />
					</linearGradient>
					<path
   d="M 24.129,33.796 L 24.129,49.986 L 30.159,50.713 L 30.159,34.517 L 24.129,33.796 z "
   style="fill:url(#XMLID_9_);fill-rule:evenodd"
   id="path5137" />
					
						<linearGradient
   x1="-196.3101"
   y1="465.82809"
   x2="-260.37161"
   y2="462.47079"
   id="XMLID_10_"
   gradientUnits="userSpaceOnUse"
   gradientTransform="matrix(1.1276,0.1664,0,0.8523,317.1191,-327.1383)">
						<stop
   style="stop-color:#69f;stop-opacity:1"
   offset="0.23"
   id="stop5140" />
						<stop
   style="stop-color:#ccf;stop-opacity:1"
   offset="0.76999998"
   id="stop5142" />
						<a:midPointStop
   style="stop-color:#6699FF"
   offset="0.23" />
						<a:midPointStop
   style="stop-color:#6699FF"
   offset="0.5" />
						<a:midPointStop
   style="stop-color:#CCCCFF"
   offset="0.77" />
					</linearGradient>
					<path
   d="M 89.127,26.395 L 24.129,33.802 L 30.159,34.526 L 95.155,27.119 L 89.127,26.395 z "
   style="fill:url(#XMLID_10_);fill-rule:evenodd"
   id="path5144" />
					<linearGradient
   x1="16.730499"
   y1="57.568401"
   x2="107.3123"
   y2="17.0446"
   id="XMLID_11_"
   gradientUnits="userSpaceOnUse">
						<stop
   style="stop-color:#69f;stop-opacity:1"
   offset="0.17"
   id="stop5147" />
						<stop
   style="stop-color:white;stop-opacity:1"
   offset="0.82999998"
   id="stop5149" />
						<a:midPointStop
   style="stop-color:#6699FF"
   offset="0.17" />
						<a:midPointStop
   style="stop-color:#6699FF"
   offset="0.5" />
						<a:midPointStop
   style="stop-color:#FFFFFF"
   offset="0.83" />
					</linearGradient>
					<path
   d="M 94.948,39.607 L 30.098,50.624 L 30.159,34.525 L 95.155,27.118 L 94.948,39.607 z "
   style="fill:url(#XMLID_11_);fill-rule:evenodd"
   id="path5151" />
				</g>
				<path
   d="M 38.126,61.002 C 38.352,62.058 38.569,63.112 38.791,64.166 C 56.274,60.751 73.759,57.34 91.241,53.924 C 91.233,53.133 91.229,52.342 91.224,51.551 C 73.521,54.698 55.824,57.85 38.126,61.002 z "
   style="opacity:0.4;fill:#039;fill-rule:evenodd"
   id="path5153" />
				<linearGradient
   x1="58.109402"
   y1="80.6035"
   x2="99.101799"
   y2="62.849602"
   id="XMLID_12_"
   gradientUnits="userSpaceOnUse">
					<stop
   style="stop-color:red;stop-opacity:1"
   offset="0.08"
   id="stop5156" />
					<stop
   style="stop-color:white;stop-opacity:1"
   offset="0.92000002"
   id="stop5158" />
					<a:midPointStop
   style="stop-color:#FF0000"
   offset="0.08" />
					<a:midPointStop
   style="stop-color:#FF0000"
   offset="0.5" />
					<a:midPointStop
   style="stop-color:#FFFFFF"
   offset="0.92" />
				</linearGradient>
				<path
   d="M 70.305,83.654 C 67.451,84.385 64.524,85.131 61.569,85.89 C 58.567,86.663 55.507,87.447 52.387,88.243 C 52.408,85.929 52.437,83.623 52.459,81.328 C 55.564,77.621 58.606,74 61.576,70.472 C 64.466,67.028 67.302,63.652 70.074,60.359 C 72.691,59.872 75.275,59.392 77.822,58.917 C 77.87,61.654 77.921,64.408 77.97,67.18 C 78.021,69.969 78.079,72.776 78.131,75.603 C 79.455,75.293 80.775,74.979 82.079,74.666 C 82.118,76.642 82.165,78.611 82.215,80.597 C 80.9,80.937 79.574,81.28 78.244,81.619 C 78.269,83.372 78.305,85.131 78.341,86.902 C 75.721,87.614 73.055,88.34 70.352,89.078 C 70.336,87.263 70.321,85.453 70.305,83.654 M 70.239,77.48 C 70.208,74.513 70.184,71.569 70.153,68.639 C 68.685,70.418 67.196,72.224 65.69,74.05 C 64.169,75.895 62.628,77.772 61.071,79.664 C 64.177,78.924 67.236,78.193 70.239,77.48"
   style="fill:url(#XMLID_12_);fill-rule:evenodd"
   id="path5160" />
				<linearGradient
   x1="54.158699"
   y1="38.597198"
   x2="102.8996"
   y2="34.124401"
   id="XMLID_13_"
   gradientUnits="userSpaceOnUse">
					<stop
   style="stop-color:#039;stop-opacity:1"
   offset="0.15000001"
   id="stop5163" />
					<stop
   style="stop-color:white;stop-opacity:1"
   offset="0.85000002"
   id="stop5165" />
					<a:midPointStop
   style="stop-color:#003399"
   offset="0.15" />
					<a:midPointStop
   style="stop-color:#003399"
   offset="0.5" />
					<a:midPointStop
   style="stop-color:#FFFFFF"
   offset="0.85" />
				</linearGradient>
				<path
   d="M 56.236,43.177 C 53.688,43.581 51.086,43.986 48.437,44.407 C 48.539,43.605 48.826,42.825 49.302,42.063 C 49.778,41.307 50.656,40.375 51.932,39.26 C 52.703,38.589 53.201,38.088 53.416,37.766 C 53.632,37.444 53.748,37.148 53.748,36.884 C 53.752,36.597 53.651,36.368 53.445,36.192 C 53.243,36.019 52.977,35.952 52.659,35.993 C 52.325,36.034 52.047,36.175 51.834,36.412 C 51.621,36.646 51.47,37.039 51.391,37.584 C 50.512,37.631 49.625,37.681 48.739,37.728 C 48.854,36.966 49.056,36.359 49.344,35.906 C 49.632,35.451 50.029,35.086 50.537,34.798 C 51.045,34.517 51.741,34.318 52.616,34.209 C 53.532,34.098 54.233,34.112 54.734,34.259 C 55.229,34.402 55.613,34.675 55.888,35.067 C 56.162,35.463 56.303,35.922 56.291,36.453 C 56.281,37.022 56.111,37.587 55.78,38.144 C 55.448,38.706 54.836,39.361 53.957,40.106 C 53.431,40.545 53.078,40.844 52.901,41.014 C 52.724,41.184 52.512,41.406 52.267,41.676 C 53.619,41.477 54.951,41.278 56.274,41.078 C 56.264,41.776 56.25,42.479 56.236,43.177 M 57.396,38.352 C 57.41,37.476 57.506,36.717 57.669,36.084 C 57.827,35.449 58.073,34.936 58.389,34.546 C 59.016,33.77 59.946,33.304 61.185,33.154 C 61.775,33.081 62.259,33.095 62.634,33.201 C 63.003,33.304 63.304,33.462 63.536,33.673 C 63.766,33.881 63.951,34.112 64.076,34.356 C 64.205,34.608 64.313,34.901 64.389,35.244 C 64.533,35.894 64.6,36.583 64.588,37.31 C 64.572,38.127 64.486,38.845 64.346,39.462 C 64.204,40.078 63.996,40.599 63.725,41.015 C 63.182,41.859 62.259,42.381 60.948,42.585 C 60.204,42.702 59.604,42.679 59.147,42.503 C 58.691,42.333 58.317,42.028 58.024,41.6 C 57.82,41.289 57.653,40.85 57.545,40.281 C 57.432,39.707 57.389,39.064 57.396,38.352 M 59.863,38.012 C 59.845,39.176 59.932,39.959 60.118,40.352 C 60.314,40.75 60.595,40.92 60.97,40.862 C 61.221,40.826 61.439,40.703 61.618,40.492 C 61.803,40.287 61.944,39.983 62.033,39.584 C 62.123,39.184 62.181,38.572 62.196,37.751 C 62.218,36.544 62.132,35.747 61.945,35.357 C 61.76,34.971 61.465,34.8 61.073,34.85 C 60.669,34.903 60.369,35.155 60.185,35.603 C 59.998,36.055 59.881,36.858 59.863,38.012 M 65.568,37.204 C 65.582,36.351 65.668,35.619 65.824,35.003 C 65.979,34.388 66.205,33.89 66.505,33.512 C 67.092,32.762 67.978,32.313 69.138,32.17 C 69.693,32.103 70.152,32.121 70.505,32.223 C 70.853,32.326 71.136,32.48 71.356,32.686 C 71.572,32.888 71.744,33.114 71.865,33.354 C 71.982,33.594 72.083,33.881 72.152,34.212 C 72.288,34.845 72.353,35.516 72.34,36.219 C 72.321,37.012 72.241,37.71 72.104,38.308 C 71.967,38.906 71.779,39.409 71.522,39.813 C 71.006,40.627 70.137,41.137 68.898,41.331 C 68.2,41.442 67.637,41.413 67.206,41.243 C 66.776,41.073 66.42,40.774 66.145,40.358 C 65.952,40.059 65.799,39.631 65.702,39.079 C 65.598,38.522 65.555,37.895 65.568,37.204 M 67.888,36.884 C 67.867,38.015 67.947,38.774 68.122,39.157 C 68.303,39.542 68.574,39.706 68.922,39.654 C 69.156,39.619 69.362,39.502 69.536,39.302 C 69.712,39.102 69.842,38.805 69.928,38.419 C 70.02,38.029 70.068,37.438 70.082,36.641 C 70.105,35.469 70.028,34.692 69.852,34.314 C 69.681,33.936 69.405,33.772 69.032,33.819 C 68.651,33.869 68.368,34.112 68.192,34.546 C 68.011,34.986 67.911,35.765 67.888,36.884 M 75.438,34.034 C 74.75,33.99 74.057,33.946 73.358,33.905 C 73.548,33.152 73.896,32.549 74.401,32.1 C 74.902,31.654 75.597,31.376 76.491,31.265 C 77.512,31.139 78.233,31.259 78.672,31.616 C 79.111,31.977 79.327,32.469 79.313,33.093 C 79.304,33.462 79.204,33.808 79.017,34.127 C 78.831,34.455 78.548,34.754 78.173,35.029 C 78.473,35.071 78.701,35.132 78.854,35.217 C 79.103,35.355 79.293,35.559 79.432,35.823 C 79.566,36.087 79.633,36.415 79.622,36.811 C 79.607,37.303 79.477,37.792 79.237,38.285 C 78.996,38.771 78.654,39.173 78.206,39.491 C 77.759,39.802 77.172,40.025 76.443,40.136 C 75.733,40.247 75.168,40.247 74.761,40.13 C 74.346,40.013 74.011,39.79 73.747,39.474 C 73.485,39.162 73.286,38.743 73.15,38.221 C 73.891,38.004 74.63,37.79 75.366,37.576 C 75.441,38.045 75.564,38.361 75.741,38.519 C 75.917,38.675 76.147,38.736 76.421,38.695 C 76.708,38.648 76.96,38.493 77.156,38.229 C 77.351,37.971 77.46,37.643 77.467,37.253 C 77.475,36.857 77.387,36.561 77.209,36.371 C 77.026,36.181 76.775,36.104 76.455,36.151 C 76.283,36.174 76.051,36.256 75.747,36.391 C 75.795,35.817 75.846,35.242 75.892,34.665 C 76.018,34.665 76.112,34.665 76.181,34.657 C 76.465,34.618 76.702,34.484 76.897,34.259 C 77.092,34.036 77.19,33.784 77.197,33.514 C 77.201,33.25 77.136,33.051 76.998,32.913 C 76.862,32.775 76.663,32.723 76.414,32.754 C 76.158,32.787 75.951,32.9 75.788,33.091 C 75.621,33.283 75.506,33.6 75.438,34.034"
   style="fill:url(#XMLID_13_);fill-rule:evenodd"
   id="path5167" />
				<linearGradient
   x1="63.108398"
   y1="96.8311"
   x2="98.596901"
   y2="88.3806"
   id="XMLID_14_"
   gradientUnits="userSpaceOnUse">
					<stop
   style="stop-color:#039;stop-opacity:1"
   offset="0.09"
   id="stop5170" />
					<stop
   style="stop-color:white;stop-opacity:1"
   offset="0.91000003"
   id="stop5172" />
					<a:midPointStop
   style="stop-color:#003399"
   offset="0.09" />
					<a:midPointStop
   style="stop-color:#003399"
   offset="0.5" />
					<a:midPointStop
   style="stop-color:#FFFFFF"
   offset="0.91" />
				</linearGradient>
				<path
   d="M 58.477,93.482 C 59.917,93.166 61.351,92.851 62.773,92.542 C 62.865,93.107 62.959,93.673 63.061,94.238 C 62.585,94.342 62.114,94.452 61.636,94.558 C 61.784,95.421 61.929,96.287 62.079,97.153 C 62.232,98.016 62.382,98.879 62.527,99.742 C 62.065,99.859 61.597,99.976 61.129,100.09 C 60.977,99.223 60.826,98.356 60.674,97.488 C 60.522,96.617 60.375,95.748 60.227,94.877 C 59.745,94.986 59.258,95.097 58.772,95.206 C 58.671,94.632 58.574,94.056 58.477,93.482 M 67.563,98.487 C 67.192,98.582 66.814,98.674 66.439,98.767 C 66.388,98.503 66.346,98.238 66.302,97.974 C 66.187,98.342 66.058,98.619 65.909,98.796 C 65.761,98.979 65.561,99.103 65.307,99.165 C 64.969,99.251 64.673,99.161 64.428,98.896 C 64.183,98.632 64.009,98.171 63.898,97.525 C 63.808,97 63.715,96.473 63.621,95.952 C 63.528,95.425 63.445,94.899 63.354,94.371 C 63.769,94.279 64.183,94.181 64.595,94.091 C 64.749,94.993 64.9,95.899 65.055,96.801 C 65.113,97.109 65.184,97.322 65.282,97.433 C 65.38,97.542 65.495,97.584 65.629,97.548 C 65.775,97.513 65.881,97.402 65.942,97.205 C 66.007,97.01 65.999,96.689 65.921,96.241 C 65.786,95.456 65.653,94.669 65.525,93.879 C 65.924,93.789 66.324,93.699 66.732,93.605 C 66.87,94.42 67.005,95.237 67.146,96.049 C 67.291,96.86 67.425,97.675 67.563,98.487 M 71.364,95.518 C 70.583,95.705 69.802,95.895 69.012,96.081 C 69.082,96.374 69.177,96.586 69.282,96.712 C 69.435,96.89 69.598,96.961 69.783,96.917 C 69.895,96.888 70.001,96.814 70.087,96.699 C 70.141,96.626 70.191,96.509 70.241,96.345 C 70.635,96.31 71.026,96.272 71.421,96.235 C 71.326,96.758 71.171,97.158 70.958,97.426 C 70.746,97.698 70.407,97.893 69.937,98.01 C 69.536,98.109 69.196,98.098 68.934,97.977 C 68.666,97.855 68.421,97.615 68.202,97.256 C 67.977,96.898 67.82,96.454 67.726,95.918 C 67.598,95.157 67.651,94.504 67.883,93.962 C 68.113,93.424 68.505,93.091 69.045,92.967 C 69.484,92.866 69.851,92.894 70.143,93.047 C 70.425,93.193 70.672,93.453 70.872,93.814 C 71.07,94.178 71.222,94.681 71.326,95.309 C 71.337,95.378 71.35,95.449 71.364,95.518 M 70.032,94.919 C 69.942,94.567 69.837,94.324 69.712,94.192 C 69.59,94.06 69.445,94.011 69.282,94.049 C 69.095,94.093 68.966,94.25 68.89,94.508 C 68.848,94.671 68.835,94.898 68.868,95.191 C 69.26,95.099 69.645,95.009 70.032,94.919 M 71.791,96.052 C 72.17,95.904 72.537,95.752 72.909,95.604 C 72.991,95.809 73.085,95.948 73.181,96.021 C 73.282,96.094 73.401,96.111 73.543,96.076 C 73.696,96.038 73.801,95.956 73.87,95.831 C 73.92,95.738 73.938,95.634 73.916,95.519 C 73.895,95.387 73.836,95.297 73.74,95.248 C 73.669,95.214 73.493,95.186 73.217,95.179 C 72.802,95.159 72.509,95.128 72.333,95.07 C 72.165,95.011 72.01,94.882 71.863,94.687 C 71.717,94.484 71.616,94.241 71.57,93.952 C 71.515,93.634 71.53,93.351 71.605,93.096 C 71.683,92.845 71.815,92.633 71.995,92.474 C 72.18,92.317 72.439,92.2 72.778,92.122 C 73.131,92.04 73.4,92.025 73.583,92.074 C 73.765,92.122 73.931,92.224 74.075,92.382 C 74.211,92.536 74.349,92.761 74.474,93.052 C 74.124,93.193 73.777,93.33 73.429,93.471 C 73.374,93.326 73.31,93.226 73.231,93.169 C 73.126,93.094 73.01,93.068 72.883,93.102 C 72.755,93.132 72.665,93.191 72.623,93.274 C 72.574,93.362 72.558,93.459 72.574,93.561 C 72.597,93.678 72.652,93.758 72.733,93.802 C 72.815,93.844 72.993,93.861 73.249,93.85 C 73.641,93.831 73.934,93.859 74.137,93.938 C 74.34,94.013 74.512,94.156 74.644,94.359 C 74.778,94.558 74.871,94.795 74.915,95.065 C 74.961,95.337 74.954,95.616 74.895,95.9 C 74.836,96.181 74.713,96.428 74.518,96.635 C 74.32,96.84 74.031,96.993 73.649,97.089 C 73.109,97.224 72.699,97.198 72.424,97.008 C 72.147,96.814 71.942,96.494 71.791,96.052 M 77.657,89.283 C 77.835,90.355 78.012,91.428 78.195,92.498 C 78.373,93.568 78.549,94.636 78.731,95.704 C 78.391,95.788 78.05,95.874 77.71,95.958 C 77.671,95.729 77.631,95.499 77.595,95.27 C 77.497,95.597 77.401,95.826 77.3,95.961 C 77.166,96.133 77,96.243 76.804,96.294 C 76.412,96.391 76.067,96.225 75.78,95.787 C 75.489,95.353 75.28,94.782 75.165,94.085 C 75.031,93.306 75.048,92.682 75.215,92.212 C 75.372,91.747 75.634,91.471 75.986,91.392 C 76.158,91.352 76.326,91.367 76.478,91.425 C 76.639,91.49 76.787,91.601 76.924,91.764 C 76.796,91.021 76.675,90.274 76.549,89.526 C 76.92,89.447 77.286,89.365 77.657,89.283 M 77.244,93.629 C 77.182,93.263 77.092,93.003 76.962,92.842 C 76.836,92.685 76.698,92.624 76.556,92.655 C 76.428,92.688 76.336,92.8 76.275,92.992 C 76.216,93.187 76.225,93.488 76.293,93.899 C 76.357,94.28 76.447,94.552 76.566,94.703 C 76.686,94.862 76.816,94.923 76.943,94.891 C 77.088,94.856 77.19,94.739 77.252,94.539 C 77.315,94.335 77.312,94.033 77.244,93.629 M 79.848,92.176 C 79.498,92.197 79.146,92.22 78.792,92.24 C 78.777,91.932 78.796,91.689 78.842,91.499 C 78.889,91.314 78.97,91.141 79.087,90.984 C 79.171,90.871 79.292,90.768 79.46,90.684 C 79.621,90.596 79.806,90.525 80.007,90.481 C 80.329,90.408 80.591,90.378 80.792,90.397 C 80.995,90.412 81.175,90.5 81.336,90.655 C 81.445,90.766 81.55,90.929 81.642,91.155 C 81.733,91.382 81.795,91.601 81.83,91.815 C 81.941,92.492 82.051,93.164 82.166,93.836 C 82.201,94.048 82.236,94.218 82.276,94.335 C 82.31,94.452 82.375,94.599 82.461,94.774 C 82.134,94.856 81.797,94.937 81.475,95.021 C 81.413,94.913 81.372,94.827 81.351,94.768 C 81.33,94.713 81.301,94.617 81.265,94.487 C 81.161,94.745 81.05,94.937 80.926,95.065 C 80.761,95.241 80.551,95.36 80.3,95.421 C 79.967,95.502 79.693,95.44 79.475,95.226 C 79.257,95.017 79.117,94.721 79.056,94.347 C 78.997,93.994 79.014,93.689 79.1,93.431 C 79.186,93.178 79.391,92.952 79.707,92.761 C 80.09,92.535 80.335,92.38 80.444,92.298 C 80.55,92.219 80.666,92.116 80.785,91.999 C 80.748,91.783 80.699,91.637 80.631,91.563 C 80.562,91.49 80.459,91.464 80.32,91.498 C 80.144,91.538 80.025,91.617 79.948,91.728 C 79.892,91.817 79.86,91.968 79.848,92.176 M 80.933,92.886 C 80.803,93.007 80.662,93.122 80.512,93.227 C 80.311,93.372 80.187,93.499 80.147,93.606 C 80.101,93.717 80.09,93.835 80.112,93.954 C 80.137,94.093 80.185,94.197 80.257,94.275 C 80.332,94.348 80.427,94.371 80.542,94.341 C 80.659,94.312 80.762,94.238 80.848,94.119 C 80.934,93.997 80.984,93.863 81.007,93.717 C 81.028,93.571 81.022,93.386 80.98,93.168 C 80.966,93.076 80.947,92.981 80.933,92.886 M 81.896,90.163 C 82.264,90.077 82.631,89.995 83,89.91 C 83.176,90.393 83.356,90.877 83.532,91.358 C 83.704,91.838 83.886,92.32 84.057,92.799 C 84.061,92.278 84.066,91.754 84.066,91.231 C 84.07,90.71 84.072,90.188 84.072,89.667 C 84.411,89.592 84.751,89.516 85.092,89.437 C 85.046,90.281 84.994,91.126 84.952,91.971 C 84.912,92.815 84.864,93.66 84.826,94.509 C 84.793,95.089 84.731,95.493 84.639,95.715 C 84.501,96.035 84.256,96.242 83.885,96.337 C 83.737,96.374 83.5,96.401 83.175,96.412 C 83.081,96.015 82.987,95.616 82.886,95.216 C 83.052,95.261 83.226,95.256 83.412,95.212 C 83.535,95.179 83.627,95.109 83.685,94.994 C 83.747,94.879 83.78,94.699 83.794,94.441 C 83.478,93.733 83.157,93.021 82.846,92.309 C 82.53,91.596 82.212,90.882 81.896,90.163"
   style="fill:url(#XMLID_14_);fill-rule:evenodd"
   id="path5174" />
				<linearGradient
   x1="56.617699"
   y1="52.4561"
   x2="104.6163"
   y2="47.517101"
   id="XMLID_15_"
   gradientUnits="userSpaceOnUse">
					<stop
   style="stop-color:#039;stop-opacity:1"
   offset="0.1"
   id="stop5177" />
					<stop
   style="stop-color:white;stop-opacity:1"
   offset="0.89999998"
   id="stop5179" />
					<a:midPointStop
   style="stop-color:#003399"
   offset="0.1" />
					<a:midPointStop
   style="stop-color:#003399"
   offset="0.5" />
					<a:midPointStop
   style="stop-color:#FFFFFF"
   offset="0.9" />
				</linearGradient>
				<path
   d="M 43.522,50.971 L 48.084,50.179 L 48.229,51.597 L 45.52,52.071 L 45.635,53.226 L 47.944,52.822 L 48.078,54.158 L 45.765,54.556 L 46.031,57.258 L 44.18,57.58 L 43.522,50.971 M 53.951,53.912 L 50.629,54.486 C 50.686,54.779 50.78,54.984 50.906,55.107 C 51.09,55.289 51.306,55.353 51.565,55.312 C 51.728,55.283 51.879,55.213 52.015,55.095 C 52.098,55.019 52.184,54.902 52.275,54.743 L 53.921,54.626 C 53.72,55.148 53.456,55.546 53.122,55.816 C 52.79,56.086 52.292,56.279 51.633,56.396 C 51.06,56.496 50.603,56.484 50.254,56.361 C 49.911,56.238 49.611,56.004 49.353,55.652 C 49.101,55.301 48.95,54.861 48.899,54.334 C 48.82,53.584 48.978,52.945 49.368,52.406 C 49.754,51.867 50.326,51.533 51.09,51.398 C 51.71,51.293 52.207,51.31 52.589,51.457 C 52.964,51.598 53.27,51.855 53.497,52.213 C 53.721,52.576 53.864,53.068 53.929,53.701 L 53.951,53.912 M 52.178,53.326 C 52.106,52.974 51.997,52.734 51.843,52.605 C 51.688,52.476 51.493,52.435 51.27,52.47 C 51.003,52.517 50.805,52.67 50.671,52.927 C 50.586,53.092 50.542,53.314 50.542,53.607 L 52.178,53.326 M 54.175,49.119 L 55.846,48.826 L 56.076,51.118 C 56.221,50.895 56.395,50.72 56.595,50.59 C 56.797,50.455 57.028,50.367 57.28,50.32 C 57.807,50.232 58.264,50.367 58.649,50.725 C 59.04,51.082 59.27,51.656 59.348,52.441 C 59.398,52.963 59.363,53.438 59.247,53.859 C 59.131,54.287 58.941,54.621 58.683,54.867 C 58.427,55.113 58.124,55.265 57.785,55.324 C 57.497,55.377 57.223,55.353 56.963,55.26 C 56.772,55.178 56.553,55.008 56.307,54.75 L 56.379,55.459 L 54.83,55.729 L 54.175,49.119 M 56.253,53.033 C 56.293,53.443 56.395,53.73 56.553,53.888 C 56.711,54.052 56.895,54.111 57.111,54.076 C 57.309,54.041 57.469,53.918 57.583,53.719 C 57.699,53.514 57.735,53.192 57.691,52.764 C 57.655,52.383 57.561,52.119 57.414,51.961 C 57.262,51.808 57.093,51.75 56.906,51.779 C 56.682,51.821 56.51,51.944 56.383,52.154 C 56.257,52.365 56.214,52.658 56.253,53.033 M 59.925,49.974 L 61.478,49.704 L 61.554,50.483 C 61.673,50.12 61.803,49.862 61.95,49.704 C 62.095,49.552 62.286,49.452 62.52,49.411 C 62.765,49.37 63.039,49.406 63.348,49.523 L 62.963,50.923 C 62.757,50.864 62.6,50.847 62.484,50.864 C 62.267,50.906 62.109,51.034 62.006,51.251 C 61.862,51.562 61.83,52.101 61.906,52.863 L 62.064,54.468 L 60.4,54.762 L 59.925,49.974 M 68.922,53.279 L 67.372,53.549 L 67.297,52.77 C 67.101,53.133 66.887,53.397 66.663,53.573 C 66.443,53.749 66.158,53.866 65.821,53.93 C 65.365,54.006 64.992,53.918 64.704,53.66 C 64.415,53.402 64.239,52.963 64.177,52.33 L 63.874,49.288 L 65.539,48.996 L 65.799,51.627 C 65.828,51.932 65.901,52.137 66.016,52.243 C 66.127,52.354 66.275,52.389 66.455,52.36 C 66.656,52.324 66.809,52.214 66.918,52.02 C 67.027,51.832 67.061,51.522 67.017,51.083 L 66.79,48.78 L 68.447,48.493 L 68.922,53.279 M 71.117,49.605 L 69.516,49.693 C 69.545,49.377 69.607,49.119 69.704,48.925 C 69.797,48.732 69.945,48.55 70.142,48.38 C 70.288,48.263 70.489,48.152 70.748,48.058 C 71.008,47.958 71.293,47.882 71.604,47.829 C 72.099,47.741 72.502,47.706 72.808,47.712 C 73.119,47.724 73.382,47.806 73.6,47.97 C 73.757,48.081 73.885,48.251 73.994,48.486 C 74.098,48.72 74.164,48.949 74.187,49.177 L 74.394,51.292 C 74.416,51.515 74.449,51.691 74.484,51.814 C 74.524,51.937 74.597,52.089 74.704,52.271 L 73.148,52.541 C 73.073,52.43 73.027,52.342 72.995,52.283 C 72.973,52.219 72.941,52.125 72.909,51.99 C 72.715,52.26 72.515,52.459 72.312,52.594 C 72.03,52.782 71.699,52.905 71.309,52.975 C 70.794,53.063 70.39,52.998 70.094,52.782 C 69.799,52.565 69.634,52.26 69.596,51.874 C 69.56,51.511 69.627,51.194 69.795,50.924 C 69.964,50.654 70.304,50.421 70.811,50.215 C 71.42,49.969 71.814,49.805 71.994,49.716 C 72.17,49.629 72.363,49.517 72.557,49.394 C 72.535,49.165 72.478,49.019 72.385,48.943 C 72.293,48.866 72.138,48.849 71.925,48.884 C 71.654,48.931 71.455,49.013 71.33,49.135 C 71.236,49.229 71.161,49.382 71.117,49.605 M 72.654,50.314 C 72.431,50.449 72.201,50.566 71.965,50.683 C 71.636,50.835 71.431,50.976 71.352,51.082 C 71.268,51.199 71.237,51.322 71.248,51.451 C 71.263,51.591 71.321,51.703 71.422,51.779 C 71.518,51.85 71.658,51.879 71.834,51.844 C 72.019,51.815 72.186,51.733 72.335,51.61 C 72.483,51.481 72.584,51.34 72.638,51.188 C 72.691,51.03 72.703,50.843 72.683,50.614 L 72.654,50.314 M 75.033,47.343 L 76.587,47.073 L 76.662,47.858 C 76.781,47.495 76.911,47.232 77.056,47.079 C 77.202,46.92 77.389,46.821 77.625,46.78 C 77.87,46.738 78.143,46.78 78.455,46.897 L 78.067,48.292 C 77.866,48.233 77.705,48.216 77.591,48.239 C 77.371,48.274 77.216,48.403 77.115,48.626 C 76.97,48.931 76.939,49.47 77.014,50.237 L 77.171,51.843 L 75.509,52.13 L 75.033,47.343 M 78.725,46.704 L 80.476,46.399 L 81.682,49.429 L 82.198,46.1 L 83.831,45.813 L 82.621,51.228 C 82.482,51.85 82.321,52.277 82.138,52.518 C 81.878,52.858 81.457,53.075 80.867,53.18 C 80.628,53.221 80.258,53.244 79.749,53.262 L 79.493,52.003 C 79.738,52.049 80.009,52.044 80.304,51.991 C 80.498,51.956 80.65,51.88 80.763,51.763 C 80.875,51.64 80.961,51.446 81.018,51.177 L 78.725,46.704"
   style="fill:url(#XMLID_15_);fill-rule:evenodd"
   id="path5181" />
			</g><path
   d="M 128,128 L 0,128 L 0,0 L 128,0 L 128,128 z "
   style="fill:none"
   id="path5208" />
</svg>