<?xml version="1.0" encoding="UTF-8" standalone="no"?>
<!-- Created with Inkscape (http://www.inkscape.org/) -->
<svg
   xmlns:svg="http://www.w3.org/2000/svg"
   xmlns="http://www.w3.org/2000/svg"
   version="1.0"
   width="32mm"
   height="32mm"
   viewBox="0.044 -0.333 79 121"
   id="svg14309"
   xml:space="preserve"><defs
   id="defs14424" />



	<g
   id="Layer_1_2_">
		<g
   id="g14313">
			<g
   id="g14315">
				<linearGradient
   x1="49.1436"
   y1="102.543"
   x2="-8.5381002"
   y2="49.627899"
   id="XMLID_1_"
   gradientUnits="userSpaceOnUse">
					<stop
   style="stop-color:#c58300;stop-opacity:1"
   offset="0"
   id="stop14319" />

					<stop
   style="stop-color:#ffca00;stop-opacity:1"
   offset="0.69099998"
   id="stop14321" />

					<stop
   style="stop-color:#fdc700;stop-opacity:1"
   offset="0.7985"
   id="stop14323" />

					<stop
   style="stop-color:#f6bf00;stop-opacity:1"
   offset="0.86500001"
   id="stop14325" />

					<stop
   style="stop-color:#ebb000;stop-opacity:1"
   offset="0.92049998"
   id="stop14327" />

					<stop
   style="stop-color:#da9c00;stop-opacity:1"
   offset="0.96950001"
   id="stop14329" />

					<stop
   style="stop-color:#cd8b00;stop-opacity:1"
   offset="1"
   id="stop14331" />

				</linearGradient>

				<path
   d="M 68.536,99.929 C 68.682,98.89 68.76,97.827 68.76,96.746 L 68.76,79.259 C 68.76,67.306 59.534,57.616 48.154,57.616 L 31.505,57.616 C 20.124,57.616 10.899,67.305 10.899,79.259 L 10.899,96.746 C 10.899,97.744 10.969,98.725 11.093,99.685 C 4.869,101.788 1.072,104.583 1.072,107.653 C 1.072,114.185 18.261,119.48 39.464,119.48 C 60.667,119.48 77.857,114.185 77.857,107.653 C 77.857,104.701 74.345,102.001 68.536,99.929 z "
   style="fill:url(#XMLID_1_)"
   id="path14334" />

				<linearGradient
   x1="52.352501"
   y1="111.482"
   x2="5.4924002"
   y2="64.621803"
   id="XMLID_2_"
   gradientUnits="userSpaceOnUse">
					<stop
   style="stop-color:#ff8100;stop-opacity:1"
   offset="0"
   id="stop14338" />

					<stop
   style="stop-color:yellow;stop-opacity:1"
   offset="0.69099998"
   id="stop14340" />

					<stop
   style="stop-color:#fffc00;stop-opacity:1"
   offset="0.77689999"
   id="stop14342" />

					<stop
   style="stop-color:#fff400;stop-opacity:1"
   offset="0.8301"
   id="stop14344" />

					<stop
   style="stop-color:#ffe500;stop-opacity:1"
   offset="0.87449998"
   id="stop14346" />

					<stop
   style="stop-color:#ffd100;stop-opacity:1"
   offset="0.91390002"
   id="stop14348" />

					<stop
   style="stop-color:#ffb600;stop-opacity:1"
   offset="0.9501"
   id="stop14350" />

					<stop
   style="stop-color:#ff9600;stop-opacity:1"
   offset="0.9835"
   id="stop14352" />

					<stop
   style="stop-color:#ff8300;stop-opacity:1"
   offset="1"
   id="stop14354" />

				</linearGradient>

				<path
   d="M 58.487,99.58 C 58.61,98.569 58.675,97.535 58.675,96.483 L 58.675,79.471 C 58.675,67.843 50.917,58.416 41.348,58.416 L 27.35,58.416 C 17.781,58.416 10.024,67.843 10.024,79.471 L 10.024,96.483 C 10.024,97.454 10.083,98.408 10.187,99.343 C 4.954,101.388 1.761,104.108 1.761,107.094 C 1.761,113.448 16.215,118.599 34.043,118.599 C 51.873,118.599 66.326,113.449 66.326,107.094 C 66.326,104.222 63.371,101.596 58.487,99.58 z "
   style="fill:url(#XMLID_2_)"
   id="path14357" />

				<linearGradient
   x1="0.7773"
   y1="54.559101"
   x2="92.487"
   y2="149.017"
   id="XMLID_3_"
   gradientUnits="userSpaceOnUse">
					<stop
   style="stop-color:#bb4900;stop-opacity:1"
   offset="0"
   id="stop14361" />

					<stop
   style="stop-color:#4e0000;stop-opacity:1"
   offset="1"
   id="stop14363" />

				</linearGradient>

				<path
   d="M 31.505,56.544 C 19.551,56.544 9.825,66.735 9.825,79.259 L 9.825,96.746 C 9.825,97.472 9.874,98.218 9.945,98.97 C 3.457,101.305 0,104.294 0,107.654 C 0,111.378 4.15,114.624 12.002,117.044 C 19.353,119.307 29.106,120.555 39.465,120.555 C 49.824,120.555 59.577,119.307 66.929,117.044 C 74.781,114.624 78.931,111.378 78.931,107.654 C 78.931,104.425 75.718,101.526 69.689,99.229 C 69.775,98.401 69.834,97.569 69.834,96.747 L 69.834,79.259 C 69.834,66.735 60.109,56.544 48.154,56.544 L 31.505,56.544 z M 2.146,107.654 C 2.146,105.231 5.532,102.698 11.437,100.703 C 11.921,100.539 12.224,100.057 12.158,99.549 C 12.035,98.599 11.972,97.655 11.972,96.747 L 11.972,79.259 C 11.972,67.917 20.734,58.69 31.505,58.69 L 48.153,58.69 C 58.924,58.69 67.686,67.918 67.686,79.259 L 67.686,96.746 C 67.686,97.75 67.615,98.77 67.473,99.779 C 67.403,100.283 67.696,100.767 68.175,100.938 C 73.646,102.891 76.784,105.338 76.784,107.653 C 76.784,112.74 61.457,118.408 39.464,118.408 C 17.472,118.409 2.146,112.741 2.146,107.654 z "
   style="fill:url(#XMLID_3_)"
   id="path14366" />

				<linearGradient
   x1="26.9419"
   y1="71.049301"
   x2="28.9979"
   y2="147.119"
   id="XMLID_4_"
   gradientUnits="userSpaceOnUse">
					<stop
   style="stop-color:white;stop-opacity:1"
   offset="0.0056"
   id="stop14370" />

					<stop
   style="stop-color:#fffae1;stop-opacity:1"
   offset="0.1471"
   id="stop14372" />

					<stop
   style="stop-color:#ffee94;stop-opacity:1"
   offset="0.4562"
   id="stop14374" />

					<stop
   style="stop-color:#ffdb1a;stop-opacity:1"
   offset="0.90689999"
   id="stop14376" />

					<stop
   style="stop-color:#ffd700;stop-opacity:1"
   offset="1"
   id="stop14378" />

				</linearGradient>

				<path
   d="M 19.229,107.094 C 19.229,104.108 22.685,101.388 28.351,99.343 C 28.238,98.407 28.175,97.453 28.175,96.483 L 28.175,79.471 C 28.175,67.843 36.573,58.416 46.933,58.416 L 35.287,58.416 C 24.927,58.416 16.528,67.843 16.528,79.471 L 16.528,96.483 C 16.528,97.454 16.592,98.408 16.705,99.343 C 11.039,101.388 7.583,104.108 7.583,107.094 C 7.583,113.448 23.231,118.599 42.533,118.599 C 44.518,118.599 46.461,118.542 48.356,118.438 C 31.828,117.525 19.229,112.795 19.229,107.094 z "
   style="fill:url(#XMLID_4_)"
   id="path14381" />

				<linearGradient
   x1="34.5522"
   y1="56.7285"
   x2="19.1793"
   y2="44.958599"
   id="XMLID_5_"
   gradientUnits="userSpaceOnUse">
					<stop
   style="stop-color:black;stop-opacity:1"
   offset="0"
   id="stop14385" />

					<stop
   style="stop-color:#b86f08;stop-opacity:1"
   offset="1"
   id="stop14387" />

				</linearGradient>

				<path
   d="M 56.602,60.932 C 56.602,64.833 49.189,67.996 40.042,67.996 C 30.896,67.996 23.483,64.833 23.483,60.932 C 23.483,57.029 30.897,53.866 40.042,53.866 C 49.188,53.866 56.602,57.029 56.602,60.932 z "
   style="opacity:0.2;fill:url(#XMLID_5_)"
   id="path14390" />

				<linearGradient
   x1="51.360401"
   y1="32.784698"
   x2="32.254398"
   y2="32.784698"
   id="XMLID_6_"
   gradientUnits="userSpaceOnUse">
					<stop
   style="stop-color:#744426;stop-opacity:1"
   offset="0"
   id="stop14394" />

					<stop
   style="stop-color:#ffb800;stop-opacity:1"
   offset="1"
   id="stop14396" />

				</linearGradient>

				<path
   d="M 43.83,50.52 L 43.83,44.76 C 47.518,41.177 50.087,33.199 50.087,23.926 C 50.087,11.305 45.332,1.072 39.466,1.072 C 33.599,1.072 28.843,11.304 28.843,23.926 C 28.843,33.199 31.411,41.176 35.1,44.76 L 35.1,50.52 C 29.296,51.44 25.091,54.145 25.091,57.341 C 25.091,61.294 31.526,64.498 39.465,64.498 C 47.404,64.498 53.839,61.294 53.839,57.341 C 53.839,54.145 49.634,51.439 43.83,50.52 z "
   style="fill:url(#XMLID_6_)"
   id="path14399" />

				<linearGradient
   x1="30.611799"
   y1="28.181601"
   x2="2.3663001"
   y2="6.5560002"
   id="XMLID_7_"
   gradientUnits="userSpaceOnUse">
					<stop
   style="stop-color:#561e00;stop-opacity:1"
   offset="0"
   id="stop14403" />

					<stop
   style="stop-color:#b86f08;stop-opacity:1"
   offset="1"
   id="stop14405" />

				</linearGradient>

				<path
   d="M 27.77,23.926 C 27.77,32.909 30.217,41.162 34.027,45.182 C 34.027,45.79 34.027,48.498 34.027,49.646 C 28.016,50.824 24.018,53.838 24.018,57.34 C 24.018,61.955 30.803,65.57 39.464,65.57 C 48.126,65.57 54.911,61.955 54.911,57.34 C 54.911,53.839 50.913,50.824 44.902,49.646 C 44.902,48.498 44.902,45.79 44.902,45.182 C 48.713,41.161 51.159,32.909 51.159,23.926 C 51.16,10.509 46.023,0 39.466,0 C 32.907,0 27.77,10.509 27.77,23.926 z M 26.164,57.34 C 26.164,54.839 29.993,52.415 35.269,51.579 C 35.79,51.496 36.174,51.047 36.174,50.519 L 36.174,44.759 C 36.174,44.469 36.056,44.191 35.848,43.989 C 32.244,40.489 29.916,32.614 29.916,23.925 C 29.916,12.119 34.289,2.145 39.466,2.145 C 44.642,2.145 49.014,12.119 49.014,23.925 C 49.014,32.613 46.686,40.489 43.082,43.989 C 42.874,44.191 42.757,44.469 42.757,44.759 L 42.757,50.519 C 42.757,51.046 43.141,51.496 43.662,51.579 C 48.937,52.415 52.766,54.839 52.766,57.34 C 52.766,60.278 47.421,63.424 39.464,63.424 C 31.509,63.424 26.164,60.279 26.164,57.34 z "
   style="fill:url(#XMLID_7_)"
   id="path14408" />

			</g>

			<linearGradient
   x1="35.267601"
   y1="-1.293"
   x2="35.267601"
   y2="59.627998"
   id="XMLID_8_"
   gradientUnits="userSpaceOnUse">
				<stop
   style="stop-color:white;stop-opacity:1"
   offset="0.103448"
   id="stop14413" />

				<stop
   style="stop-color:white;stop-opacity:0"
   offset="1"
   id="stop14415" />

			</linearGradient>

			<path
   d="M 31.589,57.593 C 31.589,54.51 35.117,51.901 39.986,51.013 L 39.986,45.457 C 36.891,42 34.736,34.305 34.736,25.359 C 34.736,14.507 37.906,5.493 42.08,3.66 C 41.571,3.437 41.048,3.313 40.513,3.313 C 35.591,3.313 31.601,13.184 31.601,25.359 C 31.601,34.305 33.756,42 36.851,45.457 L 36.851,51.013 C 31.982,51.9 28.454,54.51 28.454,57.593 C 28.454,61.406 33.852,64.497 40.513,64.497 C 41.046,64.497 41.565,64.471 42.08,64.432 C 36.163,63.992 31.589,61.102 31.589,57.593 z "
   style="fill:url(#XMLID_8_)"
   id="path14418" />

		</g>

	</g>

</svg>