<?xml version="1.0" encoding="UTF-8" standalone="no"?>
<!-- Created with Inkscape (http://www.inkscape.org/) -->
<svg
   xmlns:a="http://ns.adobe.com/AdobeSVGViewerExtensions/3.0/"
   xmlns:dc="http://purl.org/dc/elements/1.1/"
   xmlns:cc="http://web.resource.org/cc/"
   xmlns:rdf="http://www.w3.org/1999/02/22-rdf-syntax-ns#"
   xmlns:svg="http://www.w3.org/2000/svg"
   xmlns="http://www.w3.org/2000/svg"
   xmlns:sodipodi="http://sodipodi.sourceforge.net/DTD/sodipodi-0.dtd"
   xmlns:inkscape="http://www.inkscape.org/namespaces/inkscape"
   version="1.0"
   width="128"
   height="128"
   viewBox="0 0 128 128"
   id="svg172"
   xml:space="preserve"
   sodipodi:version="0.32"
   inkscape:version="0.44.1"
   sodipodi:docname="cdr.svg"
   sodipodi:docbase="/home/qt-devel/projects/Memory/svg"><metadata
   id="metadata138"><rdf:RDF><cc:Work
       rdf:about=""><dc:format>image/svg+xml</dc:format><dc:type
         rdf:resource="http://purl.org/dc/dcmitype/StillImage" /></cc:Work></rdf:RDF></metadata><sodipodi:namedview
   inkscape:window-height="583"
   inkscape:window-width="988"
   inkscape:pageshadow="2"
   inkscape:pageopacity="0.0"
   guidetolerance="10.0"
   gridtolerance="10.0"
   objecttolerance="10.0"
   borderopacity="1.0"
   bordercolor="#666666"
   pagecolor="#ffffff"
   id="base"
   inkscape:zoom="2.953125"
   inkscape:cx="64"
   inkscape:cy="64"
   inkscape:window-x="284"
   inkscape:window-y="0"
   inkscape:current-layer="svg172" /><defs
   id="defs305">
		
		
		
		
		
		
	</defs>
	<g
   id="g233"
   transform="matrix(1.320856,0,0,1.320856,-24.22866,-22.87899)">
			<linearGradient
   x1="66.894501"
   y1="117.3809"
   x2="66.894501"
   y2="16.567499"
   id="XMLID_5_"
   gradientUnits="userSpaceOnUse">
				<stop
   style="stop-color:white;stop-opacity:1"
   offset="0"
   id="stop236" />
				<stop
   style="stop-color:#c6e5d9;stop-opacity:1"
   offset="0.17020001"
   id="stop238" />
				<stop
   style="stop-color:#80c6ab;stop-opacity:1"
   offset="0.3969"
   id="stop240" />
				<stop
   style="stop-color:#49ae86;stop-opacity:1"
   offset="0.60149997"
   id="stop242" />
				<stop
   style="stop-color:#219c6c;stop-opacity:1"
   offset="0.7766"
   id="stop244" />
				<stop
   style="stop-color:#09915c;stop-opacity:1"
   offset="0.91509998"
   id="stop246" />
				<stop
   style="stop-color:#008d56;stop-opacity:1"
   offset="1"
   id="stop248" />
				<a:midPointStop
   offset="0"
   style="stop-color:#FFFFFF" />
				<a:midPointStop
   offset="0.4"
   style="stop-color:#FFFFFF" />
				<a:midPointStop
   offset="1"
   style="stop-color:#008D56" />
			</linearGradient>
			<path
   d="M 85.86,66.427 C 97.628,67.335 103.308,73.54 109.685,83.414 C 111.728,86.578 114.006,90.342 114.282,94.204 C 110.926,95.191 107.435,95.522 103.947,95.496 C 101.985,94.108 99.652,93.048 97.189,93.291 C 91.005,93.903 85.31,104.563 79.089,98.036 C 72.344,90.957 76.879,75.107 64.541,72.24 C 64.541,74.15 62.776,78.587 62.491,81.425 C 62.021,86.093 66.127,89.033 67.508,93.116 C 73.137,109.764 54.179,99.537 47.892,103.582 C 44.482,105.775 41.971,108.981 37.851,109.978 C 32.751,111.212 32.27,102.828 32.41,98.573 C 32.574,93.556 33.711,88.61 34.964,83.771 C 36.602,77.447 41.834,78.722 44.515,73.532 C 40.761,71.779 40.744,70.259 41.932,67.072 C 36.849,67.072 22.582,82.281 19.506,67.995 C 16.998,56.347 39.439,59.804 44.515,59.321 C 44.515,55.113 37.387,54.613 33.816,52.163 C 29.714,49.349 26.297,45.377 24.829,40.56 C 23.209,35.247 22.979,29.526 29.658,28.96 C 31.455,30.785 33.532,31.933 36.118,32.189 C 36.683,30.358 37.576,29.277 39.545,29.042 C 45.168,28.37 48.802,35.063 51.159,39.205 C 52.221,41.072 56.453,52.241 58.727,47.693 C 62.915,41.797 56.453,33.51 59.938,27.365 C 62.465,22.911 65.659,25.49 69.063,26.375 C 71.467,21.844 73.888,20.733 78.751,21.854 C 81.533,26.431 84.622,31.175 84.143,36.806 C 83.555,43.701 76.414,46.335 75.521,52.861 C 83.519,52.861 92.594,43.688 100.635,48.586 C 105.656,51.643 105.146,57.03 100.715,59.968 C 94.486,64.916 83.168,54.303 79.398,59.968 C 84.327,59.642 86.119,61.355 85.86,66.427"
   style="fill:url(#XMLID_5_);fill-rule:evenodd"
   id="path250" />
			<linearGradient
   x1="66.248001"
   y1="125.458"
   x2="66.248001"
   y2="61.5238"
   id="XMLID_6_"
   gradientUnits="userSpaceOnUse">
				<stop
   style="stop-color:white;stop-opacity:1"
   offset="0"
   id="stop253" />
				<stop
   style="stop-color:#cde9de;stop-opacity:1"
   offset="0.0797"
   id="stop255" />
				<stop
   style="stop-color:#9dd3be;stop-opacity:1"
   offset="0.16769999"
   id="stop257" />
				<stop
   style="stop-color:#73c0a2;stop-opacity:1"
   offset="0.26100001"
   id="stop259" />
				<stop
   style="stop-color:#4fb18b;stop-opacity:1"
   offset="0.35789999"
   id="stop261" />
				<stop
   style="stop-color:#33a477;stop-opacity:1"
   offset="0.45950001"
   id="stop263" />
				<stop
   style="stop-color:#1c9a69;stop-opacity:1"
   offset="0.56739998"
   id="stop265" />
				<stop
   style="stop-color:#0c925e;stop-opacity:1"
   offset="0.68440002"
   id="stop267" />
				<stop
   style="stop-color:#038e58;stop-opacity:1"
   offset="0.81709999"
   id="stop269" />
				<stop
   style="stop-color:#008d56;stop-opacity:1"
   offset="1"
   id="stop271" />
				<a:midPointStop
   offset="0"
   style="stop-color:#FFFFFF" />
				<a:midPointStop
   offset="0.2316"
   style="stop-color:#FFFFFF" />
				<a:midPointStop
   offset="1"
   style="stop-color:#008D56" />
			</linearGradient>
			<path
   d="M 84.533,66.935 C 95.88,67.812 101.356,73.793 107.504,83.314 C 109.474,86.365 111.671,89.994 111.936,93.717 C 108.701,94.667 105.335,94.988 101.972,94.962 C 100.08,93.624 97.831,92.601 95.456,92.837 C 89.495,93.426 84.004,103.704 78.006,97.41 C 71.503,90.586 75.876,75.305 63.98,72.54 C 63.98,74.382 62.279,78.658 62.003,81.394 C 61.55,85.896 65.509,88.73 66.84,92.667 C 72.267,108.717 53.989,98.857 47.927,102.756 C 44.64,104.872 42.219,107.963 38.247,108.924 C 33.33,110.113 32.866,102.029 33,97.928 C 33.159,93.091 34.255,88.323 35.462,83.657 C 37.041,77.559 42.086,78.789 44.671,73.786 C 41.051,72.095 41.035,70.629 42.18,67.557 C 37.28,67.557 23.525,82.22 20.559,68.446 C 18.141,57.216 39.777,60.549 44.671,60.084 C 44.671,56.027 37.798,55.544 34.356,53.183 C 30.402,50.47 27.107,46.641 25.691,41.997 C 24.129,36.873 23.908,31.359 30.346,30.813 C 32.079,32.572 34.08,33.679 36.575,33.925 C 37.119,32.16 37.98,31.118 39.879,30.891 C 45.3,30.243 48.804,36.696 51.077,40.689 C 52.101,42.489 56.181,53.257 58.374,48.874 C 62.411,43.189 56.181,35.199 59.541,29.275 C 61.978,24.981 65.057,27.467 68.34,28.32 C 70.657,23.952 72.99,22.88 77.68,23.961 C 80.363,28.374 83.34,32.947 82.878,38.377 C 82.311,45.024 75.426,47.564 74.565,53.856 C 82.276,53.856 91.026,45.013 98.779,49.734 C 103.619,52.682 103.129,57.876 98.856,60.708 C 92.849,65.478 81.939,55.247 78.303,60.708 C 83.056,60.394 84.783,62.045 84.533,66.935"
   style="fill:url(#XMLID_6_);fill-rule:evenodd"
   id="path273" />
		</g><path
   d="M 97,21 C 96.465,22.516 96.325,22.693 96,25 C 97.766,25.961 97.68,26.257 100,27 C 100,26.333 100,25.667 100,25 C 99.197,23.82 99.227,23.319 99,21 C 98.334,21 97.666,21 97,21 z "
   style="fill:none"
   id="path275" /><path
   d="M 49,32 C 49,34 49,36 49,38 C 49.667,38 50.333,38 51,38 C 51,37.667 51,37.333 51,37 C 51.803,35.82 51.773,35.319 52,33 C 51,32.667 50,32.333 49,32 z "
   style="fill:none"
   id="path277" />
</svg>