<?xml version="1.0" encoding="UTF-8" standalone="no"?>
<!-- Created with Inkscape (http://www.inkscape.org/) -->
<svg
   xmlns:a="http://ns.adobe.com/AdobeSVGViewerExtensions/3.0/"
   xmlns:svg="http://www.w3.org/2000/svg"
   xmlns="http://www.w3.org/2000/svg"
   version="1.0"
   width="123"
   height="123"
   viewBox="0.08 0 123 123"
   id="svg56"
   xml:space="preserve"><defs
   id="defs267" />
	<g
   id="Layer_1_2_">
		<g
   id="g59">
			<g
   id="g61">
				<radialGradient
   cx="97.859901"
   cy="121.477"
   r="104.732"
   fx="97.859901"
   fy="121.477"
   id="XMLID_1_"
   gradientUnits="userSpaceOnUse">
					<stop
   style="stop-color:#3d6fc7;stop-opacity:1"
   offset="0"
   id="stop64" />
					<stop
   style="stop-color:#0d327e;stop-opacity:1"
   offset="1"
   id="stop66" />
				</radialGradient>
				<path
   d="M 61.654,0 C 27.656,0 0,27.658 0,61.656 C 0,95.653 27.656,123.313 61.654,123.313 C 95.654,123.313 123.312,95.653 123.312,61.656 C 123.312,27.658 95.654,0 61.654,0 z M 61.654,120.513 C 29.147,120.513 2.8,94.166 2.8,61.656 C 2.8,29.152 29.147,2.801 61.654,2.801 C 94.156,2.801 120.507,29.152 120.507,61.656 C 120.506,94.166 94.156,120.513 61.654,120.513 z "
   style="fill:url(#XMLID_1_)"
   id="path68" />
				<radialGradient
   cx="51.774899"
   cy="109.923"
   r="102.884"
   fx="51.774899"
   fy="109.923"
   id="XMLID_2_"
   gradientUnits="userSpaceOnUse">
					<stop
   style="stop-color:white;stop-opacity:1"
   offset="0"
   id="stop71" />
					<stop
   style="stop-color:#e6f9ff;stop-opacity:1"
   offset="0.1195"
   id="stop73" />
					<stop
   style="stop-color:#cef2ff;stop-opacity:1"
   offset="0.26460001"
   id="stop75" />
					<stop
   style="stop-color:#c5f0ff;stop-opacity:1"
   offset="0.35389999"
   id="stop77" />
					<stop
   style="stop-color:#1d74d9;stop-opacity:1"
   offset="1"
   id="stop79" />
				</radialGradient>
				<path
   d="M 61.654,2.289 C 28.865,2.289 2.289,28.869 2.289,61.656 C 2.289,94.448 28.865,121.024 61.654,121.024 C 94.438,121.024 121.018,94.448 121.018,61.656 C 121.018,28.869 94.438,2.289 61.654,2.289 z M 61.654,118.194 C 30.476,118.194 5.116,92.834 5.116,61.656 C 5.116,30.481 30.476,5.117 61.654,5.117 C 92.831,5.117 118.194,30.481 118.194,61.656 C 118.194,92.834 92.831,118.194 61.654,118.194 z "
   style="fill:url(#XMLID_2_);fill-rule:evenodd"
   id="path81" />
				<radialGradient
   cx="60.637199"
   cy="123.78"
   r="118.409"
   fx="60.637199"
   fy="123.78"
   id="XMLID_3_"
   gradientUnits="userSpaceOnUse">
					<stop
   style="stop-color:white;stop-opacity:1"
   offset="0"
   id="stop84" />
					<stop
   style="stop-color:#e6f9ff;stop-opacity:1"
   offset="0.0626"
   id="stop86" />
					<stop
   style="stop-color:#cef2ff;stop-opacity:1"
   offset="0.13860001"
   id="stop88" />
					<stop
   style="stop-color:#c5f0ff;stop-opacity:1"
   offset="0.18539999"
   id="stop90" />
					<stop
   style="stop-color:#1d74d9;stop-opacity:1"
   offset="1"
   id="stop92" />
				</radialGradient>
				<path
   d="M 61.654,118.194 C 30.476,118.194 5.116,92.834 5.116,61.656 C 5.116,30.481 30.476,5.117 61.654,5.117 C 92.831,5.117 118.194,30.481 118.194,61.656 C 118.194,92.834 92.831,118.194 61.654,118.194 z "
   style="fill:url(#XMLID_3_);fill-rule:evenodd"
   id="path94" />
				<linearGradient
   x1="58.834"
   y1="6.8710999"
   x2="58.834"
   y2="67.4841"
   id="XMLID_4_"
   gradientUnits="userSpaceOnUse">
					<stop
   style="stop-color:white;stop-opacity:1"
   offset="0.12069"
   id="stop97" />
					<stop
   style="stop-color:white;stop-opacity:0"
   offset="1"
   id="stop99" />
				</linearGradient>
				<path
   d="M 60.89,63.577 C 83.344,46.686 104.457,40.964 113.709,39.146 C 104.799,18.694 84.688,4.427 61.294,4.427 C 29.629,4.427 3.959,30.562 3.959,62.789 C 3.959,67.853 4.594,72.766 5.785,77.451 C 15.074,79.196 37.791,80.947 60.89,63.577 z "
   style="fill:url(#XMLID_4_)"
   id="path101" />
				<linearGradient
   x1="61.397499"
   y1="131.631"
   x2="61.397499"
   y2="76.262497"
   id="XMLID_5_"
   gradientUnits="userSpaceOnUse">
					<stop
   style="stop-color:white;stop-opacity:1"
   offset="0"
   id="stop104" />
					<stop
   style="stop-color:white;stop-opacity:0.005"
   offset="1"
   id="stop106" />
				</linearGradient>
				<path
   d="M 61.395,102.349 C 34.207,102.349 11.598,86.121 9.527,60.739 C 9.423,61.988 9.355,63.243 9.355,64.514 C 9.355,91.664 32.862,113.794 61.396,113.794 C 90.128,113.794 113.441,91.664 113.441,64.514 C 113.441,63.243 113.373,61.988 113.269,60.739 C 111.213,86.121 88.774,102.349 61.395,102.349 z "
   style="opacity:0.8;fill:url(#XMLID_5_)"
   id="path108" />
			</g>
			<radialGradient
   cx="92.120598"
   cy="114.014"
   r="89.389397"
   fx="92.120598"
   fy="114.014"
   id="XMLID_6_"
   gradientUnits="userSpaceOnUse">
				<stop
   style="stop-color:#3d6fc7;stop-opacity:1"
   offset="0"
   id="stop111" />
				<stop
   style="stop-color:#0d327e;stop-opacity:1"
   offset="1"
   id="stop113" />
				<a:midPointStop
   style="stop-color:#3D6FC7"
   offset="0" />
				<a:midPointStop
   style="stop-color:#3D6FC7"
   offset="0.5" />
				<a:midPointStop
   style="stop-color:#0D327E"
   offset="1" />
			</radialGradient>
			<path
   d="M 113.845,63.469 C 113.845,92.241 90.282,115.567 61.217,115.567 C 32.151,115.567 8.589,92.242 8.589,63.469 C 8.589,34.696 32.151,11.371 61.217,11.371 C 90.283,11.371 113.845,34.696 113.845,63.469 z "
   style="fill:url(#XMLID_6_)"
   id="path115" />
			<path
   d="M 113.486,61.687 C 113.486,90.499 90.13,113.859 61.316,113.859 C 32.5,113.859 9.14,90.499 9.14,61.687 C 9.14,32.87 32.5,9.51 61.316,9.51 C 90.129,9.51 113.486,32.87 113.486,61.687 z "
   style="fill:white"
   id="path117" />
			<linearGradient
   x1="61.3125"
   y1="78.630898"
   x2="61.3125"
   y2="27.233101"
   id="XMLID_7_"
   gradientUnits="userSpaceOnUse">
				<stop
   style="stop-color:white;stop-opacity:1"
   offset="0"
   id="stop120" />
				<stop
   style="stop-color:#fafcff;stop-opacity:1"
   offset="0.1814"
   id="stop122" />
				<stop
   style="stop-color:#eaf5ff;stop-opacity:1"
   offset="0.40720001"
   id="stop124" />
				<stop
   style="stop-color:#d1e9ff;stop-opacity:1"
   offset="0.6566"
   id="stop126" />
				<stop
   style="stop-color:#aed8ff;stop-opacity:1"
   offset="0.92119998"
   id="stop128" />
				<stop
   style="stop-color:#a2d2ff;stop-opacity:1"
   offset="1"
   id="stop130" />
			</linearGradient>
			<path
   d="M 61.308,113.508 C 32.732,113.508 9.489,90.261 9.489,61.683 C 9.489,33.111 32.733,9.862 61.308,9.862 C 89.883,9.862 113.135,33.111 113.135,61.683 C 113.135,90.261 89.883,113.508 61.308,113.508 z "
   style="fill:url(#XMLID_7_);fill-rule:evenodd"
   id="path132" />
			<linearGradient
   x1="59.049801"
   y1="14.1064"
   x2="59.049801"
   y2="67.530998"
   id="XMLID_8_"
   gradientUnits="userSpaceOnUse">
				<stop
   style="stop-color:white;stop-opacity:1"
   offset="0.114943"
   id="stop135" />
				<stop
   style="stop-color:white;stop-opacity:0"
   offset="1"
   id="stop137" />
			</linearGradient>
			<path
   d="M 60.859,64.086 C 80.565,49.199 99.095,44.154 107.216,42.555 C 99.395,24.533 81.749,11.953 61.21,11.953 C 33.416,11.953 10.884,34.991 10.884,63.394 C 10.884,67.861 11.441,72.186 12.489,76.319 C 20.643,77.854 40.583,79.397 60.859,64.086 z "
   style="fill:url(#XMLID_8_)"
   id="path139" />
			<g
   style="opacity:0.51999996"
   id="g141">
				<g
   id="g143">
					<radialGradient
   cx="45.454601"
   cy="86.845703"
   r="36.986698"
   fx="45.454601"
   fy="86.845703"
   id="XMLID_9_"
   gradientUnits="userSpaceOnUse"
   gradientTransform="translate(13.4141,11.7676)">
						<stop
   style="stop-color:#8bbbff;stop-opacity:1"
   offset="0"
   id="stop146" />
						<stop
   style="stop-color:#0d56ac;stop-opacity:1"
   offset="1"
   id="stop148" />
						<a:midPointStop
   style="stop-color:#8BBBFF"
   offset="0" />
						<a:midPointStop
   style="stop-color:#8BBBFF"
   offset="0.5" />
						<a:midPointStop
   style="stop-color:#0D56AC"
   offset="1" />
					</radialGradient>
					<path
   d="M 26.694,92.016 C 26.23,92.436 26.192,93.148 26.611,93.614 C 27.029,94.079 27.744,94.117 28.208,93.699 C 28.672,93.28 28.71,92.566 28.292,92.101 C 27.872,91.635 27.158,91.598 26.694,92.016 z M 26.609,31.322 C 26.192,31.785 26.229,32.501 26.693,32.92 C 27.157,33.338 27.873,33.3 28.29,32.836 C 28.708,32.371 28.672,31.656 28.207,31.238 C 27.744,30.82 27.027,30.857 26.609,31.322 z M 56.571,106.51 C 55.95,106.445 55.393,106.896 55.329,107.517 C 55.263,108.139 55.713,108.695 56.334,108.76 C 56.957,108.825 57.512,108.375 57.579,107.753 C 57.646,107.132 57.192,106.576 56.571,106.51 z M 30.055,27.877 C 29.591,28.294 29.554,29.009 29.971,29.474 C 30.389,29.938 31.106,29.975 31.57,29.557 C 32.034,29.139 32.072,28.424 31.654,27.959 C 31.235,27.497 30.52,27.458 30.055,27.877 z M 23.794,88.247 C 23.288,88.615 23.176,89.319 23.544,89.827 C 23.912,90.333 24.618,90.445 25.124,90.078 C 25.63,89.71 25.742,89.004 25.374,88.498 C 25.006,87.992 24.299,87.88 23.794,88.247 z M 17.888,72.124 C 17.916,71.98 17.916,71.828 17.884,71.676 C 17.82,71.37 17.637,71.119 17.394,70.962 C 17.151,70.804 16.848,70.739 16.542,70.804 C 15.93,70.934 15.542,71.533 15.671,72.146 C 15.739,72.468 15.942,72.722 16.204,72.877 C 16.44,73.017 16.723,73.079 17.012,73.019 C 17.471,72.921 17.805,72.558 17.888,72.124 z M 26.371,81.787 L 18.252,86.474 L 18.898,87.594 L 27.018,82.906 L 26.371,81.787 z M 33.592,98.545 C 33.224,99.052 33.335,99.757 33.842,100.125 C 34.348,100.492 35.054,100.381 35.422,99.875 C 35.788,99.369 35.677,98.663 35.172,98.295 C 34.666,97.927 33.957,98.039 33.592,98.545 z M 43.188,102.924 C 42.618,102.669 41.949,102.926 41.695,103.496 C 41.44,104.068 41.697,104.737 42.267,104.989 C 42.839,105.244 43.506,104.989 43.761,104.418 C 44.016,103.847 43.758,103.178 43.188,102.924 z M 47.515,104.584 C 46.921,104.392 46.283,104.717 46.091,105.311 C 45.897,105.906 46.223,106.544 46.816,106.737 C 47.413,106.929 48.049,106.606 48.243,106.011 C 48.437,105.416 48.11,104.778 47.515,104.584 z M 46.817,18.199 C 46.223,18.391 45.898,19.03 46.089,19.624 C 46.283,20.218 46.922,20.544 47.515,20.351 C 48.11,20.158 48.434,19.519 48.243,18.925 C 48.05,18.332 47.411,18.006 46.817,18.199 z M 51.993,105.784 C 51.382,105.654 50.782,106.045 50.653,106.655 C 50.522,107.267 50.912,107.867 51.522,107.997 C 52.135,108.127 52.734,107.738 52.865,107.126 C 52.996,106.516 52.604,105.915 51.993,105.784 z M 33.842,24.811 C 33.336,25.177 33.224,25.885 33.591,26.391 C 33.959,26.896 34.666,27.008 35.172,26.641 C 35.677,26.273 35.789,25.566 35.422,25.06 C 35.055,24.556 34.346,24.443 33.842,24.811 z M 52.192,17.022 C 51.986,16.934 51.76,16.887 51.524,16.938 C 51.482,16.947 51.451,16.974 51.411,16.987 C 51.226,17.048 51.073,17.152 50.947,17.287 C 50.703,17.548 50.571,17.906 50.651,18.281 C 50.781,18.892 51.383,19.282 51.993,19.153 C 52.146,19.12 52.285,19.058 52.405,18.974 C 52.768,18.722 52.963,18.269 52.865,17.81 C 52.786,17.435 52.52,17.162 52.192,17.022 z M 42.268,19.946 C 41.698,20.199 41.441,20.868 41.695,21.439 C 41.95,22.01 42.618,22.267 43.189,22.013 C 43.76,21.759 44.017,21.09 43.763,20.519 C 43.508,19.948 42.839,19.691 42.268,19.946 z M 40.923,96.813 L 36.235,104.93 L 37.355,105.577 L 42.043,97.458 L 40.923,96.813 z M 17.159,67.097 C 17.111,66.63 16.784,66.261 16.363,66.133 C 16.279,66.108 16.185,66.112 16.094,66.108 C 16.034,66.104 15.979,66.085 15.917,66.09 L 15.915,66.09 C 15.294,66.155 14.844,66.711 14.909,67.333 C 14.973,67.955 15.53,68.405 16.152,68.341 C 16.773,68.275 17.224,67.718 17.159,67.097 z M 29.971,95.461 C 29.554,95.927 29.589,96.639 30.055,97.059 C 30.52,97.478 31.233,97.441 31.652,96.976 C 32.069,96.511 32.032,95.796 31.569,95.378 C 31.104,94.959 30.389,94.996 29.971,95.461 z M 102.23,81.974 C 102.802,82.228 103.468,81.971 103.722,81.401 C 103.978,80.829 103.72,80.162 103.15,79.907 C 102.581,79.653 101.912,79.909 101.656,80.481 C 101.402,81.051 101.66,81.719 102.23,81.974 z M 87.134,19.357 L 86.015,18.711 L 81.327,26.83 L 82.448,27.476 L 87.134,19.357 z M 19.252,79.906 C 18.68,80.161 18.424,80.828 18.678,81.4 C 18.933,81.97 19.6,82.227 20.171,81.973 C 20.743,81.718 20.999,81.05 20.745,80.48 C 20.491,79.908 19.822,79.652 19.252,79.906 z M 105.12,37.814 L 104.473,36.694 L 96.356,41.381 L 97,42.502 L 105.12,37.814 z M 98.609,36.689 C 99.113,36.321 99.226,35.613 98.857,35.108 C 98.491,34.603 97.783,34.491 97.277,34.857 C 96.773,35.225 96.66,35.933 97.027,36.438 C 97.394,36.943 98.103,37.056 98.609,36.689 z M 105.244,57.839 C 105.248,57.88 105.27,57.911 105.278,57.949 C 105.395,58.509 105.905,58.907 106.486,58.846 C 106.487,58.846 106.487,58.846 106.488,58.846 C 106.954,58.797 107.322,58.473 107.451,58.051 C 107.486,57.936 107.489,57.812 107.486,57.686 C 107.485,57.658 107.497,57.632 107.494,57.603 L 107.494,57.603 L 107.494,57.603 C 107.477,57.448 107.431,57.303 107.359,57.175 C 107.263,57.003 107.117,56.876 106.952,56.775 C 106.746,56.648 106.508,56.57 106.249,56.597 C 105.627,56.661 105.177,57.218 105.244,57.839 z M 104.513,52.812 C 104.485,52.957 104.486,53.109 104.518,53.262 C 104.548,53.406 104.61,53.534 104.686,53.649 C 104.936,54.024 105.392,54.232 105.859,54.132 L 105.86,54.132 L 105.861,54.132 C 106.166,54.067 106.416,53.884 106.573,53.642 C 106.73,53.4 106.796,53.096 106.73,52.79 C 106.601,52.18 105.999,51.789 105.389,51.918 C 104.93,52.016 104.596,52.379 104.513,52.812 z M 104.044,47.357 C 103.449,47.551 103.123,48.189 103.316,48.783 C 103.511,49.377 104.148,49.702 104.743,49.51 C 105.337,49.317 105.661,48.678 105.468,48.084 C 105.277,47.491 104.637,47.165 104.044,47.357 z M 103.15,45.03 C 103.72,44.775 103.978,44.106 103.722,43.535 C 103.47,42.965 102.8,42.708 102.23,42.962 C 101.66,43.217 101.402,43.885 101.656,44.456 C 101.912,45.026 102.581,45.284 103.15,45.03 z M 16.542,54.133 C 17.154,54.263 17.754,53.872 17.885,53.261 C 18.016,52.65 17.624,52.049 17.014,51.919 C 16.402,51.79 15.802,52.18 15.672,52.791 C 15.541,53.401 15.931,54.002 16.542,54.133 z M 15.915,58.846 C 16.536,58.911 17.093,58.46 17.159,57.839 C 17.225,57.218 16.773,56.661 16.153,56.595 C 15.53,56.53 14.974,56.981 14.909,57.602 C 14.843,58.224 15.294,58.781 15.915,58.846 z M 17.657,49.51 C 18.252,49.703 18.89,49.377 19.083,48.783 C 19.277,48.189 18.951,47.551 18.358,47.357 C 17.763,47.164 17.125,47.49 16.932,48.084 C 16.739,48.678 17.064,49.316 17.657,49.51 z M 42.042,26.83 L 37.355,18.711 L 36.234,19.357 L 40.922,27.475 L 42.042,26.83 z M 21.281,61.498 L 11.906,61.498 L 11.906,62.791 L 21.281,62.791 L 21.281,61.498 z M 25.374,36.438 C 25.742,35.933 25.63,35.225 25.124,34.857 C 24.62,34.491 23.911,34.603 23.544,35.108 C 23.176,35.612 23.288,36.32 23.794,36.688 C 24.3,37.056 25.007,36.944 25.374,36.438 z M 27.018,41.382 L 18.898,36.695 L 18.252,37.815 L 26.37,42.502 L 27.018,41.382 z M 18.678,43.535 C 18.424,44.106 18.68,44.775 19.25,45.03 C 19.822,45.284 20.49,45.027 20.744,44.456 C 21,43.885 20.742,43.217 20.172,42.962 C 19.601,42.708 18.932,42.965 18.678,43.535 z M 19.083,76.152 C 18.89,75.557 18.251,75.232 17.658,75.426 C 17.063,75.618 16.739,76.255 16.932,76.851 C 17.125,77.446 17.763,77.771 18.357,77.578 C 18.951,77.385 19.277,76.746 19.083,76.152 z M 87.231,98.295 C 86.726,98.662 86.612,99.37 86.981,99.875 C 87.349,100.381 88.053,100.492 88.561,100.124 C 89.067,99.759 89.178,99.05 88.811,98.545 C 88.444,98.04 87.735,97.926 87.231,98.295 z M 90.749,27.96 C 90.332,28.425 90.368,29.141 90.834,29.559 C 91.298,29.976 92.014,29.939 92.433,29.475 C 92.85,29.01 92.812,28.294 92.346,27.878 C 91.883,27.458 91.167,27.497 90.749,27.96 z M 81.328,97.459 L 86.016,105.578 L 87.135,104.931 L 82.449,96.813 L 81.328,97.459 z M 71.421,106.098 C 71.163,105.847 70.804,105.71 70.427,105.785 C 70.419,105.786 70.413,105.784 70.406,105.785 C 69.949,105.884 69.615,106.246 69.532,106.679 C 69.505,106.823 69.505,106.975 69.537,107.127 C 69.666,107.739 70.266,108.128 70.878,107.998 C 71.49,107.868 71.88,107.269 71.749,106.656 C 71.702,106.429 71.575,106.249 71.421,106.098 z M 86.979,25.061 C 86.614,25.566 86.724,26.275 87.231,26.642 C 87.737,27.009 88.446,26.896 88.813,26.392 C 89.178,25.886 89.067,25.178 88.559,24.812 C 88.055,24.443 87.347,24.556 86.979,25.061 z M 74.886,104.584 C 74.291,104.778 73.965,105.416 74.158,106.011 C 74.351,106.606 74.99,106.929 75.585,106.737 C 76.18,106.545 76.503,105.906 76.311,105.311 C 76.118,104.717 75.479,104.392 74.886,104.584 z M 74.884,20.351 C 75.479,20.544 76.117,20.219 76.311,19.624 C 76.503,19.03 76.178,18.391 75.585,18.199 C 74.99,18.006 74.35,18.331 74.158,18.925 C 73.965,19.52 74.292,20.158 74.884,20.351 z M 79.212,22.012 C 79.782,22.266 80.45,22.01 80.706,21.438 C 80.96,20.868 80.702,20.198 80.132,19.945 C 79.563,19.691 78.892,19.947 78.638,20.517 C 78.384,21.089 78.642,21.758 79.212,22.012 z M 79.214,102.924 C 78.642,103.178 78.384,103.847 78.64,104.418 C 78.894,104.989 79.563,105.244 80.134,104.989 C 80.704,104.737 80.96,104.068 80.706,103.496 C 80.453,102.926 79.784,102.669 79.214,102.924 z M 90.833,95.378 C 90.369,95.795 90.329,96.513 90.75,96.976 C 91.168,97.441 91.881,97.478 92.347,97.058 C 92.811,96.642 92.849,95.925 92.43,95.461 C 92.012,94.997 91.295,94.958 90.833,95.378 z M 106.486,66.091 C 105.865,66.025 105.307,66.476 105.244,67.098 C 105.18,67.718 105.628,68.275 106.251,68.34 C 106.872,68.405 107.426,67.956 107.494,67.334 C 107.558,66.711 107.107,66.155 106.486,66.091 z M 105.859,70.804 C 105.249,70.674 104.649,71.064 104.518,71.676 C 104.389,72.286 104.777,72.887 105.389,73.018 C 106,73.148 106.599,72.758 106.73,72.147 C 106.861,71.533 106.47,70.934 105.859,70.804 z M 104.744,75.427 C 104.149,75.233 103.513,75.558 103.317,76.153 C 103.126,76.747 103.45,77.385 104.045,77.579 C 104.64,77.773 105.275,77.447 105.469,76.852 C 105.662,76.256 105.337,75.619 104.744,75.427 z M 94.11,92.101 C 93.694,92.565 93.73,93.282 94.196,93.699 C 94.66,94.117 95.374,94.079 95.793,93.613 C 96.211,93.151 96.174,92.434 95.707,92.016 C 95.243,91.599 94.527,91.634 94.11,92.101 z M 102.091,61.498 L 102.091,62.791 L 111.465,62.791 L 111.465,61.498 L 102.091,61.498 z M 94.194,31.238 C 93.73,31.656 93.692,32.372 94.11,32.837 C 94.529,33.301 95.245,33.338 95.709,32.92 C 96.174,32.502 96.211,31.786 95.791,31.322 C 95.375,30.857 94.658,30.82 94.194,31.238 z M 96.355,82.906 L 104.472,87.594 L 105.118,86.474 L 97,81.786 L 96.355,82.906 z M 97.027,88.498 C 96.662,89.003 96.771,89.712 97.279,90.077 C 97.785,90.445 98.489,90.333 98.859,89.826 C 99.226,89.322 99.114,88.613 98.607,88.247 C 98.101,87.88 97.394,87.991 97.027,88.498 z M 56.31,59.862 C 56.327,59.858 56.342,59.851 56.357,59.847 L 56.35,59.84 C 56.337,59.848 56.323,59.854 56.31,59.862 z M 61.04,111.924 L 62.334,111.924 L 62.334,102.55 L 61.04,102.55 L 61.04,111.924 z M 57.793,58.098 C 57.81,58.101 57.826,58.101 57.842,58.103 L 57.838,58.093 C 57.823,58.097 57.808,58.095 57.793,58.098 z M 56.893,16.277 C 56.721,16.202 56.536,16.155 56.336,16.176 L 56.336,16.176 L 56.335,16.176 C 56.024,16.209 55.757,16.364 55.575,16.59 C 55.392,16.815 55.295,17.109 55.328,17.42 C 55.394,18.042 55.951,18.492 56.572,18.427 C 56.756,18.407 56.916,18.336 57.061,18.242 C 57.397,18.024 57.606,17.644 57.577,17.221 C 57.576,17.208 57.582,17.197 57.58,17.183 L 57.58,17.183 C 57.535,16.762 57.256,16.434 56.893,16.277 z M 61.04,21.739 L 62.334,21.739 L 62.334,12.365 L 61.04,12.365 L 61.04,21.739 z M 56.609,59.365 C 56.626,59.362 56.641,59.358 56.658,59.355 L 56.65,59.347 C 56.638,59.354 56.623,59.358 56.609,59.365 z M 63.58,57.5 C 63.595,57.495 63.611,57.49 63.625,57.484 C 63.609,57.486 63.596,57.489 63.582,57.489 L 63.58,57.5 z M 56.959,58.902 C 56.975,58.901 56.991,58.898 57.008,58.897 L 57.001,58.889 C 56.988,58.895 56.973,58.896 56.959,58.902 z M 57.355,58.479 C 57.371,58.48 57.387,58.479 57.404,58.479 L 57.398,58.47 C 57.385,58.474 57.369,58.474 57.355,58.479 z M 70.407,19.151 C 71.019,19.281 71.62,18.891 71.75,18.279 C 71.879,17.668 71.489,17.067 70.879,16.938 C 70.268,16.808 69.665,17.198 69.536,17.808 C 69.407,18.42 69.797,19.021 70.407,19.151 z M 66.043,59.847 C 66.06,59.851 66.075,59.858 66.09,59.862 C 66.077,59.854 66.064,59.848 66.052,59.84 L 66.043,59.847 z M 65.744,59.355 C 65.76,59.358 65.776,59.362 65.792,59.365 C 65.778,59.359 65.764,59.354 65.752,59.346 L 65.744,59.355 z M 66.068,16.177 C 65.445,16.112 64.886,16.562 64.822,17.183 C 64.758,17.805 65.209,18.361 65.83,18.427 C 66.451,18.493 67.008,18.042 67.074,17.42 C 67.138,16.798 66.687,16.241 66.068,16.177 z M 65.394,58.897 C 65.409,58.898 65.425,58.901 65.443,58.902 C 65.427,58.897 65.413,58.894 65.4,58.888 L 65.394,58.897 z M 64.56,58.104 C 64.576,58.102 64.592,58.101 64.607,58.099 C 64.592,58.098 64.578,58.098 64.564,58.095 L 64.56,58.104 z M 64.998,58.479 C 65.014,58.479 65.03,58.479 65.047,58.479 C 65.03,58.476 65.018,58.474 65.004,58.47 L 64.998,58.479 z M 64.085,57.776 C 64.101,57.772 64.118,57.77 64.132,57.766 C 64.116,57.766 64.102,57.767 64.089,57.766 L 64.085,57.776 z M 65.83,106.51 C 65.209,106.575 64.758,107.132 64.824,107.753 C 64.888,108.375 65.445,108.825 66.066,108.76 C 66.687,108.695 67.138,108.139 67.074,107.517 C 67.041,107.194 66.87,106.922 66.63,106.741 C 66.408,106.571 66.128,106.479 65.83,106.51 z "
   style="fill:url(#XMLID_9_)"
   id="path150" />
				</g>
			</g>
			<radialGradient
   cx="92.233902"
   cy="112.773"
   r="89.4422"
   fx="92.233902"
   fy="112.773"
   id="XMLID_10_"
   gradientUnits="userSpaceOnUse">
				<stop
   style="stop-color:#8bbbff;stop-opacity:1"
   offset="0"
   id="stop153" />
				<stop
   style="stop-color:#0d56ac;stop-opacity:1"
   offset="1"
   id="stop155" />
				<a:midPointStop
   style="stop-color:#8BBBFF"
   offset="0" />
				<a:midPointStop
   style="stop-color:#8BBBFF"
   offset="0.5" />
				<a:midPointStop
   style="stop-color:#0D56AC"
   offset="1" />
			</radialGradient>
			<path
   d="M 8.655,61.687 C 8.655,90.722 32.279,114.343 61.316,114.343 C 90.349,114.343 113.97,90.722 113.97,61.687 C 113.97,32.65 90.349,9.025 61.316,9.025 C 32.279,9.025 8.655,32.649 8.655,61.687 z M 9.625,61.687 C 9.625,33.184 32.813,9.995 61.316,9.995 C 89.815,9.995 113.002,33.184 113.002,61.687 C 113.002,90.188 89.815,113.374 61.316,113.374 C 32.813,113.373 9.625,90.188 9.625,61.687 z "
   style="fill:url(#XMLID_10_)"
   id="path157" />
			<g
   id="g159">
				<g
   id="g161">
				</g>
			</g>
			<g
   id="g163">
				<text
   transform="translate(54.896,31.1138)"
   id="text165"> <tspan
   x="0"
   y="0"
   style="font-size:11.63669968px;font-family:ArialMT"
   id="tspan167">12</tspan>          </text>

				<text
   transform="translate(77.2007,36.2852)"
   id="text169"> <tspan
   x="0"
   y="0"
   style="font-size:11.63669968px;font-family:ArialMT"
   id="tspan171">1</tspan>          </text>

				<text
   transform="translate(89.4849,48.8916)"
   id="text173"> <tspan
   x="0"
   y="0"
   style="font-size:11.63669968px;font-family:ArialMT"
   id="tspan175">2</tspan>          </text>

				<text
   transform="translate(93.686,66.1045)"
   id="text177"> <tspan
   x="0"
   y="0"
   style="font-size:11.63669968px;font-family:ArialMT"
   id="tspan179">3</tspan>          </text>

				<text
   transform="translate(89.1616,84.7715)"
   id="text181"> <tspan
   x="0"
   y="0"
   style="font-size:11.63669968px;font-family:ArialMT"
   id="tspan183">4</tspan>          </text>

				<text
   transform="translate(76.8784,96.4082)"
   id="text185"> <tspan
   x="0"
   y="0"
   style="font-size:11.63669968px;font-family:ArialMT"
   id="tspan187">5</tspan>          </text>

				<text
   transform="translate(58.1318,100.772)"
   id="text189"> <tspan
   x="0"
   y="0"
   style="font-size:11.63669968px;font-family:ArialMT"
   id="tspan191">6</tspan>          </text>

				<text
   transform="translate(40.2715,95.4385)"
   id="text193"> <tspan
   x="0"
   y="0"
   style="font-size:11.63669968px;font-family:ArialMT"
   id="tspan195">7</tspan>          </text>

				<text
   transform="translate(27.665,82.5898)"
   id="text197"> <tspan
   x="0"
   y="0"
   style="font-size:11.63669968px;font-family:ArialMT"
   id="tspan199">8</tspan>          </text>

				<text
   transform="translate(23.5439,66.1045)"
   id="text201"> <tspan
   x="0"
   y="0"
   style="font-size:11.63669968px;font-family:ArialMT"
   id="tspan203">9</tspan>          </text>

				<text
   transform="translate(26.2104,47.1943)"
   id="text205"> <tspan
   x="0"
   y="0"
   style="font-size:11.63669968px;font-family:ArialMT"
   id="tspan207">10</tspan>          </text>

				<text
   transform="translate(39.0596,35.8003)"
   id="text209"> <tspan
   x="0"
   y="0"
   style="font-size:11.63669968px;font-family:ArialMT"
   id="tspan211">11</tspan>          </text>

			</g>
			<g
   id="g213">
				<g
   id="g215">
					<path
   d="M 91.424,25.954 L 93.264,27.503 L 59.501,67.596 L 57.662,66.047 L 91.424,25.954 z "
   style="fill:#1a0c80"
   id="path217" />
					<path
   d="M 91.254,26.44 L 92.131,27.178 L 58.99,66.535 L 58.113,65.797 L 91.254,26.44 z "
   style="fill:#6065ac"
   id="path219" />
				</g>
				<g
   id="g221">
					<path
   d="M 68.509,58.528 L 69.185,61.764 L 37.811,68.317 L 37.135,65.081 L 68.509,58.528 z "
   style="fill:#1a0c80"
   id="path223" />
					<path
   d="M 68.272,58.835 L 68.594,60.379 L 37.798,66.81 L 37.475,65.269 L 68.272,58.835 z "
   style="fill:#6065ac"
   id="path225" />
				</g>
				<g
   id="g227">
					<path
   d="M 84.72,103.999 L 61.437,57.054 C 62.184,56.42 62.346,55.131 61.767,53.962 L 57.231,44.814 C 56.653,43.651 55.535,43 54.582,43.2 C 55.352,43.328 56.126,43.912 56.573,44.813 L 61.111,53.961 C 61.691,55.13 61.527,56.419 60.781,57.053 L 84.063,103.998 C 84.364,104.602 84.174,105.308 83.64,105.572 C 83.608,105.588 83.574,105.593 83.541,105.605 C 83.791,105.688 84.055,105.691 84.295,105.572 C 84.83,105.309 85.019,104.604 84.72,103.999 z "
   style="fill:#ffac66"
   id="path229" />
					<path
   d="M 84.063,103.999 L 60.781,57.054 C 61.526,56.42 61.69,55.131 61.111,53.962 L 56.573,44.814 C 56.126,43.913 55.352,43.329 54.582,43.201 C 54.45,43.229 54.321,43.272 54.198,43.333 L 53.844,43.509 L 52.961,43.947 C 51.944,44.452 51.65,45.934 52.306,47.258 L 56.844,56.406 C 57.285,57.297 58.043,57.883 58.802,58.02 C 58.818,58.017 58.833,58.018 58.848,58.015 L 58.851,58.025 C 59.072,58.059 59.292,58.061 59.503,58.015 L 82.786,104.96 C 82.921,105.231 83.137,105.425 83.378,105.544 C 83.431,105.57 83.487,105.589 83.542,105.607 C 83.574,105.595 83.608,105.589 83.641,105.574 C 84.174,105.309 84.364,104.604 84.063,103.999 z "
   style="fill:#ff8166"
   id="path231" />
				</g>
				<g
   id="g233">
					<linearGradient
   x1="62.320801"
   y1="70.019501"
   x2="62.320801"
   y2="61.907299"
   id="XMLID_11_"
   gradientUnits="userSpaceOnUse">
						<stop
   style="stop-color:white;stop-opacity:1"
   offset="0"
   id="stop236" />
						<stop
   style="stop-color:#007eff;stop-opacity:1"
   offset="0.84829998"
   id="stop238" />
						<stop
   style="stop-color:#0086ff;stop-opacity:1"
   offset="1"
   id="stop240" />
						<a:midPointStop
   style="stop-color:#FFFFFF"
   offset="0" />
						<a:midPointStop
   style="stop-color:#FFFFFF"
   offset="0.5" />
						<a:midPointStop
   style="stop-color:#007EFF"
   offset="0.8483" />
						<a:midPointStop
   style="stop-color:#007EFF"
   offset="0.5" />
						<a:midPointStop
   style="stop-color:#0086FF"
   offset="1" />
					</linearGradient>
					<path
   d="M 66.668,61.604 C 66.668,64.004 64.722,65.951 62.32,65.951 C 59.921,65.951 57.973,64.005 57.973,61.604 C 57.973,59.203 59.92,57.257 62.32,57.257 C 64.722,57.258 66.668,59.204 66.668,61.604 z "
   style="fill:url(#XMLID_11_)"
   id="path242" />
					<linearGradient
   x1="64.6548"
   y1="63.625999"
   x2="55.907501"
   y2="56.046902"
   id="XMLID_12_"
   gradientUnits="userSpaceOnUse">
						<stop
   style="stop-color:#000072;stop-opacity:1"
   offset="0"
   id="stop245" />
						<stop
   style="stop-color:#3995e5;stop-opacity:1"
   offset="1"
   id="stop247" />
						<a:midPointStop
   style="stop-color:#000072"
   offset="0" />
						<a:midPointStop
   style="stop-color:#000072"
   offset="0.5" />
						<a:midPointStop
   style="stop-color:#3995E5"
   offset="1" />
					</linearGradient>
					<path
   d="M 57.768,61.604 C 57.768,64.115 59.811,66.157 62.321,66.157 C 64.833,66.157 66.875,64.115 66.875,61.604 C 66.875,59.093 64.833,57.05 62.321,57.05 C 59.812,57.051 57.768,59.094 57.768,61.604 z M 58.183,61.604 C 58.183,59.321 60.039,57.463 62.321,57.463 C 64.603,57.463 66.462,59.32 66.462,61.604 C 66.462,63.886 64.604,65.743 62.321,65.743 C 60.038,65.743 58.183,63.887 58.183,61.604 z "
   style="fill:url(#XMLID_12_)"
   id="path249" />
					<linearGradient
   x1="62.202599"
   y1="57.674801"
   x2="62.202599"
   y2="62.309101"
   id="XMLID_13_"
   gradientUnits="userSpaceOnUse">
						<stop
   style="stop-color:white;stop-opacity:1"
   offset="0"
   id="stop252" />
						<stop
   style="stop-color:#e9f4ff;stop-opacity:1"
   offset="0.1147"
   id="stop254" />
						<stop
   style="stop-color:#b0d9ff;stop-opacity:1"
   offset="0.35389999"
   id="stop256" />
						<stop
   style="stop-color:#57adff;stop-opacity:1"
   offset="0.6936"
   id="stop258" />
						<stop
   style="stop-color:#0083ff;stop-opacity:1"
   offset="1"
   id="stop260" />
						<a:midPointStop
   style="stop-color:#FFFFFF"
   offset="0" />
						<a:midPointStop
   style="stop-color:#FFFFFF"
   offset="0.5424" />
						<a:midPointStop
   style="stop-color:#0083FF"
   offset="1" />
					</linearGradient>
					<path
   d="M 62.339,61.771 C 63.853,60.654 65.277,60.275 65.901,60.154 C 65.298,58.801 63.945,57.856 62.368,57.856 C 60.234,57.856 58.505,59.585 58.505,61.719 C 58.505,62.055 58.547,62.38 58.628,62.69 C 59.253,62.806 60.783,62.921 62.339,61.771 z "
   style="fill:url(#XMLID_13_)"
   id="path262" />
				</g>
			</g>
		</g>
		<path
   d="M 33.337,102.059 C 37.45,102.64 42.142,99.19 44.385,94.184 C 44.132,90.315 42.004,87.371 38.604,86.894 C 34.81,86.363 30.554,89.056 27.936,93.25 C 27.475,97.821 29.585,101.532 33.337,102.059 z "
   style="fill:none"
   id="path264" />
	</g>
</svg>