<?xml version="1.0" encoding="UTF-8" standalone="no"?>
<!-- Created with Inkscape (http://www.inkscape.org/) -->
<svg
   xmlns:a="http://ns.adobe.com/AdobeSVGViewerExtensions/3.0/"
   xmlns:dc="http://purl.org/dc/elements/1.1/"
   xmlns:cc="http://web.resource.org/cc/"
   xmlns:rdf="http://www.w3.org/1999/02/22-rdf-syntax-ns#"
   xmlns:svg="http://www.w3.org/2000/svg"
   xmlns="http://www.w3.org/2000/svg"
   xmlns:sodipodi="http://sodipodi.sourceforge.net/DTD/sodipodi-0.dtd"
   xmlns:inkscape="http://www.inkscape.org/namespaces/inkscape"
   version="1.0"
   width="128"
   height="128"
   viewBox="0 0 128 128"
   id="svg531"
   xml:space="preserve"
   sodipodi:version="0.32"
   inkscape:version="0.44.1"
   sodipodi:docname="core.svg"
   sodipodi:docbase="/home/qt-devel/projects/Memory/svg"><metadata
   id="metadata408"><rdf:RDF><cc:Work
       rdf:about=""><dc:format>image/svg+xml</dc:format><dc:type
         rdf:resource="http://purl.org/dc/dcmitype/StillImage" /></cc:Work></rdf:RDF></metadata><sodipodi:namedview
   inkscape:window-height="583"
   inkscape:window-width="988"
   inkscape:pageshadow="2"
   inkscape:pageopacity="0.0"
   guidetolerance="10.0"
   gridtolerance="10.0"
   objecttolerance="10.0"
   borderopacity="1.0"
   bordercolor="#666666"
   pagecolor="#ffffff"
   id="base"
   inkscape:zoom="2.953125"
   inkscape:cx="64"
   inkscape:cy="77.360095"
   inkscape:window-x="284"
   inkscape:window-y="0"
   inkscape:current-layer="svg531" /><defs
   id="defs653">
		
		
		
		
		<linearGradient
   x1="-56.222198"
   y1="10.6514"
   x2="74.819504"
   y2="10.6514"
   id="XMLID_10_"
   gradientUnits="userSpaceOnUse">
			<stop
   style="stop-color:white;stop-opacity:1"
   offset="0"
   id="stop636" />
			<stop
   style="stop-color:black;stop-opacity:1"
   offset="1"
   id="stop638" />
			<a:midPointStop
   offset="0"
   style="stop-color:#FFFFFF" />
			<a:midPointStop
   offset="0.5"
   style="stop-color:#FFFFFF" />
			<a:midPointStop
   offset="1"
   style="stop-color:#000000" />
		</linearGradient>
		
		
	</defs>
	<g
   id="g565"
   transform="matrix(1.502874,0,0,1.502874,-30.07908,-35.12399)">
			<path
   d="M 85.227,101.465 C 85.227,104.831 72.831,107.56 57.54,107.56 C 42.249,107.56 29.854,104.831 29.854,101.465 C 29.854,98.1 42.25,95.371 57.54,95.371 C 72.831,95.371 85.227,98.1 85.227,101.465 z "
   style="opacity:0.2"
   id="path567" />
			<g
   id="g569">
				<path
   d="M 25.295,73.316 C 28.192,92.208 45.854,105.171 64.745,102.276 C 83.635,99.38 96.602,81.717 93.704,62.825 C 90.807,43.935 73.144,30.969 54.254,33.867 C 35.364,36.764 22.398,54.426 25.295,73.316 z "
   id="path571" />
				<linearGradient
   x1="81.659203"
   y1="106.4219"
   x2="65.150902"
   y2="77.685204"
   id="XMLID_4_"
   gradientUnits="userSpaceOnUse">
					<stop
   style="stop-color:white;stop-opacity:1"
   offset="0"
   id="stop574" />
					<stop
   style="stop-color:black;stop-opacity:1"
   offset="1"
   id="stop576" />
					<a:midPointStop
   offset="0"
   style="stop-color:#FFFFFF" />
					<a:midPointStop
   offset="0.5"
   style="stop-color:#FFFFFF" />
					<a:midPointStop
   offset="1"
   style="stop-color:#000000" />
				</linearGradient>
				<path
   d="M 87.853,62.416 C 93.999,72.335 88.585,86.812 75.765,94.755 C 62.947,102.696 47.573,101.094 41.428,91.175 C 35.284,81.255 40.696,66.778 53.516,58.836 C 66.335,50.896 81.707,52.497 87.853,62.416 z "
   style="opacity:0.6;fill:url(#XMLID_4_)"
   id="path578" />
				
					<linearGradient
   x1="159.3857"
   y1="-15.1636"
   x2="169.21809"
   y2="16.6926"
   id="XMLID_5_"
   gradientUnits="userSpaceOnUse"
   gradientTransform="matrix(0.9884,-0.1516,0.1516,0.9884,-111.1196,78.8027)">
					<stop
   style="stop-color:white;stop-opacity:1"
   offset="0"
   id="stop581" />
					<stop
   style="stop-color:black;stop-opacity:1"
   offset="1"
   id="stop583" />
					<a:midPointStop
   offset="0"
   style="stop-color:#FFFFFF" />
					<a:midPointStop
   offset="0.5"
   style="stop-color:#FFFFFF" />
					<a:midPointStop
   offset="1"
   style="stop-color:#000000" />
				</linearGradient>
				<path
   d="M 72.288,40.277 C 77.104,48.051 71.412,60.295 59.579,67.627 C 47.744,74.957 34.246,74.601 29.431,66.826 C 24.616,59.052 30.306,46.808 42.14,39.476 C 53.975,32.146 67.473,32.502 72.288,40.277 z "
   style="fill:url(#XMLID_5_)"
   id="path585" />
				<g
   id="g587">
					<g
   id="g589">
						<g
   id="g591">
							<path
   d="M 91.226,40.222 L 85.574,47.924 C 84.376,49.553 80.532,48.767 76.989,46.165 C 73.444,43.562 71.543,40.131 72.737,38.501 L 78.391,30.801 L 91.226,40.222 z "
   id="path593" />
						</g>
						<path
   d="M 78.391,30.801 C 77.194,32.43 79.099,35.862 82.642,38.464 C 86.186,41.066 90.03,41.853 91.226,40.222 C 92.424,38.593 90.52,35.161 86.976,32.559 C 83.431,29.958 79.587,29.169 78.391,30.801 z "
   id="path595" />
						<path
   d="M 79.575,31.67 C 78.599,32.999 80.152,35.797 83.043,37.918 C 85.931,40.039 89.064,40.682 90.04,39.352 C 91.017,38.022 89.466,35.226 86.576,33.104 C 83.686,30.982 80.552,30.342 79.575,31.67 z "
   style="fill:#f2f2f2"
   id="path597" />
					</g>
					
						<linearGradient
   x1="1203.7002"
   y1="-16.685499"
   x2="1204.8947"
   y2="-10.1153"
   id="XMLID_6_"
   gradientUnits="userSpaceOnUse"
   gradientTransform="matrix(0.9884,-0.1516,0.1516,0.9884,-1112.351,232.3334)">
						<stop
   style="stop-color:white;stop-opacity:1"
   offset="0"
   id="stop600" />
						<stop
   style="stop-color:black;stop-opacity:1"
   offset="1"
   id="stop602" />
						<a:midPointStop
   offset="0"
   style="stop-color:#FFFFFF" />
						<a:midPointStop
   offset="0.5"
   style="stop-color:#FFFFFF" />
						<a:midPointStop
   offset="1"
   style="stop-color:#000000" />
					</linearGradient>
					<path
   d="M 74.666,42.061 L 72.946,38.983 L 77.781,32.985 L 78.46,34.664 L 79.602,35.957 L 74.666,42.061 z "
   style="fill:url(#XMLID_6_)"
   id="path604" />
					<path
   d="M 96.402,24.704 C 95.898,25.187 95.881,25.988 96.365,26.493 C 97.027,27.185 98.083,28.485 97.694,29.419 C 97.316,30.323 95.685,30.955 94.398,30.978 C 93.531,30.947 92.659,30.728 91.816,30.515 C 89.512,29.934 86.643,29.211 84.676,34.182 C 84.419,34.832 84.736,35.567 85.387,35.824 C 86.035,36.081 86.772,35.764 87.028,35.114 C 88.178,32.208 88.939,32.4 91.199,32.969 C 92.126,33.203 93.177,33.468 94.378,33.508 C 96.524,33.472 99.159,32.482 100.029,30.394 C 100.523,29.207 100.605,27.264 98.191,24.745 C 97.708,24.238 96.907,24.22 96.402,24.704 z "
   style="fill:#ffcd00;fill-rule:evenodd"
   id="path606" />
				</g>
			</g>
		</g><path
   d="M 128,128 L 0,128 L 0,0 L 128,0 L 128,128 z "
   style="fill:none"
   id="path633" />
</svg>