<?xml version="1.0" encoding="UTF-8" standalone="no"?>
<!-- Created with Inkscape (http://www.inkscape.org/) -->
<svg
   xmlns:a="http://ns.adobe.com/AdobeSVGViewerExtensions/3.0/"
   xmlns:dc="http://purl.org/dc/elements/1.1/"
   xmlns:cc="http://web.resource.org/cc/"
   xmlns:rdf="http://www.w3.org/1999/02/22-rdf-syntax-ns#"
   xmlns:svg="http://www.w3.org/2000/svg"
   xmlns="http://www.w3.org/2000/svg"
   xmlns:sodipodi="http://sodipodi.sourceforge.net/DTD/sodipodi-0.dtd"
   xmlns:inkscape="http://www.inkscape.org/namespaces/inkscape"
   version="1.0"
   width="115"
   height="127"
   viewBox="0.164 -0.104 115 127"
   id="svg4648"
   xml:space="preserve"
   sodipodi:version="0.32"
   inkscape:version="0.44.1"
   sodipodi:docname="txt2.svg"
   sodipodi:docbase="/home/qt-devel/projects/Memory/svg"><metadata
   id="metadata3616"><rdf:RDF><cc:Work
       rdf:about=""><dc:format>image/svg+xml</dc:format><dc:type
         rdf:resource="http://purl.org/dc/dcmitype/StillImage" /></cc:Work></rdf:RDF></metadata><sodipodi:namedview
   inkscape:window-height="724"
   inkscape:window-width="1272"
   inkscape:pageshadow="2"
   inkscape:pageopacity="0.0"
   guidetolerance="10.0"
   gridtolerance="10.0"
   objecttolerance="10.0"
   borderopacity="1.0"
   bordercolor="#666666"
   pagecolor="#ffffff"
   id="base"
   inkscape:zoom="2.976378"
   inkscape:cx="57.5"
   inkscape:cy="63.5"
   inkscape:window-x="0"
   inkscape:window-y="0"
   inkscape:current-layer="svg4648" /><defs
   id="defs4910">
		
		<linearGradient
   x1="57.584499"
   y1="154.013"
   x2="57.584499"
   y2="-101.487"
   id="XMLID_1_"
   gradientUnits="userSpaceOnUse">
			<stop
   style="stop-color:white;stop-opacity:1"
   offset="0"
   id="stop4654" />
			<stop
   style="stop-color:#f6f6f6;stop-opacity:1"
   offset="0.2457"
   id="stop4656" />
			<stop
   style="stop-color:#dfdfdf;stop-opacity:1"
   offset="0.63739997"
   id="stop4658" />
			<stop
   style="stop-color:#c4c4c4;stop-opacity:1"
   offset="1"
   id="stop4660" />
		</linearGradient>
		
		<linearGradient
   x1="-32.669399"
   y1="-26.8853"
   x2="49.8298"
   y2="55.613998"
   id="XMLID_2_"
   gradientUnits="userSpaceOnUse">
			<stop
   style="stop-color:#b2b2b2;stop-opacity:1"
   offset="0"
   id="stop4665" />
			<stop
   style="stop-color:#828282;stop-opacity:1"
   offset="1"
   id="stop4667" />
			<a:midPointStop
   offset="0"
   style="stop-color:#B2B2B2" />
			<a:midPointStop
   offset="0.5"
   style="stop-color:#B2B2B2" />
			<a:midPointStop
   offset="1"
   style="stop-color:#828282" />
		</linearGradient>
		
		<linearGradient
   x1="36.687"
   y1="24.8696"
   x2="197.673"
   y2="110.514"
   id="XMLID_3_"
   gradientUnits="userSpaceOnUse">
			<stop
   style="stop-color:white;stop-opacity:1"
   offset="0"
   id="stop4672" />
			<stop
   style="stop-color:#dadada;stop-opacity:1"
   offset="0.8603"
   id="stop4674" />
			<stop
   style="stop-color:#d4d4d4;stop-opacity:1"
   offset="1"
   id="stop4676" />
		</linearGradient>
		
		<linearGradient
   x1="-10.1421"
   y1="10.0996"
   x2="121.178"
   y2="10.0996"
   id="XMLID_4_"
   gradientUnits="userSpaceOnUse">
			<stop
   style="stop-color:#b3caff;stop-opacity:1"
   offset="0"
   id="stop4681" />
			<stop
   style="stop-color:#0053bd;stop-opacity:1"
   offset="1"
   id="stop4683" />
			<a:midPointStop
   offset="0"
   style="stop-color:#B3CAFF" />
			<a:midPointStop
   offset="0.5"
   style="stop-color:#B3CAFF" />
			<a:midPointStop
   offset="1"
   style="stop-color:#0053BD" />
		</linearGradient>
		
		
		
		
		
	</defs>
	<path
   d="M 103.727,86.215 C 102.776,86.194 101.849,86.714 100.899,87.378 C 99.734,88.069 98.532,89.019 97.357,89.663 C 95.756,90.539 94.363,91.516 92.787,92.275 C 92.532,92.381 92.272,92.484 92.005,92.578 C 90.359,93.154 87.834,93.016 85.517,92.559 C 89.538,88.618 89.638,83.176 82.213,79.73 C 77.401,77.495 71.7,76.71 66.435,76.995 C 64.176,77.033 61.98,77.277 59.938,77.684 C 59.23,73.818 61.875,70.362 60.433,68.387 C 60.206,68.076 59.967,67.824 59.722,67.616 C 58.206,65.508 54.46,67.329 54.952,69.388 C 55.406,71.289 55.208,74.687 57.175,78.365 C 55.464,78.875 53.928,79.515 52.64,80.263 C 52.615,80.253 52.59,80.243 52.564,80.234 C 52.21,80.451 51.877,80.695 51.551,80.951 C 48.561,79.891 45.533,78.816 42.515,77.747 C 43.245,77.178 43.937,76.559 44.567,75.907 C 44.965,75.806 45.383,75.706 45.798,75.763 C 46.119,75.806 46.381,75.979 46.629,76.169 C 46.712,77.858 47.538,79.206 48.689,79.34 C 50.053,79.498 51.366,77.899 51.613,75.777 C 51.859,73.657 50.947,71.798 49.584,71.64 C 48.328,71.494 47.118,72.838 46.741,74.707 C 46.638,74.801 46.513,74.887 46.33,74.941 C 46.068,75.02 45.702,75.048 45.324,75.068 C 48.808,70.943 49.593,65.81 42.101,62.953 C 40.039,62.166 37.899,61.803 35.773,61.755 C 25.635,61.046 15.481,67.987 15.187,72.473 C 14.912,76.627 24.098,81.065 31.622,81.227 C 33.867,81.38 36.006,81.178 37.766,80.513 C 38.531,82.388 42.395,84.769 46.073,84.771 C 47.128,84.773 48.001,84.557 48.772,84.222 C 48.789,84.218 48.804,84.212 48.82,84.209 C 46.638,90.316 60.886,98.192 72.346,97.425 C 72.817,97.421 73.284,97.404 73.747,97.373 C 76.354,97.901 81.613,98.604 82.946,98.861 C 83.379,98.944 83.721,98.928 83.981,98.861 C 85.193,98.763 85.947,97.666 84.236,97.265 C 84.151,97.245 84.055,97.228 83.967,97.208 C 83.133,96.609 82.255,96.01 81.353,95.405 C 82.291,94.954 83.152,94.443 83.928,93.883 C 87.056,94.62 90.04,94.82 92.4,94.489 C 93.259,94.368 95.366,93.72 97.726,92.88 C 102.235,91.401 108.123,89.108 108.184,88.222 C 108.244,87.354 105.605,86.253 103.727,86.215 z M 50.115,77.343 C 49.711,78.081 49.147,78.531 48.58,78.465 C 47.922,78.389 47.43,77.639 47.257,76.612 C 47.263,76.615 47.268,76.618 47.274,76.622 C 47.558,77.347 48.069,77.855 48.707,77.929 C 49.215,77.988 49.71,77.761 50.115,77.343 z M 60.99,83.066 C 61.754,83.758 62.598,84.464 63.52,85.184 C 62.124,84.691 60.69,84.185 59.235,83.671 C 59.817,83.508 60.408,83.305 60.99,83.066 z M 58.938,82.96 C 58.598,83.063 58.266,83.149 57.949,83.217 C 57.824,83.173 57.699,83.129 57.574,83.085 C 57.988,83.089 58.451,83.045 58.938,82.96 z M 57.818,79.454 C 57.877,79.545 57.929,79.636 57.992,79.725 C 57.651,79.88 57.315,80.046 56.992,80.223 C 56.877,80.286 56.779,80.352 56.67,80.416 C 56.409,80.393 56.132,80.351 55.857,80.31 C 56.465,80 57.12,79.715 57.818,79.454 z M 55.978,82.52 C 55.796,82.456 55.613,82.391 55.431,82.326 C 55.573,82.052 55.839,81.741 56.22,81.417 C 55.894,81.837 55.805,82.223 55.978,82.52 z M 54.706,80.962 C 55.065,80.958 55.428,80.96 55.744,81.02 C 55.273,81.368 54.891,81.713 54.629,82.042 C 54.307,81.928 53.98,81.813 53.654,81.697 C 53.975,81.441 54.332,81.198 54.706,80.962 z M 38.444,78.567 C 37.831,78.924 37.21,79.24 36.595,79.505 C 35.166,80.117 33.425,80.36 31.574,80.322 C 24.94,79.841 17.367,76.006 17.605,72.404 C 17.627,72.072 17.713,71.722 17.85,71.364 C 19.09,71.591 20.636,71.827 21.739,72.002 C 21.724,72.025 21.71,72.048 21.695,72.07 C 26.972,73.938 32.88,76.038 38.91,78.184 C 38.74,78.311 38.587,78.438 38.444,78.567 z M 40.624,77.079 C 35.003,75.087 29.478,73.132 24.447,71.365 C 24.394,71.178 24.209,71.005 23.818,70.903 C 22.51,70.565 20.63,70.402 19.29,70.33 C 19.008,70.315 18.69,70.317 18.377,70.332 C 20.705,66.658 27.933,62.482 35.358,62.619 C 36.989,62.734 38.619,63.063 40.199,63.665 C 48.572,66.859 45.578,73.181 40.624,77.079 z M 48.245,83.316 C 47.968,83.367 47.68,83.406 47.371,83.418 C 44.348,83.53 41.422,81.581 40.942,80.049 C 40.823,79.672 40.86,79.297 40.994,78.927 C 44.023,80.006 47.066,81.088 50.066,82.156 C 49.503,82.599 48.917,83.011 48.245,83.316 z M 49.986,85.792 C 50.089,87.007 50.729,88.251 51.779,89.455 C 50.695,88.254 50.044,87.005 49.986,85.792 z M 73.141,96.56 C 72.784,96.605 72.423,96.639 72.059,96.665 C 61.526,96.732 49.223,89.564 51.677,84.1 C 51.851,83.712 52.091,83.338 52.375,82.977 C 53.097,83.235 53.82,83.493 54.531,83.746 C 54.633,83.82 54.75,83.89 54.897,83.945 C 55.081,84.015 55.293,84.066 55.527,84.099 C 60.03,85.7 64.337,87.227 68.202,88.591 C 71.393,90.791 74.887,93.047 78.132,95.258 C 76.62,95.88 74.939,96.335 73.141,96.56 z M 78.53,96.502 C 78.852,96.402 79.172,96.301 79.482,96.189 C 79.703,96.342 79.909,96.493 80.127,96.645 C 79.579,96.589 79.042,96.543 78.53,96.502 z M 79.865,94.431 C 77.902,93.15 75.862,91.862 73.851,90.577 C 76.654,91.558 79.078,92.399 80.967,93.042 C 81.205,93.123 81.444,93.19 81.682,93.265 C 81.128,93.683 80.517,94.072 79.865,94.431 z M 83.154,91.962 C 83.087,91.941 83.012,91.923 82.947,91.901 C 79.493,90.762 74.306,88.969 68.203,86.83 C 66.015,85.291 64.077,83.771 62.614,82.287 C 65.222,80.832 66.127,79.192 64.619,78.618 C 63.681,78.26 62.021,78.396 60.261,78.895 C 60.237,78.831 60.223,78.766 60.2,78.703 C 62.158,78.19 64.324,77.854 66.579,77.729 C 71.072,77.658 75.807,78.426 79.859,80.309 C 86.595,83.436 86.646,88.33 83.154,91.962 z "
   style="opacity:0.22999998;fill-rule:evenodd"
   id="path4695" /><g
   id="g4722"
   transform="matrix(1.199738,0,0,1.199738,-16.18422,-16.82556)">
			<g
   id="g4724">
				<g
   id="g4726">
					<linearGradient
   x1="-212.175"
   y1="505.69199"
   x2="-223.147"
   y2="482.164"
   id="XMLID_8_"
   gradientUnits="userSpaceOnUse"
   gradientTransform="translate(285.343,-423.543)">
						<stop
   style="stop-color:black;stop-opacity:1"
   offset="0"
   id="stop4729" />
						<stop
   style="stop-color:white;stop-opacity:1"
   offset="0.41"
   id="stop4731" />
						<stop
   style="stop-color:black;stop-opacity:1"
   offset="0.72000003"
   id="stop4733" />
						<stop
   style="stop-color:white;stop-opacity:1"
   offset="1"
   id="stop4735" />
					</linearGradient>
					<path
   d="M 21.489,58.398 C 41.921,67.649 71.48,81.324 82.787,86.154 C 87.087,87.99 91.283,87.966 94.309,86.399 C 96.668,85.178 108.714,73.752 108.652,71.171 C 108.614,69.438 105.865,67.869 103.994,68.225 C 102.126,68.579 100.595,73.041 98.677,75.744 C 96.754,78.446 95.2,81.41 93.085,83.452 C 90.9,85.556 86.86,85.349 84.011,84.191 C 72.733,79.595 43.513,66.055 22.837,56.801 C 22.673,57.456 21.653,57.744 21.489,58.398 z "
   style="fill:url(#XMLID_8_);fill-rule:evenodd"
   id="path4737" />
					<path
   d="M 20.878,59.134 C 41.31,68.386 70.868,82.06 82.176,86.891 C 86.476,88.726 90.672,88.701 93.698,87.136 C 96.059,85.912 107.737,74.242 107.674,71.662 C 107.632,69.926 105.619,68.484 103.753,68.838 C 101.882,69.191 99.985,73.778 98.065,76.481 C 96.142,79.182 94.588,82.145 92.473,84.188 C 90.291,86.292 86.248,86.085 83.402,84.926 C 72.123,80.331 42.044,66.422 21.368,57.171 C 21.206,57.823 21.042,58.478 20.878,59.134 z "
   style="fill-rule:evenodd"
   id="path4739" />
				</g>
				<linearGradient
   x1="-209.582"
   y1="483.285"
   x2="-209.92799"
   y2="501.83701"
   id="XMLID_9_"
   gradientUnits="userSpaceOnUse"
   gradientTransform="translate(310.472,-419.952)">
					<stop
   style="stop-color:white;stop-opacity:1"
   offset="0.25999999"
   id="stop4742" />
					<stop
   style="stop-color:black;stop-opacity:1"
   offset="0.74000001"
   id="stop4744" />
				</linearGradient>
				<path
   d="M 103.019,70.221 C 104.539,68.503 107.39,70.914 106.41,72.769 C 105.434,74.628 99.196,81.543 97.198,83.339 C 95.201,85.134 93.493,84.573 95.138,82.365 C 96.783,80.155 101.496,71.942 103.019,70.221 z "
   style="fill:url(#XMLID_9_);fill-rule:evenodd"
   id="path4746" />
			</g>
			<g
   id="g4748">
				<linearGradient
   x1="-286.22601"
   y1="483.35901"
   x2="-275.87799"
   y2="479.99701"
   id="XMLID_10_"
   gradientUnits="userSpaceOnUse"
   gradientTransform="matrix(0.6161,0,0,0.975,192.742,-411.772)">
					<stop
   style="stop-color:black;stop-opacity:1"
   offset="0.27000001"
   id="stop4751" />
					<stop
   style="stop-color:white;stop-opacity:1"
   offset="0.73000002"
   id="stop4753" />
				</linearGradient>
				<path
   d="M 18.289,56.254 C 19.629,56.088 21.515,55.981 22.853,56.346 C 24.19,56.715 23.441,59.147 22.428,58.987 C 21.414,58.824 17.584,58.576 16.219,58.03 C 14.854,57.485 16.95,56.417 18.289,56.254 z "
   style="fill:url(#XMLID_10_);fill-rule:evenodd"
   id="path4755" />
				<path
   d="M 17.641,56.858 C 19.093,56.72 21.922,56.682 22.681,57.31 C 23.44,57.938 23.12,59.298 22.121,59.119 C 21.12,58.94 16.879,58.78 15.402,58.328 C 13.926,57.877 16.192,56.995 17.641,56.858 z "
   style="fill-rule:evenodd"
   id="path4757" />
			</g>
			<g
   id="g4759">
				<linearGradient
   x1="-229.603"
   y1="499.24701"
   x2="-245.078"
   y2="466.06"
   id="XMLID_11_"
   gradientUnits="userSpaceOnUse">
					<stop
   style="stop-color:black;stop-opacity:1"
   offset="0.03"
   id="stop4762" />
					<stop
   style="stop-color:white;stop-opacity:1"
   offset="0.4154"
   id="stop4764" />
					<stop
   style="stop-color:black;stop-opacity:1"
   offset="0.70679998"
   id="stop4766" />
					<stop
   style="stop-color:white;stop-opacity:1"
   offset="0.97000003"
   id="stop4768" />
				</linearGradient>
				<path
   d="M 85.705,94.503 C 77.621,85.572 66.161,76.923 61.453,67.718 C 56.745,58.506 61.062,47.576 58.932,43.005 C 56.232,37.21 52.849,43.267 54.573,47.524 C 56.393,52.025 54.807,60.146 59.907,68.761 C 65.009,77.371 75.731,86.614 83.642,95.546 C 84.329,95.195 85.017,94.849 85.705,94.503 z "
   style="fill:url(#XMLID_11_);fill-rule:evenodd"
   id="path4770" />
				<path
   d="M 85.39,94.858 C 77.316,86.04 65.863,77.495 61.163,68.401 C 56.464,59.302 59.79,47.817 58.585,42.97 C 57.099,36.98 52.807,41.91 53.603,46.234 C 54.473,50.963 54.525,60.922 59.617,69.433 C 64.711,77.937 75.425,87.068 83.326,95.889 C 84.016,95.546 84.703,95.202 85.39,94.858 z "
   style="fill-rule:evenodd"
   id="path4772" />
				<linearGradient
   x1="56.348099"
   y1="31.9561"
   x2="55.882599"
   y2="56.859901"
   id="XMLID_12_"
   gradientUnits="userSpaceOnUse">
					<stop
   style="stop-color:white;stop-opacity:1"
   offset="0.25999999"
   id="stop4775" />
					<stop
   style="stop-color:black;stop-opacity:1"
   offset="0.74000001"
   id="stop4777" />
					<a:midPointStop
   offset="0.26"
   style="stop-color:#FFFFFF" />
					<a:midPointStop
   offset="0.5"
   style="stop-color:#FFFFFF" />
					<a:midPointStop
   offset="0.74"
   style="stop-color:#000000" />
				</linearGradient>
				<path
   d="M 54.157,44.705 C 54.157,43.56 54.844,41.205 56.116,40.991 C 57.388,40.775 57.767,42.582 58.076,44.005 C 58.386,45.425 58.106,58.979 57.028,60.062 C 55.949,61.141 56.539,60.039 56.189,59.008 C 55.837,57.978 54.157,45.851 54.157,44.705 z "
   style="fill:url(#XMLID_12_);fill-rule:evenodd"
   id="path4779" />
			</g>
			<g
   id="g4781">
				<path
   d="M 63.501,62.975 C 64.771,63.618 64.278,66.28 62.4,68.921 C 60.525,71.56 57.973,73.18 56.702,72.54 C 55.434,71.899 55.928,69.242 57.803,66.601 C 59.68,63.958 62.232,62.335 63.501,62.975 z "
   style="fill:white;fill-rule:evenodd"
   id="path4783" />
				<path
   d="M 64.271,62.208 C 65.854,63.004 65.114,66.515 62.622,70.019 C 60.131,73.521 56.811,75.733 55.229,74.933 C 53.647,74.135 54.391,70.624 56.881,67.121 C 59.371,63.616 62.691,61.41 64.271,62.208 M 63.329,63.074 C 64.429,63.627 63.679,66.399 61.658,69.245 C 59.638,72.086 57.091,73.953 55.993,73.399 C 54.896,72.845 55.649,70.072 57.668,67.229 C 59.691,64.385 62.233,62.52 63.329,63.074"
   style="fill:#699;fill-rule:evenodd"
   id="path4785" />
				<path
   d="M 62.36,65.568 C 63.104,65.944 62.72,67.633 61.506,69.342 C 60.291,71.053 58.705,72.135 57.962,71.759 C 57.221,71.384 57.602,69.696 58.818,67.988 C 60.032,66.279 61.619,65.196 62.36,65.568 z "
   style="fill:#699;fill-rule:evenodd"
   id="path4787" />
			</g>
			<g
   id="g4789">
				<g
   id="g4791">
					<linearGradient
   x1="-252.739"
   y1="498.397"
   x2="-240.521"
   y2="486.17899"
   id="XMLID_13_"
   gradientUnits="userSpaceOnUse"
   gradientTransform="matrix(0.8964,0,0,0.9444,267.24,-395.928)">
						<stop
   style="stop-color:white;stop-opacity:1"
   offset="0.23"
   id="stop4794" />
						<stop
   style="stop-color:black;stop-opacity:1"
   offset="0.3272"
   id="stop4796" />
						<stop
   style="stop-color:black;stop-opacity:1"
   offset="0.67820001"
   id="stop4798" />
						<stop
   style="stop-color:white;stop-opacity:1"
   offset="0.76999998"
   id="stop4800" />
						<a:midPointStop
   offset="0.23"
   style="stop-color:#FFFFFF" />
						<a:midPointStop
   offset="0.5"
   style="stop-color:#FFFFFF" />
						<a:midPointStop
   offset="0.3272"
   style="stop-color:#000000" />
						<a:midPointStop
   offset="0.5"
   style="stop-color:#000000" />
						<a:midPointStop
   offset="0.6782"
   style="stop-color:#000000" />
						<a:midPointStop
   offset="0.5"
   style="stop-color:#000000" />
						<a:midPointStop
   offset="0.77"
   style="stop-color:#FFFFFF" />
					</linearGradient>
					<path
   d="M 43.117,60.894 C 41.571,64.073 38.124,67.293 39.035,70.848 C 39.946,74.403 44.122,78.314 47.819,77.47 C 51.512,76.626 52.698,71.092 54.998,67.696 C 54.581,67.472 54.162,67.253 53.744,67.035 C 51.82,70.035 50.684,74.702 47.694,75.618 C 44.704,76.531 41.572,73.359 40.919,70.45 C 40.263,67.546 42.025,64.137 43.281,61.404 C 42.944,61.092 43.453,61.202 43.117,60.894 z "
   style="fill:url(#XMLID_13_);fill-rule:evenodd"
   id="path4802" />
					<path
   d="M 41.855,62.018 C 40.31,65.197 36.864,68.417 37.775,71.971 C 38.685,75.526 42.86,79.438 46.558,78.59 C 50.252,77.749 51.438,72.215 53.737,68.819 C 53.319,68.595 52.902,68.377 52.483,68.157 C 50.559,71.156 49.421,75.825 46.432,76.742 C 43.442,77.655 40.312,74.482 39.657,71.574 C 39.002,68.67 41.606,65.681 42.861,62.948 C 42.525,62.638 42.19,62.327 41.855,62.018 z "
   style="fill-rule:evenodd"
   id="path4804" />
				</g>
				<path
   d="M 42.822,62.02 C 43.531,62.236 44.357,60.858 45.246,60.894 C 46.137,60.925 46.702,63.01 47.583,62.192 C 48.465,61.377 48.788,58.828 48.623,57.768 C 48.456,56.711 47.423,56.956 46.804,57.248 C 46.185,57.541 46.298,58.627 45.679,59.156 C 45.06,59.685 43.779,59.76 43.255,60.284 C 42.73,60.812 42.113,61.804 42.822,62.02 z "
   style="fill-rule:evenodd"
   id="path4806" />
				<path
   d="M 53.159,69.185 C 53.778,69.681 55.147,68.641 56.017,69.032 C 56.889,69.421 56.619,71.714 57.82,71.256 C 59.022,70.796 60.362,68.396 60.619,67.276 C 60.875,66.159 59.751,65.99 59.019,66.035 C 58.287,66.081 57.966,67.203 57.14,67.481 C 56.312,67.759 55.011,67.321 54.282,67.632 C 53.55,67.942 52.542,68.685 53.159,69.185 z "
   style="fill-rule:evenodd"
   id="path4808" />
			</g>
			<g
   id="g4810">
				<linearGradient
   x1="-237.22"
   y1="508.729"
   x2="-211.76801"
   y2="483.27701"
   id="XMLID_14_"
   gradientUnits="userSpaceOnUse"
   gradientTransform="translate(294.294,-418.19)">
					<stop
   style="stop-color:white;stop-opacity:1"
   offset="0.23"
   id="stop4813" />
					<stop
   style="stop-color:black;stop-opacity:1"
   offset="0.3272"
   id="stop4815" />
					<stop
   style="stop-color:black;stop-opacity:1"
   offset="0.67820001"
   id="stop4817" />
					<stop
   style="stop-color:white;stop-opacity:1"
   offset="0.76999998"
   id="stop4819" />
				</linearGradient>
				<path
   d="M 50.662,75.838 C 48.558,89.035 65.129,102.216 76.695,96.593 C 88.258,90.97 94.265,68.489 81.877,60.372 C 69.487,52.253 52.763,62.641 50.662,75.838 M 52.049,75.974 C 50.098,88.207 65.456,100.422 76.177,95.209 C 86.892,89.998 92.458,69.165 80.976,61.642 C 69.496,54.118 53.997,63.746 52.049,75.974"
   style="fill:url(#XMLID_14_);fill-rule:evenodd"
   id="path4821" />
				<linearGradient
   x1="-263.51401"
   y1="490.56699"
   x2="-240.686"
   y2="467.73999"
   id="XMLID_15_"
   gradientUnits="userSpaceOnUse"
   gradientTransform="translate(283.487,-422.658)">
					<stop
   style="stop-color:white;stop-opacity:1"
   offset="0.23"
   id="stop4824" />
					<stop
   style="stop-color:black;stop-opacity:1"
   offset="0.3272"
   id="stop4826" />
					<stop
   style="stop-color:black;stop-opacity:1"
   offset="0.67820001"
   id="stop4828" />
					<stop
   style="stop-color:white;stop-opacity:1"
   offset="0.76999998"
   id="stop4830" />
				</linearGradient>
				<path
   d="M 15.443,61.282 C 15.176,50.793 28.099,30.45 40.095,36.497 C 52.092,42.543 45.133,63.803 38.168,71.735 C 31.202,79.665 15.705,71.77 15.443,61.282 M 16.855,60.728 C 16.614,51.19 28.365,32.695 39.272,38.19 C 50.181,43.69 43.853,63.023 37.52,70.234 C 31.185,77.447 17.094,70.266 16.855,60.728"
   style="fill:url(#XMLID_15_);fill-rule:evenodd"
   id="path4832" />
				<linearGradient
   x1="29.8755"
   y1="66.662102"
   x2="29.8755"
   y2="42.181801"
   id="XMLID_16_"
   gradientUnits="userSpaceOnUse">
					<stop
   style="stop-color:white;stop-opacity:1"
   offset="0"
   id="stop4835" />
					<stop
   style="stop-color:#f7fbff;stop-opacity:1"
   offset="0.0862"
   id="stop4837" />
					<stop
   style="stop-color:#e2f0ff;stop-opacity:1"
   offset="0.2177"
   id="stop4839" />
					<stop
   style="stop-color:#c0deff;stop-opacity:1"
   offset="0.3779"
   id="stop4841" />
					<stop
   style="stop-color:#8fc6ff;stop-opacity:1"
   offset="0.56089997"
   id="stop4843" />
					<stop
   style="stop-color:#52a6ff;stop-opacity:1"
   offset="0.76310003"
   id="stop4845" />
					<stop
   style="stop-color:#0880ff;stop-opacity:1"
   offset="0.97829998"
   id="stop4847" />
					<stop
   style="stop-color:#007cff;stop-opacity:1"
   offset="1"
   id="stop4849" />
				</linearGradient>
				<path
   d="M 15.872,60.867 C 15.63,51.33 27.382,32.831 38.289,38.33 C 49.199,43.83 42.872,63.159 36.536,70.373 C 30.203,77.585 16.112,70.401 15.872,60.867 z "
   style="opacity:0.6;fill:url(#XMLID_16_);fill-rule:evenodd"
   id="path4851" />
				<path
   d="M 14.459,61.422 C 14.193,50.932 27.115,30.59 39.112,36.636 C 51.108,42.683 44.15,63.942 37.185,71.874 C 30.219,79.806 14.721,71.91 14.459,61.422 M 15.872,60.867 C 15.63,51.33 27.382,32.834 38.289,38.33 C 49.199,43.83 42.871,63.163 36.538,70.373 C 30.201,77.587 16.11,70.405 15.872,60.867"
   style="fill-rule:evenodd"
   id="path4853" />
				<linearGradient
   x1="68.1045"
   y1="89.705101"
   x2="68.1045"
   y2="64.412598"
   id="XMLID_17_"
   gradientUnits="userSpaceOnUse">
					<stop
   style="stop-color:white;stop-opacity:1"
   offset="0"
   id="stop4856" />
					<stop
   style="stop-color:#f7fbff;stop-opacity:1"
   offset="0.0862"
   id="stop4858" />
					<stop
   style="stop-color:#e2f0ff;stop-opacity:1"
   offset="0.2177"
   id="stop4860" />
					<stop
   style="stop-color:#c0deff;stop-opacity:1"
   offset="0.3779"
   id="stop4862" />
					<stop
   style="stop-color:#8fc6ff;stop-opacity:1"
   offset="0.56089997"
   id="stop4864" />
					<stop
   style="stop-color:#52a6ff;stop-opacity:1"
   offset="0.76310003"
   id="stop4866" />
					<stop
   style="stop-color:#0880ff;stop-opacity:1"
   offset="0.97829998"
   id="stop4868" />
					<stop
   style="stop-color:#007cff;stop-opacity:1"
   offset="1"
   id="stop4870" />
				</linearGradient>
				<path
   d="M 50.679,76.388 C 48.731,88.618 64.086,100.833 74.805,95.619 C 85.525,90.409 91.089,69.579 79.611,62.056 C 68.128,54.528 52.626,64.155 50.679,76.388 z "
   style="opacity:0.6;fill:url(#XMLID_17_);fill-rule:evenodd"
   id="path4872" />
				<path
   d="M 49.292,76.248 C 47.189,89.445 63.759,102.627 75.326,97.004 C 86.888,91.381 92.897,68.9 80.508,60.782 C 68.119,52.664 51.395,63.051 49.292,76.248 M 50.681,76.385 C 48.729,88.618 64.088,100.833 74.808,95.619 C 85.525,90.409 91.089,69.575 79.607,62.052 C 68.128,54.528 52.628,64.155 50.681,76.385"
   style="fill-rule:evenodd"
   id="path4874" />
				<linearGradient
   x1="27.188499"
   y1="37.401901"
   x2="31.1115"
   y2="61.544701"
   id="XMLID_18_"
   gradientUnits="userSpaceOnUse">
					<stop
   style="stop-color:white;stop-opacity:1"
   offset="0.0287356"
   id="stop4877" />
					<stop
   style="stop-color:white;stop-opacity:0"
   offset="1"
   id="stop4879" />
				</linearGradient>
				<path
   d="M 17.164,60.362 C 16.946,51.695 27.623,34.883 37.537,39.879 C 47.449,44.876 41.699,62.444 35.944,69 C 30.188,75.551 17.384,69.028 17.164,60.362 z "
   style="fill:url(#XMLID_18_);fill-rule:evenodd"
   id="path4881" />
				<linearGradient
   x1="65.625999"
   y1="57.8232"
   x2="69.687897"
   y2="84.9506"
   id="XMLID_19_"
   gradientUnits="userSpaceOnUse">
					<stop
   style="stop-color:white;stop-opacity:1"
   offset="0.045977"
   id="stop4884" />
					<stop
   style="stop-color:white;stop-opacity:0"
   offset="1"
   id="stop4886" />
				</linearGradient>
				<path
   d="M 52.063,76.525 C 50.27,87.79 64.414,99.04 74.29,94.241 C 84.161,89.442 89.289,70.254 78.713,63.323 C 68.135,56.391 53.858,65.257 52.063,76.525 z "
   style="fill:url(#XMLID_19_);fill-rule:evenodd"
   id="path4888" />
			</g>
			<g
   id="g4890">
				<linearGradient
   x1="-225.524"
   y1="506.366"
   x2="-215.17799"
   y2="503.005"
   id="XMLID_20_"
   gradientUnits="userSpaceOnUse"
   gradientTransform="matrix(0.9242,0,0,1.2097,284.655,-514.16)">
					<stop
   style="stop-color:black;stop-opacity:1"
   offset="0.27000001"
   id="stop4893" />
					<stop
   style="stop-color:white;stop-opacity:1"
   offset="0.73000002"
   id="stop4895" />
					<a:midPointStop
   offset="0.27"
   style="stop-color:#000000" />
					<a:midPointStop
   offset="0.5"
   style="stop-color:#000000" />
					<a:midPointStop
   offset="0.73"
   style="stop-color:#FFFFFF" />
				</linearGradient>
				<path
   d="M 79.063,94.362 C 81.075,94.158 83.902,94.025 85.91,94.476 C 87.918,94.934 86.794,97.955 85.272,97.753 C 83.752,97.554 78.006,97.244 75.958,96.566 C 73.91,95.89 77.051,94.565 79.063,94.362 z "
   style="fill:url(#XMLID_20_);fill-rule:evenodd"
   id="path4897" />
				<path
   d="M 78.092,95.113 C 80.269,94.945 84.515,94.896 85.65,95.674 C 86.792,96.449 86.31,98.141 84.811,97.916 C 83.311,97.694 76.95,97.498 74.736,96.937 C 72.517,96.376 75.919,95.282 78.092,95.113 z "
   style="fill-rule:evenodd"
   id="path4899" />
			</g>
			<g
   id="g4901">
				<path
   d="M 48.386,52.935 C 49.49,52.935 50.384,55.522 50.384,58.714 C 50.384,61.906 49.49,64.494 48.386,64.494 C 47.284,64.494 46.39,61.906 46.39,58.714 C 46.39,55.522 47.284,52.935 48.386,52.935 z "
   style="fill:white;fill-rule:evenodd"
   id="path4903" />
				<path
   d="M 48.531,51.903 C 49.904,51.903 51.024,55.357 51.024,59.593 C 51.024,63.827 49.904,67.283 48.531,67.283 C 47.157,67.283 46.037,63.827 46.037,59.593 C 46.037,55.356 47.157,51.903 48.531,51.903 M 48.322,53.097 C 49.275,53.097 50.055,55.9 50.055,59.337 C 50.055,62.771 49.275,65.579 48.322,65.579 C 47.369,65.579 46.592,62.771 46.592,59.337 C 46.591,55.9 47.369,53.097 48.322,53.097"
   style="fill:#999;fill-rule:evenodd"
   id="path4905" />
				<path
   d="M 48.835,55.755 C 49.481,55.755 50.005,57.428 50.005,59.493 C 50.005,61.562 49.482,63.236 48.835,63.236 C 48.191,63.236 47.669,61.562 47.669,59.493 C 47.669,57.428 48.191,55.755 48.835,55.755 z "
   style="fill:#999;fill-rule:evenodd"
   id="path4907" />
			</g>
		</g>
</svg>