<?xml version="1.0" encoding="UTF-8" standalone="no"?>
<!-- Created with Inkscape (http://www.inkscape.org/) -->
<svg
   xmlns:svg="http://www.w3.org/2000/svg"
   xmlns="http://www.w3.org/2000/svg"
   xmlns:xlink="http://www.w3.org/1999/xlink"
   version="1.0"
   width="48"
   height="48"
   id="svg1455">
  <defs
     id="defs3">
    <linearGradient
       x1="100.6055"
       y1="37.1133"
       x2="100.6055"
       y2="139.7401"
       id="linearGradient9044"
       xlink:href="#XMLID_1_"
       gradientUnits="userSpaceOnUse"
       gradientTransform="matrix(0.12861,-6.386046e-2,6.003955e-2,0.117844,48.67348,0.239063)" />
    <linearGradient
       id="light100to0">
      <stop
         style="stop-color:white;stop-opacity:1"
         offset="0"
         id="stop2764" />
      <stop
         style="stop-color:white;stop-opacity:0"
         offset="1"
         id="stop2765" />
    </linearGradient>
    <linearGradient
       x1="146.3847"
       y1="64.407753"
       x2="307.07626"
       y2="436.28043"
       id="linearGradient9043"
       xlink:href="#light100to0"
       gradientUnits="userSpaceOnUse"
       gradientTransform="matrix(9.55185e-2,-3.628389e-2,3.912589e-2,0.105125,27.78007,9.907698)" />
    <linearGradient
       id="redtodarkred">
      <stop
         style="stop-color:red;stop-opacity:1"
         offset="0"
         id="stop3856" />
      <stop
         style="stop-color:#920000;stop-opacity:1"
         offset="1"
         id="stop3855" />
    </linearGradient>
    <linearGradient
       x1="-110.52393"
       y1="27.161865"
       x2="439.44684"
       y2="461.30771"
       id="linearGradient9042"
       xlink:href="#redtodarkred"
       gradientUnits="userSpaceOnUse"
       gradientTransform="matrix(9.309382e-2,-3.536275e-2,3.639664e-2,9.779137e-2,28.36097,10.40549)" />
    <linearGradient
       id="orangelesstoyelow">
      <stop
         style="stop-color:#ff7d00;stop-opacity:1"
         offset="0"
         id="stop2689" />
      <stop
         style="stop-color:#ffbe00;stop-opacity:1"
         offset="0.25358382"
         id="stop2690" />
      <stop
         style="stop-color:yellow;stop-opacity:1"
         offset="1"
         id="stop2691" />
    </linearGradient>
    <radialGradient
       cx="186.75356"
       cy="103.61057"
       r="117.68623"
       fx="189.43584"
       fy="25.390987"
       id="radialGradient9041"
       xlink:href="#orangelesstoyelow"
       gradientUnits="userSpaceOnUse"
       gradientTransform="matrix(9.250725e-2,-3.513989e-2,3.662747e-2,9.841177e-2,28.36097,10.40549)"
       spreadMethod="reflect" />
    <linearGradient
       x1="100.6055"
       y1="37.1133"
       x2="100.6055"
       y2="139.7401"
       id="XMLID_1_"
       gradientUnits="userSpaceOnUse">
      <stop
         style="stop-color:#ffa700;stop-opacity:1"
         offset="0"
         id="stop9" />
      <stop
         style="stop-color:yellow;stop-opacity:1"
         offset="0.69099998"
         id="stop11" />
      <stop
         style="stop-color:#fffc00;stop-opacity:1"
         offset="0.792"
         id="stop13" />
      <stop
         style="stop-color:#fff400;stop-opacity:1"
         offset="0.85460001"
         id="stop15" />
      <stop
         style="stop-color:#ffe500;stop-opacity:1"
         offset="0.90670002"
         id="stop17" />
      <stop
         style="stop-color:#ffd100;stop-opacity:1"
         offset="0.95300001"
         id="stop19" />
      <stop
         style="stop-color:#ffb700;stop-opacity:1"
         offset="0.99519998"
         id="stop21" />
      <stop
         style="stop-color:#ffb300;stop-opacity:1"
         offset="1"
         id="stop23" />
      <midPointStop
         id="midPointStop25"
         style="stop-color:#FFA700"
         offset="0" />
      <midPointStop
         id="midPointStop27"
         style="stop-color:#FFA700"
         offset="0.5" />
      <midPointStop
         id="midPointStop29"
         style="stop-color:#FFFF00"
         offset="0.691" />
      <midPointStop
         id="midPointStop31"
         style="stop-color:#FFFF00"
         offset="0.7952" />
      <midPointStop
         id="midPointStop33"
         style="stop-color:#FFB300"
         offset="1" />
    </linearGradient>
    <linearGradient
       x1="100.6055"
       y1="37.1133"
       x2="100.6055"
       y2="139.7401"
       id="linearGradient9040"
       xlink:href="#XMLID_1_"
       gradientUnits="userSpaceOnUse"
       gradientTransform="matrix(0.380689,-0.189029,0.183421,0.360017,48.0261,-0.411723)" />
    <linearGradient
       id="light75to0">
      <stop
         style="stop-color:white;stop-opacity:0.72916669"
         offset="0"
         id="stop2769" />
      <stop
         style="stop-color:white;stop-opacity:0"
         offset="1"
         id="stop2770" />
    </linearGradient>
    <linearGradient
       x1="5.6831765"
       y1="21.673885"
       x2="14.964557"
       y2="41.796101"
       id="linearGradient9039"
       xlink:href="#light75to0"
       gradientUnits="userSpaceOnUse"
       gradientTransform="matrix(1.104176,0,0,0.490191,43.76188,12.01201)" />
    <linearGradient
       x1="117.48062"
       y1="0.76412511"
       x2="122.9659"
       y2="-4.4011321"
       id="linearGradient9038"
       xlink:href="#light100to25to0"
       gradientUnits="userSpaceOnUse"
       gradientTransform="matrix(0.583981,-5.632389e-2,0.240585,1.738144,24.49778,48.99001)" />
    <linearGradient
       id="light100to25to0">
      <stop
         style="stop-color:white;stop-opacity:1"
         offset="0"
         id="stop2785" />
      <stop
         style="stop-color:white;stop-opacity:0.28749999"
         offset="0.5"
         id="stop2786" />
      <stop
         style="stop-color:white;stop-opacity:0"
         offset="1"
         id="stop2787" />
    </linearGradient>
    <radialGradient
       cx="151.53014"
       cy="30.823576"
       r="35.001339"
       fx="151.53014"
       fy="30.823576"
       id="radialGradient9037"
       xlink:href="#light100to25to0"
       gradientUnits="userSpaceOnUse"
       gradientTransform="matrix(0.407853,-0.182096,0.912747,2.044345,0,0)" />
  </defs>
  <g
     id="layer1">
    <g
       transform="matrix(0.711048,0,0,0.670143,-41.17282,-3.827476)"
       id="g5319">
      <path
         d="M 49.642323,8.0001778 C 49.372088,7.9239165 49.1435,7.9742629 48.997792,8.0259591 C 48.707121,8.1287244 48.20931,8.4631233 48.224355,9.5212716 L 48.379042,20.736115 C 48.387375,21.390736 47.896229,22.199149 47.322011,22.437678 L 37.473573,26.536897 C 36.545207,26.916831 36.449052,27.500615 36.468105,27.825959 C 36.487155,28.151303 36.675181,28.771269 37.654042,29.140803 L 47.992323,33.033772 C 48.593156,33.264079 49.183401,34.029185 49.255605,34.683772 L 50.467323,45.898615 C 50.584236,46.955358 51.119057,47.295999 51.42123,47.393928 C 51.724844,47.491327 52.326557,47.529309 52.916537,46.697834 L 59.1556,37.880647 C 59.195381,37.824222 59.285372,37.802851 59.336077,37.75174 L 74.96082,78.23367 C 75.291233,79.139543 75.465308,79.914809 76.47694,79.545829 L 78.616792,78.746611 C 79.628423,78.377628 79.516982,77.406726 79.186586,76.500854 L 65.023997,38.070628 L 71.607952,40.046272 C 72.608941,40.31518 73.03865,39.924934 73.206389,39.659553 C 73.374095,39.39417 73.563268,38.812669 72.948577,37.932209 L 66.451702,28.573615 C 66.080386,28.037463 66.018065,27.05155 66.322787,26.511115 L 71.659514,17.049397 C 72.161428,16.157718 71.91109,15.583814 71.711077,15.322053 C 71.511047,15.060289 71.028472,14.676474 70.061077,14.961115 L 59.800139,18.003303 C 59.213828,18.177147 58.313192,17.884381 57.892327,17.384553 L 50.570448,8.6962716 C 50.224653,8.2874214 49.912559,8.0764375 49.642323,8.0001778 z "
         transform="matrix(1.095529,-0.161395,6.257485e-2,0.996904,26.11163,9.028099)"
         style="fill:black;fill-opacity:0.1;stroke:none;stroke-width:0.33090088;stroke-linejoin:round;stroke-miterlimit:4;stroke-opacity:0.0875"
         id="path1816" />
      <path
         d="M 65.92562,8.9076719 L 68.692072,8.9076719 C 69.997314,8.9076719 71.048105,9.8486074 71.048105,11.017393 L 71.048105,68.739583 C 71.048105,69.908368 69.997314,70.849303 68.692072,70.849303 L 65.92562,70.849303 C 64.620378,70.849303 63.569588,69.908368 63.569588,68.739583 L 63.569588,11.017393 C 63.569588,9.8486074 64.620378,8.9076719 65.92562,8.9076719 z "
         transform="matrix(0.687595,-0.33629,0.35803,0.727112,39.95577,47.0526)"
         style="fill:black;fill-opacity:1;stroke:none;stroke-width:0.96249998;stroke-linecap:round;stroke-linejoin:round;stroke-miterlimit:4;stroke-dashoffset:0;stroke-opacity:0.03673467"
         id="rect1353" />
      <path
         d="M 67.698064,-9.5640421 L 70.049498,-10.382516 C 71.15893,-10.768681 71.220131,-9.9611296 71.565925,-8.9676817 L 89.274498,39.602494 C 89.620291,40.59594 89.401634,41.945506 88.292201,42.331672 L 86.107092,43.020303 C 84.997659,43.406469 84.671708,42.988309 84.325915,41.994862 L 66.319656,-7.0737685 C 65.973862,-8.0672161 66.588632,-9.1778771 67.698064,-9.5640421 z "
         transform="matrix(0.76865,-6.678086e-2,0.100746,0.798325,39.95577,47.0526)"
         style="fill:url(#radialGradient9037);fill-opacity:1;stroke:none;stroke-width:0.96249998;stroke-linecap:round;stroke-linejoin:round;stroke-miterlimit:4;stroke-dashoffset:0;stroke-opacity:0.03673467"
         id="path1976" />
      <path
         d="M 89.796171,31.583299 C 95.586901,43.397423 99.97818,48.744941 104.04718,61.111926 C 106.0111,67.080912 105.84096,67.882372 105.10246,68.24323 C 98.30401,54.678799 95.119508,47.849479 88.321031,34.285051 C 88.977014,33.493981 89.140186,32.374368 89.796171,31.583299 z "
         style="fill:url(#linearGradient9038);fill-opacity:1;fill-rule:evenodd;stroke:none;stroke-width:0.25354896pt;stroke-linecap:butt;stroke-linejoin:miter;stroke-opacity:1"
         id="path2607" />
      <path
         d="M 48.811637,26.089317 C 48.813292,25.6353 48.814948,25.181281 48.816605,24.727272 C 48.818261,24.273254 48.819916,23.819236 48.821581,23.365219 C 48.812842,22.871707 48.951671,22.570907 49.337771,22.540552 C 50.618106,22.535949 51.898433,22.531354 53.178768,22.526759 C 54.459103,22.522165 55.739429,22.51757 57.019765,22.512967 C 56.962739,23.974627 51.485706,23.674168 50.721596,23.760146 C 49.320058,23.917847 50.361741,25.555093 48.811637,26.089317 z "
         transform="matrix(1.095529,-0.161395,6.257485e-2,0.996904,26.11163,9.028099)"
         style="fill:url(#linearGradient9039);fill-opacity:1;fill-rule:evenodd;stroke:none;stroke-width:0.0125;stroke-linecap:butt;stroke-linejoin:miter;stroke-miterlimit:4;stroke-opacity:1"
         id="path6094" />
      <path
         d="M 108.72185,24.316186 C 108.6252,24.510332 108.4434,24.762996 108.10957,24.939135 C 108.44415,24.763528 108.63235,24.524373 108.73469,24.341386 C 108.89565,24.055314 109.04957,23.524181 108.67978,22.836739 C 108.98918,23.520791 108.86198,24.033236 108.72185,24.316186 z "
         style="fill:url(#linearGradient9040)"
         id="path1106" />
      <path
         d="M 67.970791,12.389828 C 67.780948,12.132512 67.32503,11.742237 66.406859,12.022041 L 56.682194,15.010535 C 56.125721,15.181425 55.256373,14.891232 54.856916,14.399898 L 47.913452,5.8560929 C 47.257056,5.0522896 46.697615,5.1035164 46.421028,5.2051498 C 46.145151,5.3061702 45.685132,5.6329304 45.699412,6.6730995 L 45.848254,17.712472 C 45.856164,18.35597 45.384514,19.128446 44.839518,19.362921 L 35.494127,23.393973 C 34.613007,23.767453 34.511732,24.359433 34.529812,24.679248 C 34.547894,24.999064 34.717694,25.589646 35.646739,25.9529 L 45.459941,29.786664 C 46.030199,30.013058 46.594678,30.777313 46.663207,31.420775 L 47.825903,42.446661 C 47.936866,43.485447 48.43526,43.800908 48.722056,43.897173 C 49.010221,43.992917 49.576053,44.031913 50.136015,43.214566 L 56.054119,34.549858 C 56.400044,34.041671 57.219822,33.738505 57.809292,33.900637 L 67.874028,36.693806 C 68.824077,36.958146 69.232425,36.559735 69.391613,36.298863 C 69.550801,36.037991 69.729723,35.470734 69.146315,34.605234 L 62.988715,25.411862 C 62.636289,24.884819 62.578724,23.921488 62.867933,23.390235 L 67.929806,14.085138 C 68.406172,13.208611 68.160634,12.647142 67.970791,12.389828 z "
         transform="matrix(1.095529,-0.161395,6.257485e-2,0.996904,26.11163,9.028099)"
         style="fill:url(#radialGradient9041);stroke:url(#linearGradient9042);stroke-width:0.27299324;stroke-linejoin:round;stroke-miterlimit:4;stroke-opacity:0.41874994"
         id="path1107" />
      <path
         d="M 61.990082,22.112126 L 65.049047,15.927623 C 65.416909,15.183759 65.205288,14.694928 65.045695,14.46916 C 64.886625,14.243194 64.508443,13.89742 63.769064,14.118442 L 55.942795,16.478315 C 55.494764,16.613596 54.783737,16.344391 54.449113,15.912614 L 48.631896,8.405743 C 48.082596,7.6993054 47.62946,7.7314458 47.407465,7.8125672 C 47.18573,7.8935905 46.819498,8.1648604 46.85349,9.0602766 L 47.210775,18.567077 C 47.231062,19.121111 46.865132,19.7759 46.427743,19.965558 L 38.931697,23.231213 C 38.22485,23.533198 38.155189,24.040541 38.176944,24.316531 C 38.198583,24.592209 38.348728,25.104393 39.110463,25.437332 L 47.15446,28.952668 C 47.621973,29.159781 48.096508,29.830501 48.165858,30.385845 L 48.203872,30.690211 C 49.051802,30.451466 49.900582,30.177133 50.747082,29.85558 C 55.369458,28.099712 59.221704,25.346209 61.990082,22.112126 z "
         transform="matrix(1.095529,-0.161395,6.257485e-2,0.996904,26.11163,9.028099)"
         style="fill:url(#linearGradient9043)"
         id="path1108" />
      <path
         d="M 109.10166,24.203836 C 109.00342,24.398914 108.81908,24.653001 108.4817,24.83091 C 108.81984,24.653531 109.01058,24.412967 109.11451,24.229062 C 109.27795,23.941547 109.43525,23.408284 109.06494,22.72023 C 109.37435,23.405111 109.24408,23.919533 109.10166,24.203836 z "
         style="fill:url(#linearGradient9044)"
         id="path1109" />
      <path
         d="M 57.09566,31.977473 C 56.48697,31.778631 55.658496,32.084749 55.321434,32.631856 L 50.004104,43.168761 C 49.458452,44.048947 48.878004,43.987081 48.580108,43.87147 C 48.368078,43.788852 48.042692,43.573076 47.819605,43.039864 C 48.016138,43.628162 48.370781,43.842786 48.597359,43.917818 C 48.887914,44.012859 49.4589,44.050151 50.026617,43.229252 L 56.026757,34.526942 C 56.377484,34.016551 57.205847,33.710132 57.800311,33.870753 L 67.950248,36.638174 C 68.428767,36.768986 68.77186,36.734494 69.01527,36.634131 C 68.772084,36.735096 68.425519,36.760259 67.935575,36.598748 L 57.09566,31.977473 z "
         transform="matrix(1.095529,-0.161395,6.257485e-2,0.996904,26.11163,9.028099)"
         style="opacity:0.3;fill:#e89500"
         id="path1110" />
    </g>
  </g>
</svg>
